SplineFontDB: 3.0
FontName: RansomThreat
FullName: RansomThreat
FamilyName: Ransom Threat
Weight: Book
Copyright: (c)Copyright 1997 - 2008 Terrence Curran http://www.grilledcheese.com
Version: 2015-04-18
ItalicAngle: 0
UnderlinePosition: -123
UnderlineWidth: 20
Ascent: 800
Descent: 200
InvalidEm: 0
sfntRevision: 0x00010000
LayerCount: 2
Layer: 0 0 "Back" 1
Layer: 1 0 "Fore" 0
XUID: [1021 926 -1967619417 4469749]
FSType: 0
OS2Version: 3
OS2_WeightWidthSlopeOnly: 0
OS2_UseTypoMetrics: 1
CreationTime: 1218423840
ModificationTime: 1429678744
PfmFamily: 81
TTFWeight: 400
TTFWidth: 5
LineGap: 0
VLineGap: 0
Panose: 0 0 4 0 0 0 0 0 0 0
OS2TypoAscent: 800
OS2TypoAOffset: 0
OS2TypoDescent: -268
OS2TypoDOffset: 0
OS2TypoLinegap: 0
OS2WinAscent: 800
OS2WinAOffset: 0
OS2WinDescent: 268
OS2WinDOffset: 0
HheadAscent: 800
HheadAOffset: 0
HheadDescent: -268
HheadDOffset: 0
OS2SubXSize: 700
OS2SubYSize: 650
OS2SubXOff: 0
OS2SubYOff: 143
OS2SupXSize: 700
OS2SupYSize: 650
OS2SupXOff: 0
OS2SupYOff: 453
OS2StrikeYSize: 50
OS2StrikeYPos: 259
OS2CapHeight: 0
OS2XHeight: 0
OS2Vendor: 'GRIL'
OS2CodePages: 00000001.00000000
OS2UnicodeRanges: 00000001.08000000.14000000.00000000
Lookup: 258 0 0 "'kern' Horizontal Kerning in Latin lookup 0" { "'kern' Horizontal Kerning in Latin lookup 0 subtable"  } ['kern' ('latn' <'dflt' > ) ]
MarkAttachClasses: 1
DEI: 91125
TtTable: prep
PUSHW_1
 10
CALL
NPUSHB
 31
 18
 18
 17
 17
 16
 16
 15
 15
 14
 14
 13
 13
 12
 12
 11
 11
 10
 10
 9
 9
 4
 4
 3
 3
 2
 2
 1
 1
 0
 0
 1
SCANTYPE
PUSHW_1
 511
SCANCTRL
RCVT
ROUND[Grey]
WCVTP
RCVT
ROUND[Grey]
WCVTP
RCVT
ROUND[Grey]
WCVTP
RCVT
ROUND[Grey]
WCVTP
RCVT
ROUND[Grey]
WCVTP
RCVT
ROUND[Grey]
WCVTP
RCVT
ROUND[Grey]
WCVTP
RCVT
ROUND[Grey]
WCVTP
RCVT
ROUND[Grey]
WCVTP
RCVT
ROUND[Grey]
WCVTP
RCVT
ROUND[Grey]
WCVTP
RCVT
ROUND[Grey]
WCVTP
RCVT
ROUND[Grey]
WCVTP
RCVT
ROUND[Grey]
WCVTP
RCVT
ROUND[Grey]
WCVTP
PUSHB_4
 6
 5
 70
 0
CALL
PUSHB_4
 8
 7
 70
 0
CALL
PUSHB_2
 5
 5
RCVT
ROUND[Grey]
WCVTP
PUSHB_2
 7
 7
RCVT

StartChar: .notdef
Encoding: 256 -1 0
Width: 500
Flags: HW
LayerCount: 2
Back
Fore
SplineSet
63 0 m 1
 63 800 l 1
 438 800 l 1
 438 0 l 1
 63 0 l 1
125 63 m 1
 375 63 l 1
 375 738 l 1
 125 738 l 1
 125 63 l 1
EndSplineSet
Validated: 1
EndChar

StartChar: exclam
Encoding: 33 33 4
Width: 407
Flags: HW
LayerCount: 2
Back
Fore
SplineSet
347 744 m 1
 358 718 364 690 364 661 c 0
 364 625 352 572 328 503 c 128
 304 434 292 381 292 345 c 0
 292 313 298 283 311 254 c 1
 299 216 288 187 279 166 c 0
 264 133 247 107 227 88 c 1
 217 83 207 81 197 81 c 0
 163 81 136 102 116 145 c 1
 112 176 110 223 110 286 c 128
 110 349 107 395 104 426 c 0
 98 475 86 516 69 548 c 1
 70 604 75 647 82 677 c 0
 93 724 114 762 145 790 c 1
 183 797 212 800 232 800 c 0
 285 800 323 781 347 744 c 1
50 614 m 1
 50 611 45 604 34 593 c 1
 34 614 l 1
 50 614 l 1
15 254 m 1
 13 251 8 250 0 250 c 1
 0 259 1 264 4 265 c 1
 15 254 l 1
235 -154 m 1
 225 -155 215 -155 206 -155 c 0
 141 -155 99 -136 80 -99 c 0
 78 -92 77 -86 77 -79 c 0
 77 -60 86 -39 103 -16 c 0
 124 12 137 30 141 38 c 1
 181 42 203 44 207 44 c 0
 236 44 259 37 278 23 c 1
 286 13 298 -3 313 -24 c 0
 323 -39 328 -54 328 -70 c 0
 328 -106 290 -131 235 -154 c 1
76 -194 m 1
 74 -198 71 -200 66 -200 c 2
 55 -200 l 1
 55 -189 l 1
 76 -194 l 1
256 740 m 1
 224 746 217 748 212 749 c 1
 204 749 197 747 191 744 c 1
 191 740 l 1
 201 735 212 733 224 733 c 256
 236 733 247 735 256 740 c 1
286 694 m 1
 278 707 264 714 244 714 c 0
 235 714 222 712 202 708 c 128
 182 704 156 704 156 704 c 1
 190 700 228 693 264 693 c 0
 272 693 279 693 286 694 c 1
296 654 m 1
 269 667 234 674 189 674 c 0
 168 674 150 672 135 668 c 1
 162 655 198 649 241 649 c 0
 261 649 279 651 296 654 c 1
296 607 m 1
 260 621 223 628 184 628 c 0
 159 628 136 625 116 618 c 1
 149 605 186 598 227 598 c 0
 253 598 276 601 296 607 c 1
282 563 m 1
 236 573 194 578 157 578 c 0
 138 578 122 577 109 574 c 1
 156 563 197 557 231 557 c 0
 251 557 268 559 282 563 c 1
267 506 m 1
 248 523 217 532 172 532 c 0
 153 532 136 530 120 527 c 1
 149 513 198 506 267 506 c 1
256 477 m 1
 255 477 253 477 252 477 c 0
 233 477 180 494 163 494 c 0
 157 494 151 493 145 492 c 1
 145 466 l 1
 147 466 153 466 163 466 c 0
 173 466 186 466 203 466 c 0
 227 466 245 470 256 477 c 1
252 431 m 1
 246 438 237 441 226 441 c 0
 216 441 184 435 174 435 c 0
 169 435 164 436 160 437 c 1
 160 427 l 1
 167 427 178 426 192 422 c 128
 206 418 217 416 224 416 c 0
 237 416 246 421 252 431 c 1
242 376 m 1
 242 387 l 1
 160 387 l 1
 160 376 l 1
 163 377 167 378 172 378 c 0
 181 378 212 371 221 371 c 0
 228 371 235 373 242 376 c 1
246 336 m 1
 235 343 222 347 207 347 c 0
 194 347 184 346 177 346 c 0
 170 346 167 347 166 347 c 2
 166 336 l 1
 200 331 218 328 220 328 c 0
 231 328 240 331 246 336 c 1
246 290 m 1
 246 300 l 1
 242 299 238 299 233 299 c 0
 222 299 184 306 173 306 c 0
 168 306 164 306 160 305 c 1
 160 286 l 1
 246 290 l 1
252 246 m 1
 249 259 240 265 225 265 c 0
 214 265 167 254 156 254 c 1
 163 248 175 244 193 244 c 0
 205 244 220 245 230 245 c 0
 239 245 247 245 251 245 c 0
 253 245 254 245 254 245 c 0
 254 245 254 246 252 246 c 1
231 210 m 1
 160 220 l 1
 160 204 l 1
 166 201 173 199 180 199 c 1
 183 200 194 203 231 210 c 1
227 174 m 1
 223 177 218 179 213 179 c 0
 209 179 203 177 195 174 c 128
 187 171 181 170 177 170 c 1
 177 169 176 168 176 167 c 0
 176 162 183 156 185 153 c 1
 188 157 193 159 202 159 c 0
 208 159 212 158 215 158 c 0
 223 158 227 162 227 170 c 0
 227 171 227 172 227 174 c 1
227 -13 m 1
 221 -6 215 -2 208 -2 c 0
 203 -2 194 -7 182 -16 c 128
 170 -25 162 -31 156 -32 c 1
 179 -39 194 -43 201 -43 c 0
 208 -43 215 -41 221 -38 c 1
 221 -24 l 2
 221 -18 223 -14 227 -13 c 1
261 -78 m 1
 250 -68 233 -63 211 -63 c 0
 194 -63 173 -64 162 -64 c 0
 152 -64 145 -64 141 -63 c 1
 141 -74 l 1
 147 -72 154 -71 161 -71 c 0
 176 -71 221 -84 236 -84 c 0
 245 -84 254 -82 261 -78 c 1
221 -107 m 1
 196 -107 l 1
 203 -115 209 -119 214 -119 c 0
 215 -119 216 -118 217 -118 c 0
 220 -117 222 -114 222 -111 c 0
 222 -110 222 -108 221 -107 c 1
EndSplineSet
Validated: 1
EndChar

StartChar: numbersign
Encoding: 35 35 5
Width: 942
Flags: HW
LayerCount: 2
Back
Fore
SplineSet
124 377 m 1
 16 377 l 1
 38 401.666666667 50.6666666667 417 54 423 c 0
 67.3333333333 441.666666667 74 459.666666667 74 477 c 0
 74 484.333333333 72.6666666667 492 70 500 c 1
 113 513 l 1
 116.333333333 501.666666667 118 490 118 478 c 0
 118 458.666666667 114 440 106 422 c 1
 174 422 l 1
 165 336 l 1
 308 336 l 1
 308 291 l 1
 160 291 l 1
 148 189 l 2
 146 179 147 168.333333333 151 157 c 0
 155 143.666666667 161 137 169 137 c 0
 176.333333333 137 184.666666667 143.333333333 194 156 c 0
 198.666666667 162 201 170.666666667 201 182 c 0
 201 191.333333333 197 195 189 193 c 1
 178 237 l 1
 184 238.333333333 189.666666667 239 195 239 c 0
 211 239 223.5 233.166666667 232.5 221.5 c 128
 241.5 209.833333333 246 195.333333333 246 178 c 0
 246 160 241 144 231 130 c 0
 216.333333333 109.333333333 191.666666667 99 157 99 c 0
 119 99 100 119.333333333 100 160 c 0
 100 170.666666667 101.333333333 182.666666667 104 196 c 2
 114 291 l 1
 -15 291 l 1
 -15 336 l 1
 119 336 l 1
 124 377 l 1
495 521 m 1
 499 509 501 497 501 485 c 0
 501 451 486.666666667 417.666666667 458 385 c 1
 379 385 l 1
 358 196 l 2
 356.666666667 192 356 188.333333333 356 185 c 0
 356 155 376.666666667 140 418 140 c 0
 452.666666667 140 478.666666667 151.666666667 496 175 c 0
 501.333333333 182.333333333 504 192.333333333 504 205 c 0
 504 214.333333333 501.666666667 220.666666667 497 224 c 0
 495.666666667 224.666666667 494.666666667 224.666666667 494 224 c 2
 483 268 l 1
 488.333333333 269.333333333 493.333333333 270 498 270 c 0
 513.333333333 270 525.5 263.333333333 534.5 250 c 128
 543.5 236.666666667 548 220.666666667 548 202 c 0
 548 181.333333333 543 164 533 150 c 0
 507 113.333333333 469.666666667 95 421 95 c 0
 391 95 365.666666667 102.666666667 345 118 c 0
 322.333333333 134.666666667 311 156.333333333 311 183 c 0
 311 189.666666667 311.666666667 196.666666667 313 204 c 2
 338 430 l 1
 437 430 l 1
 449.666666667 447.333333333 456 465.666666667 456 485 c 0
 456 493 454.666666667 500.333333333 452 507 c 1
 495 521 l 1
420 238 m 1
 422 237 l 1
 399 198 l 1
 383 207.333333333 375 220 375 236 c 0
 375 257.333333333 392.666666667 282 428 310 c 0
 468 338 468 338 508 366 c 0
 513.333333333 370 516.666666667 372.666666667 518 374 c 2
 552 344 l 1
 546.666666667 338.666666667 532.833333333 328.5 510.5 313.5 c 128
 488.166666667 298.5 471.666666667 287 461 279 c 0
 437.666666667 261 424 247.333333333 420 238 c 1
682 430 m 1
 685.333333333 445.333333333 685.666666667 455 683 459 c 0
 681 459.666666667 677 460.333333333 671 461 c 1
 675.666666667 445.666666667 677.666666667 432.333333333 677 421 c 1
 682 430 l 1
741 411 m 1
 776 282 l 1
 796 282 l 1
 786 311.333333333 786.666666667 337.333333333 798 360 c 1
 839 343 l 1
 827.666666667 320.333333333 826.666666667 299 836 279 c 2
 856 236 l 1
 789 236 l 1
 823 114 l 1
 821 104 822.333333333 93.3333333333 827 82 c 128
 831.666666667 70.6666666667 838 65 846 65 c 0
 851.333333333 65 857.166666667 67.8333333333 863.5 73.5 c 128
 869.833333333 79.1666666667 873 89.3333333333 873 104 c 0
 873 112.666666667 869.666666667 116.333333333 863 115 c 1
 852 158 l 1
 858.666666667 160 864.666666667 161 870 161 c 0
 902.666666667 161 919 141 919 101 c 0
 919 81 914.333333333 64.6666666667 905 52 c 0
 889.666666667 30.6666666667 864.666666667 20 830 20 c 0
 792 20 773 40.6666666667 773 82 c 0
 773 91.3333333333 774.333333333 101.666666667 777 113 c 1
 743 236 l 1
 648 236 l 1
 591 103 l 1
 550 121 l 1
 605 256 l 1
 605 281 l 1
 617 282 l 1
 654 366 l 1
 591 366 l 1
 618.333333333 398 632 419.666666667 632 431 c 0
 632 436.333333333 630 445 626 457 c 0
 618 477.666666667 612.666666667 492 610 500 c 1
 637.333333333 503.333333333 656 505 666 505 c 0
 708 505 729 487 729 451 c 0
 729 441 727.666666667 429.333333333 725 416 c 1
 722 411 l 1
 741 411 l 1
668 282 m 1
 729 282 l 1
 706 366 l 1
 704 366 l 1
 668 282 l 1
EndSplineSet
Validated: 33
EndChar

StartChar: dollar
Encoding: 36 36 6
Width: 942
Flags: HW
LayerCount: 2
Back
Fore
SplineSet
124 377 m 1
 16 377 l 1
 38 401.666666667 50.6666666667 417 54 423 c 0
 67.3333333333 441.666666667 74 459.666666667 74 477 c 0
 74 484.333333333 72.6666666667 492 70 500 c 1
 113 513 l 1
 116.333333333 501.666666667 118 490 118 478 c 0
 118 458.666666667 114 440 106 422 c 1
 174 422 l 1
 165 336 l 1
 308 336 l 1
 308 291 l 1
 160 291 l 1
 148 189 l 2
 146 179 147 168.333333333 151 157 c 0
 155 143.666666667 161 137 169 137 c 0
 176.333333333 137 184.666666667 143.333333333 194 156 c 0
 198.666666667 162 201 170.666666667 201 182 c 0
 201 191.333333333 197 195 189 193 c 1
 178 237 l 1
 184 238.333333333 189.666666667 239 195 239 c 0
 211 239 223.5 233.166666667 232.5 221.5 c 128
 241.5 209.833333333 246 195.333333333 246 178 c 0
 246 160 241 144 231 130 c 0
 216.333333333 109.333333333 191.666666667 99 157 99 c 0
 119 99 100 119.333333333 100 160 c 0
 100 170.666666667 101.333333333 182.666666667 104 196 c 2
 114 291 l 1
 -15 291 l 1
 -15 336 l 1
 119 336 l 1
 124 377 l 1
495 521 m 1
 499 509 501 497 501 485 c 0
 501 451 486.666666667 417.666666667 458 385 c 1
 379 385 l 1
 358 196 l 2
 356.666666667 192 356 188.333333333 356 185 c 0
 356 155 376.666666667 140 418 140 c 0
 452.666666667 140 478.666666667 151.666666667 496 175 c 0
 501.333333333 182.333333333 504 192.333333333 504 205 c 0
 504 214.333333333 501.666666667 220.666666667 497 224 c 0
 495.666666667 224.666666667 494.666666667 224.666666667 494 224 c 2
 483 268 l 1
 488.333333333 269.333333333 493.333333333 270 498 270 c 0
 513.333333333 270 525.5 263.333333333 534.5 250 c 128
 543.5 236.666666667 548 220.666666667 548 202 c 0
 548 181.333333333 543 164 533 150 c 0
 507 113.333333333 469.666666667 95 421 95 c 0
 391 95 365.666666667 102.666666667 345 118 c 0
 322.333333333 134.666666667 311 156.333333333 311 183 c 0
 311 189.666666667 311.666666667 196.666666667 313 204 c 2
 338 430 l 1
 437 430 l 1
 449.666666667 447.333333333 456 465.666666667 456 485 c 0
 456 493 454.666666667 500.333333333 452 507 c 1
 495 521 l 1
420 238 m 1
 422 237 l 1
 399 198 l 1
 383 207.333333333 375 220 375 236 c 0
 375 257.333333333 392.666666667 282 428 310 c 0
 468 338 468 338 508 366 c 0
 513.333333333 370 516.666666667 372.666666667 518 374 c 2
 552 344 l 1
 546.666666667 338.666666667 532.833333333 328.5 510.5 313.5 c 128
 488.166666667 298.5 471.666666667 287 461 279 c 0
 437.666666667 261 424 247.333333333 420 238 c 1
682 430 m 1
 685.333333333 445.333333333 685.666666667 455 683 459 c 0
 681 459.666666667 677 460.333333333 671 461 c 1
 675.666666667 445.666666667 677.666666667 432.333333333 677 421 c 1
 682 430 l 1
741 411 m 1
 776 282 l 1
 796 282 l 1
 786 311.333333333 786.666666667 337.333333333 798 360 c 1
 839 343 l 1
 827.666666667 320.333333333 826.666666667 299 836 279 c 2
 856 236 l 1
 789 236 l 1
 823 114 l 1
 821 104 822.333333333 93.3333333333 827 82 c 128
 831.666666667 70.6666666667 838 65 846 65 c 0
 851.333333333 65 857.166666667 67.8333333333 863.5 73.5 c 128
 869.833333333 79.1666666667 873 89.3333333333 873 104 c 0
 873 112.666666667 869.666666667 116.333333333 863 115 c 1
 852 158 l 1
 858.666666667 160 864.666666667 161 870 161 c 0
 902.666666667 161 919 141 919 101 c 0
 919 81 914.333333333 64.6666666667 905 52 c 0
 889.666666667 30.6666666667 864.666666667 20 830 20 c 0
 792 20 773 40.6666666667 773 82 c 0
 773 91.3333333333 774.333333333 101.666666667 777 113 c 1
 743 236 l 1
 648 236 l 1
 591 103 l 1
 550 121 l 1
 605 256 l 1
 605 281 l 1
 617 282 l 1
 654 366 l 1
 591 366 l 1
 618.333333333 398 632 419.666666667 632 431 c 0
 632 436.333333333 630 445 626 457 c 0
 618 477.666666667 612.666666667 492 610 500 c 1
 637.333333333 503.333333333 656 505 666 505 c 0
 708 505 729 487 729 451 c 0
 729 441 727.666666667 429.333333333 725 416 c 1
 722 411 l 1
 741 411 l 1
668 282 m 1
 729 282 l 1
 706 366 l 1
 704 366 l 1
 668 282 l 1
EndSplineSet
Validated: 33
EndChar

StartChar: percent
Encoding: 37 37 7
Width: 942
Flags: HW
LayerCount: 2
Back
Fore
SplineSet
124 377 m 1
 16 377 l 1
 38 401.666666667 50.6666666667 417 54 423 c 0
 67.3333333333 441.666666667 74 459.666666667 74 477 c 0
 74 484.333333333 72.6666666667 492 70 500 c 1
 113 513 l 1
 116.333333333 501.666666667 118 490 118 478 c 0
 118 458.666666667 114 440 106 422 c 1
 174 422 l 1
 165 336 l 1
 308 336 l 1
 308 291 l 1
 160 291 l 1
 148 189 l 2
 146 179 147 168.333333333 151 157 c 0
 155 143.666666667 161 137 169 137 c 0
 176.333333333 137 184.666666667 143.333333333 194 156 c 0
 198.666666667 162 201 170.666666667 201 182 c 0
 201 191.333333333 197 195 189 193 c 1
 178 237 l 1
 184 238.333333333 189.666666667 239 195 239 c 0
 211 239 223.5 233.166666667 232.5 221.5 c 128
 241.5 209.833333333 246 195.333333333 246 178 c 0
 246 160 241 144 231 130 c 0
 216.333333333 109.333333333 191.666666667 99 157 99 c 0
 119 99 100 119.333333333 100 160 c 0
 100 170.666666667 101.333333333 182.666666667 104 196 c 2
 114 291 l 1
 -15 291 l 1
 -15 336 l 1
 119 336 l 1
 124 377 l 1
495 521 m 1
 499 509 501 497 501 485 c 0
 501 451 486.666666667 417.666666667 458 385 c 1
 379 385 l 1
 358 196 l 2
 356.666666667 192 356 188.333333333 356 185 c 0
 356 155 376.666666667 140 418 140 c 0
 452.666666667 140 478.666666667 151.666666667 496 175 c 0
 501.333333333 182.333333333 504 192.333333333 504 205 c 0
 504 214.333333333 501.666666667 220.666666667 497 224 c 0
 495.666666667 224.666666667 494.666666667 224.666666667 494 224 c 2
 483 268 l 1
 488.333333333 269.333333333 493.333333333 270 498 270 c 0
 513.333333333 270 525.5 263.333333333 534.5 250 c 128
 543.5 236.666666667 548 220.666666667 548 202 c 0
 548 181.333333333 543 164 533 150 c 0
 507 113.333333333 469.666666667 95 421 95 c 0
 391 95 365.666666667 102.666666667 345 118 c 0
 322.333333333 134.666666667 311 156.333333333 311 183 c 0
 311 189.666666667 311.666666667 196.666666667 313 204 c 2
 338 430 l 1
 437 430 l 1
 449.666666667 447.333333333 456 465.666666667 456 485 c 0
 456 493 454.666666667 500.333333333 452 507 c 1
 495 521 l 1
420 238 m 1
 422 237 l 1
 399 198 l 1
 383 207.333333333 375 220 375 236 c 0
 375 257.333333333 392.666666667 282 428 310 c 0
 468 338 468 338 508 366 c 0
 513.333333333 370 516.666666667 372.666666667 518 374 c 2
 552 344 l 1
 546.666666667 338.666666667 532.833333333 328.5 510.5 313.5 c 128
 488.166666667 298.5 471.666666667 287 461 279 c 0
 437.666666667 261 424 247.333333333 420 238 c 1
682 430 m 1
 685.333333333 445.333333333 685.666666667 455 683 459 c 0
 681 459.666666667 677 460.333333333 671 461 c 1
 675.666666667 445.666666667 677.666666667 432.333333333 677 421 c 1
 682 430 l 1
741 411 m 1
 776 282 l 1
 796 282 l 1
 786 311.333333333 786.666666667 337.333333333 798 360 c 1
 839 343 l 1
 827.666666667 320.333333333 826.666666667 299 836 279 c 2
 856 236 l 1
 789 236 l 1
 823 114 l 1
 821 104 822.333333333 93.3333333333 827 82 c 128
 831.666666667 70.6666666667 838 65 846 65 c 0
 851.333333333 65 857.166666667 67.8333333333 863.5 73.5 c 128
 869.833333333 79.1666666667 873 89.3333333333 873 104 c 0
 873 112.666666667 869.666666667 116.333333333 863 115 c 1
 852 158 l 1
 858.666666667 160 864.666666667 161 870 161 c 0
 902.666666667 161 919 141 919 101 c 0
 919 81 914.333333333 64.6666666667 905 52 c 0
 889.666666667 30.6666666667 864.666666667 20 830 20 c 0
 792 20 773 40.6666666667 773 82 c 0
 773 91.3333333333 774.333333333 101.666666667 777 113 c 1
 743 236 l 1
 648 236 l 1
 591 103 l 1
 550 121 l 1
 605 256 l 1
 605 281 l 1
 617 282 l 1
 654 366 l 1
 591 366 l 1
 618.333333333 398 632 419.666666667 632 431 c 0
 632 436.333333333 630 445 626 457 c 0
 618 477.666666667 612.666666667 492 610 500 c 1
 637.333333333 503.333333333 656 505 666 505 c 0
 708 505 729 487 729 451 c 0
 729 441 727.666666667 429.333333333 725 416 c 1
 722 411 l 1
 741 411 l 1
668 282 m 1
 729 282 l 1
 706 366 l 1
 704 366 l 1
 668 282 l 1
EndSplineSet
Validated: 33
EndChar

StartChar: ampersand
Encoding: 38 38 8
Width: 741
Flags: HW
LayerCount: 2
Back
Fore
SplineSet
473 655 m 1
 474.333333333 658.333333333 478.666666667 660 486 660 c 0
 488 660 491.333333333 659.666666667 496 659 c 0
 504 659 504 659 507 659 c 0
 517.666666667 659 523.666666667 662 525 668 c 1
 525 667.333333333 528 663 534 655 c 1
 552 655 l 1
 573 660 l 2
 583 660 590.333333333 655.333333333 595 646 c 1
 599 650 l 1
 603 647.333333333 606.5 638.333333333 609.5 623 c 128
 612.5 607.666666667 619 598 629 594 c 1
 637 599.333333333 647.333333333 594.666666667 660 580 c 0
 666.666666667 570 670 557 670 541 c 0
 670 525.666666667 666.666666667 512.666666667 660 502 c 1
 666.666666667 480.666666667 669.333333333 466.333333333 668 459 c 1
 662 456.333333333 659.333333333 451 660 443 c 0
 660 423 660 423 660 423 c 1
 666.666666667 419.666666667 669.666666667 413 669 403 c 0
 668 380 668 380 668 380 c 1
 662 376 659.333333333 369.333333333 660 360 c 0
 660 336 660 336 660 336 c 1
 667.333333333 329.333333333 670 323.666666667 668 319 c 1
 654 315.666666667 650 308.666666667 656 298 c 0
 662.666666667 285.333333333 661 276.333333333 651 271 c 1
 651 262 651 262 651 254 c 0
 651.666666667 247.333333333 654.666666667 243 660 241 c 1
 654 231 648.333333333 210.666666667 643 180 c 1
 645.666666667 177.333333333 647 173.666666667 647 169 c 0
 647 165 645.666666667 158.666666667 643 150 c 128
 640.333333333 141.333333333 638.666666667 135.5 638 132.5 c 128
 637.333333333 129.5 637 127 637 125 c 0
 637 121.666666667 638 116.333333333 640 109 c 128
 642 101.666666667 643 96.3333333333 643 93 c 0
 643 85 640 78.6666666667 634 74 c 1
 638 71 l 1
 635.333333333 57.6666666667 634 39 634 15 c 0
 634 -36 634 -36 634 -39 c 0
 613.333333333 -55.6666666667 588.666666667 -66.3333333333 560 -71 c 0
 543.333333333 -73.6666666667 514.333333333 -74.6666666667 473 -74 c 1
 454.333333333 -64.6666666667 426.333333333 -57.3333333333 389 -52 c 0
 346.333333333 -46 317.333333333 -40.3333333333 302 -35 c 1
 256 -28.3333333333 210 -21.3333333333 164 -14 c 0
 111.333333333 -4 69 11 37 31 c 1
 42.3333333333 35 45 40.3333333333 45 47 c 0
 45 49.6666666667 44.3333333333 54.1666666667 43 60.5 c 128
 41.6666666667 66.8333333333 41 71.3333333333 41 74 c 0
 41 82 45.3333333333 88 54 92 c 1
 50.6666666667 96 49 100 49 104 c 0
 49 107.333333333 51.1666666667 112.5 55.5 119.5 c 128
 59.8333333333 126.5 62 132 62 136 c 1
 80 153 l 1
 72.6666666667 157.666666667 69 162.666666667 69 168 c 0
 69 172 71.3333333333 177.666666667 76 185 c 128
 80.6666666667 192.333333333 83.6666666667 197.833333333 85 201.5 c 128
 86.3333333333 205.166666667 91.1666666667 210.5 99.5 217.5 c 128
 107.833333333 224.5 113 230.666666667 115 236 c 0
 115.666666667 237.333333333 118 242.333333333 122 251 c 0
 124.666666667 257.666666667 126 262.666666667 126 266 c 0
 126 272.666666667 122.333333333 277.333333333 115 280 c 1
 132 292 l 1
 130 294 129 296 129 298 c 256
 129 300 130.333333333 303.333333333 133 308 c 128
 135.666666667 312.666666667 137 316 137 318 c 0
 137 322 134 325.333333333 128 328 c 1
 138.666666667 332.666666667 145 344 147 362 c 128
 149 380 157 390.333333333 171 393 c 1
 172.333333333 398.333333333 171.666666667 405 169 413 c 128
 166.333333333 421 166 427.333333333 168 432 c 1
 172 432 175.333333333 435 178 441 c 128
 180.666666667 447 184.333333333 450 189 450 c 1
 185 471 l 1
 190.333333333 470.333333333 194.666666667 472 198 476 c 128
 201.333333333 480 204.333333333 484.333333333 207 489 c 1
 205 493 204 496.666666667 204 500 c 0
 204 507.333333333 209.333333333 514.666666667 220 522 c 128
 230.666666667 529.333333333 236 536.333333333 236 543 c 0
 236 546.333333333 235 550 233 554 c 1
 240.333333333 561.333333333 248.166666667 573.666666667 256.5 591 c 128
 264.833333333 608.333333333 272.666666667 621 280 629 c 1
 282 648.333333333 291 667 307 685 c 1
 315 678.333333333 320.666666667 675.666666667 324 677 c 2
 333 685 l 1
 368 672 l 2
 370.666666667 673.333333333 373.666666667 674 377 674 c 0
 381.666666667 674 388.833333333 672.333333333 398.5 669 c 128
 408.166666667 665.666666667 415.333333333 663.666666667 420 663 c 0
 420.666666667 664.333333333 422 665 424 665 c 0
 425.333333333 665 429.166666667 664 435.5 662 c 128
 441.833333333 660 446.333333333 659 449 659 c 0
 455 659 458.333333333 662 459 668 c 1
 473 655 l 1
612 576 m 1
 578 576 l 1
 579.333333333 573.333333333 580 571 580 569 c 0
 580 566.333333333 577.666666667 563 573 559 c 128
 568.333333333 555 566 551.333333333 566 548 c 0
 566 546 566.666666667 543.666666667 568 541 c 0
 584 534.333333333 594.333333333 531.333333333 599 532 c 0
 606.333333333 532 610.666666667 534.666666667 612 540 c 0
 613.333333333 543.333333333 613.5 549.333333333 612.5 558 c 128
 611.5 566.666666667 611.333333333 572.666666667 612 576 c 1
517 188 m 0
 515.666666667 188.666666667 512.333333333 192 507 198 c 0
 503 202 499 203 495 201 c 0
 493.666666667 203 487 209 475 219 c 0
 466.333333333 226.333333333 462 233.666666667 462 241 c 0
 462 243 462.666666667 245.666666667 464 249 c 0
 474.666666667 253.666666667 482.166666667 263.833333333 486.5 279.5 c 128
 490.833333333 295.166666667 498 305.666666667 508 311 c 1
 508.666666667 322.333333333 507 338 503 358 c 1
 495.666666667 359.333333333 485.666666667 358 473 354 c 1
 468.333333333 340 463.666666667 325.666666667 459 311 c 0
 452.333333333 295.666666667 442.333333333 283.666666667 429 275 c 1
 415.666666667 289 403 307.666666667 391 331 c 0
 375 360 375 360 359 389 c 1
 366.333333333 399 377 408 391 416 c 0
 402.333333333 423.333333333 414 430.833333333 426 438.5 c 128
 438 446.166666667 450.666666667 467.333333333 464 502 c 1
 464 529.333333333 461 546.666666667 455 554 c 0
 435.666666667 578.666666667 415.333333333 590.666666667 394 590 c 1
 387.333333333 592.666666667 378 594 366 594 c 0
 340 594 340 594 338 594 c 0
 332 588.666666667 326 582.833333333 320 576.5 c 128
 314 570.166666667 308 567.333333333 302 568 c 1
 295.333333333 564.666666667 291.666666667 559.166666667 291 551.5 c 128
 290.333333333 543.833333333 289.666666667 536.333333333 289 529 c 1
 282.333333333 523.666666667 279.333333333 515 280 503 c 0
 280.666666667 487 280.666666667 478 280 476 c 0
 278.666666667 470.666666667 280.666666667 465.666666667 286 461 c 0
 298 450 298 450 298 450 c 2
 297.333333333 448.666666667 293.333333333 440 286 424 c 0
 281.333333333 414 275.333333333 406.333333333 268 401 c 0
 250.666666667 391 238.333333333 382.333333333 231 375 c 0
 219 363.666666667 212.333333333 350.666666667 211 336 c 1
 204.333333333 326.666666667 201.333333333 312.666666667 202 294 c 0
 202 262 202 247 202 249 c 1
 208.666666667 243 215.333333333 236.666666667 222 230 c 128
 228.666666667 223.333333333 232.333333333 216.666666667 233 210 c 0
 234.333333333 209.333333333 244 203.666666667 262 193 c 0
 273.333333333 186.333333333 284 183 294 183 c 1
 303.333333333 177 317.333333333 174 336 174 c 0
 381 175 381 175 381 175 c 1
 391 187 402 193 414 193 c 0
 423.333333333 193 437.833333333 187 457.5 175 c 128
 477.166666667 163 492.333333333 157.333333333 503 158 c 1
 511.666666667 155.333333333 516.333333333 158.333333333 517 167 c 0
 517 177 517 177 517 188 c 0
408 529 m 0
 410.666666667 525.666666667 412 522 412 518 c 0
 412 514.666666667 410.5 509.666666667 407.5 503 c 128
 404.5 496.333333333 402.666666667 492 402 490 c 128
 401.333333333 488 395.333333333 481.333333333 384 470 c 0
 378 464 371.333333333 460.333333333 364 459 c 1
 355 450 l 1
 344.333333333 454.666666667 337.666666667 463.666666667 335 477 c 0
 331 498.333333333 328.666666667 509.333333333 328 510 c 0
 346.666666667 534 364.333333333 546 381 546 c 0
 391.666666667 546 400.666666667 540.333333333 408 529 c 0
389 249 m 1
 385.666666667 240.333333333 377.333333333 228.666666667 364 214 c 1
 357.333333333 213.333333333 351 213 345 213 c 0
 315 213 289.333333333 222.333333333 268 241 c 0
 258 248.333333333 252.333333333 260 251 276 c 0
 251 290 250.666666667 304.333333333 250 319 c 1
 258 322.333333333 267.666666667 332.666666667 279 350 c 0
 289 365.333333333 297.333333333 373 304 373 c 0
 311.333333333 373 319.333333333 366.666666667 328 354 c 0
 337.333333333 336 346.333333333 318 355 300 c 0
 365.666666667 279.333333333 377 262.333333333 389 249 c 1
EndSplineSet
Validated: 33
EndChar

StartChar: quotesingle
Encoding: 39 39 9
Width: 308
Flags: HW
LayerCount: 2
Back
Fore
SplineSet
23 658 m 2
 23 757 l 2
 24.3333333333 758.333333333 25.6666666667 758.333333333 27 757 c 0
 26.3333333333 731 26.3333333333 699 27 661 c 0
 26.3333333333 659 25.6666666667 658.5 25 659.5 c 128
 24.3333333333 660.5 23.6666666667 660 23 658 c 2
243 769 m 1
 238.333333333 745.666666667 201.333333333 648.666666667 132 478 c 1
 71 491 l 1
 108 637 l 1
 71 645 l 1
 69.6666666667 659.666666667 69 674.666666667 69 690 c 0
 69 736.666666667 76.6666666667 769.666666667 92 789 c 1
 243 769 l 1
262 667 m 2
 256 788 l 1
 260 778 262.666666667 758 264 728 c 0
 264.666666667 700.666666667 264 680.333333333 262 667 c 2
32 468 m 0
 34 465.333333333 70.6666666667 464 142 464 c 0
 217.333333333 463.333333333 261.333333333 461.666666667 274 459 c 1
 245 454 l 1
 235 455.333333333 224.333333333 456 213 456 c 0
 198.333333333 456 177 454.666666667 149 452 c 128
 121 449.333333333 100 448 86 448 c 0
 65.3333333333 448 46.3333333333 450 29 454 c 1
 19 471 l 1
 29 620 l 1
 39.6666666667 566.666666667 40.6666666667 516 32 468 c 0
EndSplineSet
Validated: 33
EndChar

StartChar: asterisk
Encoding: 42 42 11
Width: 578
Flags: HW
LayerCount: 2
Back
Fore
SplineSet
412 633 m 1
 399.333333333 619.666666667 380 601 354 577 c 1
 351 579 l 2
 350.333333333 577 346.666666667 573.333333333 340 568 c 128
 333.333333333 562.666666667 330 558 330 554 c 0
 330 552 331 549.666666667 333 547 c 0
 332.333333333 545.666666667 338.166666667 543 350.5 539 c 128
 362.833333333 535 369.333333333 533 370 533 c 0
 372 534.333333333 374.666666667 535 378 535 c 256
 381.333333333 535 383.666666667 534.333333333 385 533 c 128
 386.333333333 531.666666667 389 531 393 531 c 1
 393 531 393 531 398 523 c 1
 400 524.333333333 402.333333333 525 405 525 c 0
 408.333333333 525 413.5 523.166666667 420.5 519.5 c 128
 427.5 515.833333333 433.333333333 514 438 514 c 1
 437.333333333 512 437.833333333 508.5 439.5 503.5 c 128
 441.166666667 498.5 442 495 442 493 c 0
 442 488.333333333 439.666666667 485.333333333 435 484 c 1
 435.666666667 480 434 475.333333333 430 470 c 1
 432.666666667 469.333333333 433.333333333 468 432 466 c 0
 430 461 430 461 430 461 c 1
 426 456 l 1
 428 454 l 1
 416.666666667 447.333333333 411.333333333 444 412 444 c 1
 409.333333333 444 406.333333333 445 403 447 c 1
 403 446.333333333 401.333333333 448.666666667 398 454 c 1
 394.666666667 453.333333333 390 452.333333333 384 451 c 1
 384 451 384 451 379 458 c 1
 377.666666667 456.666666667 376 456 374 456 c 0
 372.666666667 456 370.5 457 367.5 459 c 128
 364.5 461 362 462 360 462 c 0
 358.666666667 462 357.333333333 461.666666667 356 461 c 0
 356 460.333333333 354.333333333 462.666666667 351 468 c 1
 341 467.333333333 328 471 312 479 c 1
 312 475 311.333333333 465 310 449 c 1
 313.333333333 445.666666667 315.333333333 444 316 444 c 1
 314.666666667 442 314 437.333333333 314 430 c 1
 321 426 321 426 321 426 c 257
 321 426 321 426 319 413 c 0
 318.333333333 408.333333333 319.666666667 405 323 403 c 2
 326 403 l 2
 324.666666667 401 324 399 324 397 c 0
 324 394.333333333 325.333333333 390.666666667 328 386 c 128
 330.666666667 381.333333333 332 377.333333333 332 374 c 0
 332 372 331.5 370.5 330.5 369.5 c 128
 329.5 368.5 328 366.333333333 326 363 c 128
 324 359.666666667 322.666666667 358 322 358 c 0
 320.666666667 358.666666667 319.666666667 359.666666667 319 361 c 1
 314 354 314 354 314 354 c 2
 311.333333333 354.666666667 308.666666667 355 306 355 c 0
 301.333333333 355 295 353.5 287 350.5 c 128
 279 347.5 273.333333333 346 270 346 c 0
 264 346 259.333333333 350 256 358 c 1
 258 363.333333333 258.666666667 367.333333333 258 370 c 0
 254 373.333333333 253 374 251 375 c 1
 252.333333333 376.333333333 253 381 253 389 c 1
 249 391 247 393 247 393 c 2
 245.723564489 393.850957007 248.899059718 403.342019745 249 406 c 0
 249.178893088 410.710649582 248 414 244 416 c 2
 242 416 l 2
 242.666666667 416.666666667 243.333333333 420 244 426 c 1
 239.333333333 432.666666667 239 434 237 433 c 1
 238.333333333 437.666666667 237 445.333333333 233 456 c 1
 221.666666667 448.666666667 216.333333333 444 217 442 c 1
 215.666666667 442 214 442.666666667 212 444 c 0
 208 442 206.333333333 438.333333333 207 433 c 0
 205.666666667 432.333333333 204.333333333 433 203 435 c 1
 199.666666667 429.666666667 193.833333333 423.666666667 185.5 417 c 128
 177.166666667 410.333333333 171.333333333 404 168 398 c 1
 151 386 151 386 151 386 c 1
 143.666666667 386.666666667 137 390.333333333 131 397 c 128
 125 403.666666667 119.333333333 410 114 416 c 1
 112 414 l 1
 109 418 l 2
 106.333333333 423.333333333 104 425 102 423 c 1
 99.3333333333 424.333333333 98 429.666666667 98 439 c 1
 119.333333333 459.666666667 130.333333333 470 131 470 c 1
 131 469.333333333 131.666666667 468.666666667 133 468 c 0
 141 478 155.666666667 492.666666667 177 512 c 1
 179 509 l 1
 183 513.666666667 184.666666667 517 184 519 c 0
 181.333333333 523 177 525.666666667 171 527 c 0
 163 528.333333333 158 529.666666667 156 531 c 1
 156 530.333333333 154.333333333 532.333333333 151 537 c 0
 149 535.666666667 146.333333333 535 143 535 c 256
 139.666666667 535 136.833333333 535.666666667 134.5 537 c 128
 132.166666667 538.333333333 128.666666667 541.666666667 124 547 c 1
 105.333333333 543.666666667 91 548.333333333 81 561 c 1
 70 568 l 2
 67.3333333333 572.666666667 72.6666666667 584 86 602 c 0
 86.6666666667 604.666666667 86 608 84 612 c 1
 87.3333333333 612 89.6666666667 614.333333333 91 619 c 128
 92.3333333333 623.666666667 93.6666666667 626.666666667 95 628 c 2
 105 628 l 2
 105 627.333333333 106.666666667 625 110 621 c 1
 120.666666667 618.333333333 132.666666667 616 146 614 c 1
 145.333333333 612.666666667 149.833333333 611 159.5 609 c 128
 169.166666667 607 174 605.666666667 174 605 c 0
 173.333333333 601.666666667 175 599.666666667 179 599 c 0
 182.333333333 599 185.333333333 599.333333333 188 600 c 1
 188 599.333333333 189.666666667 597 193 593 c 1
 201.666666667 593.666666667 206.333333333 598.333333333 207 607 c 1
 202.333333333 608.333333333 200 611.333333333 200 616 c 0
 200 617.333333333 200.333333333 619.833333333 201 623.5 c 128
 201.666666667 627.166666667 202 629.666666667 202 631 c 0
 202 635 199.666666667 638 195 640 c 1
 197 642.666666667 197.666666667 646.333333333 197 651 c 0
 197 656.333333333 195 658.666666667 191 658 c 1
 192.333333333 666 190.666666667 673 186 679 c 1
 188 707 l 2
 190 707 197 708.333333333 209 711 c 0
 217.666666667 712.333333333 225.666666667 712.666666667 233 712 c 2
 244 711 l 1
 246 715.666666667 248 718 250 718 c 0
 251.333333333 718 255 711.333333333 261 698 c 1
 258.333333333 692.666666667 257.333333333 688.666666667 258 686 c 0
 265 682 265 682 265 682 c 1
 259.666666667 667.333333333 261.333333333 658.666666667 270 656 c 1
 269 652 269 652 267 644 c 1
 269.666666667 642.666666667 272.333333333 640.333333333 275 637 c 1
 272.333333333 632.333333333 273 625.333333333 277 616 c 1
 286 612 l 1
 300.666666667 630 317 646 335 660 c 1
 337 658 l 1
 368 689 l 1
 369.333333333 684.333333333 378 675.333333333 394 662 c 0
 407.333333333 651.333333333 413.333333333 641.666666667 412 633 c 1
433 709 m 1
 442.333333333 707.666666667 449.333333333 701.666666667 454 691 c 0
 455.333333333 689.666666667 458.333333333 680.333333333 463 663 c 0
 462.333333333 659.666666667 463.333333333 654 466 646 c 128
 468.666666667 638 470 632 470 628 c 2
 470 628 470 628 470 610 c 0
 471.333333333 606 475 598.5 481 587.5 c 128
 487 576.5 490 567.333333333 490 560 c 0
 490 556.666666667 489.333333333 553 488 549 c 1
 492 547 493.833333333 541.666666667 493.5 533 c 128
 493.166666667 524.333333333 494.666666667 519 498 517 c 1
 497.333333333 513.666666667 498 509.666666667 500 505 c 0
 498 503 497 500.666666667 497 498 c 0
 497 496 498.666666667 492.833333333 502 488.5 c 128
 505.333333333 484.166666667 507 481 507 479 c 2
 509 477 l 1
 505.666666667 445 506.666666667 422.333333333 512 409 c 0
 515.333333333 404.333333333 517 397 517 387 c 0
 516.333333333 372.333333333 516.333333333 364.333333333 517 363 c 1
 506.333333333 358.333333333 499.333333333 352.333333333 496 345 c 1
 479.333333333 339.666666667 462 335.666666667 444 333 c 0
 443.333333333 330.333333333 441 328.333333333 437 327 c 128
 433 325.666666667 430.666666667 323.666666667 430 321 c 1
 428 322.333333333 426 323 424 323 c 256
 422 323 415 319.333333333 403 312 c 1
 392.333333333 312 386 310.333333333 384 307 c 0
 382.666666667 306.333333333 381 307.333333333 379 310 c 1
 376.333333333 305.333333333 370.666666667 302.333333333 362 301 c 128
 353.333333333 299.666666667 347.666666667 297 345 293 c 1
 339.666666667 294.333333333 333.666666667 293.833333333 327 291.5 c 128
 320.333333333 289.166666667 315.166666667 287.666666667 311.5 287 c 128
 307.833333333 286.333333333 301.833333333 284.5 293.5 281.5 c 128
 285.166666667 278.5 279 276.333333333 275 275 c 0
 271.666666667 275.666666667 268.666666667 276 266 276 c 0
 261.333333333 276 255.166666667 273.833333333 247.5 269.5 c 128
 239.833333333 265.166666667 233.666666667 263 229 263 c 0
 225.666666667 263 222.333333333 263.666666667 219 265 c 1
 215.666666667 259.666666667 208.666666667 256.666666667 198 256 c 128
 187.333333333 255.333333333 180.333333333 252.333333333 177 247 c 1
 171 248.333333333 164.166666667 246.833333333 156.5 242.5 c 128
 148.833333333 238.166666667 143 236 139 236 c 0
 136.333333333 236 133.333333333 236.333333333 130 237 c 0
 122.666666667 235 112 230.333333333 98 223 c 1
 84 224.333333333 71.3333333333 229 60 237 c 0
 58 236.333333333 56.3333333333 236 55 236 c 0
 52.3333333333 236 49.5 238.666666667 46.5 244 c 128
 43.5 249.333333333 41.6666666667 252.333333333 41 253 c 0
 39 280.333333333 38 321.333333333 38 376 c 1
 34.6666666667 380.666666667 33 389 33 401 c 128
 33 413 31.3333333333 421.333333333 28 426 c 1
 29.3333333333 429.333333333 30 432.333333333 30 435 c 0
 30 438.333333333 28.8333333333 442.666666667 26.5 448 c 128
 24.1666666667 453.333333333 23 458.333333333 23 463 c 0
 23 466.333333333 23.6666666667 469.666666667 25 473 c 2
 16 510 l 1
 11 600 l 1
 7 604 3.33333333333 618 0 642 c 1
 2.66666666667 643.333333333 4.5 646.166666667 5.5 650.5 c 128
 6.5 654.833333333 8.66666666667 657.333333333 12 658 c 1
 9.33333333333 646 8.33333333333 638 9 634 c 0
 9 632.666666667 11.6666666667 625.666666667 17 613 c 1
 16.3333333333 601 17.3333333333 587.666666667 20 573 c 0
 23.3333333333 551.666666667 25.3333333333 538.333333333 26 533 c 0
 24.6666666667 525.666666667 25.6666666667 513.333333333 29 496 c 0
 29 493.333333333 32.6666666667 484 40 468 c 1
 37 456 37 456 37 456 c 1
 43 450 44 436.666666667 40 416 c 1
 42 400.666666667 44 385 46 369 c 0
 47.3333333333 351 46.6666666667 335 44 321 c 0
 44.6666666667 315 46.3333333333 306.666666667 49 296 c 0
 51.6666666667 292 52 285.333333333 50 276 c 128
 48 266.666666667 48.3333333333 260.166666667 51 256.5 c 128
 53.6666666667 252.833333333 57.3333333333 250.666666667 62 250 c 256
 66.6666666667 249.333333333 70 250.333333333 72 253 c 0
 81.3333333333 259 99.3333333333 265.333333333 126 272 c 0
 163.333333333 281.333333333 182.666666667 286 184 286 c 0
 211.333333333 302.666666667 237.666666667 310.666666667 263 310 c 1
 276.333333333 316 290.333333333 320.333333333 305 323 c 1
 307.666666667 329.666666667 317 333 333 333 c 1
 335.666666667 337 337 339.333333333 337 340 c 0
 339.666666667 340.666666667 342.666666667 339.666666667 346 337 c 1
 350.666666667 345.666666667 359.333333333 349.666666667 372 349 c 1
 398 356 l 1
 403.333333333 362 412.666666667 368 426 374 c 0
 442 380 442 380 458 386 c 0
 460.666666667 386.666666667 464 386 468 384 c 1
 470.666666667 389.333333333 472 391.666666667 472 391 c 1
 474.666666667 391.666666667 478 391 482 389 c 1
 485.333333333 390.333333333 486.833333333 393.666666667 486.5 399 c 128
 486.166666667 404.333333333 486.666666667 407.666666667 488 409 c 0
 485.333333333 413.666666667 484 421.333333333 484 432 c 128
 484 442.666666667 482.333333333 450.666666667 479 456 c 0
 479.666666667 459.333333333 479 463.333333333 477 468 c 1
 474 468 l 1
 474.666666667 471.333333333 475 475 475 479 c 0
 475 485.666666667 473.666666667 495.666666667 471 509 c 128
 468.333333333 522.333333333 467.333333333 531.666666667 468 537 c 0
 466.666666667 547.666666667 462.666666667 561 456 577 c 1
 457.333333333 581 458 585 458 589 c 0
 458 594.333333333 456.333333333 603 453 615 c 128
 449.666666667 627 448.333333333 636.666666667 449 644 c 0
 448.333333333 644.666666667 446.5 648.833333333 443.5 656.5 c 128
 440.5 664.166666667 438.666666667 668 438 668 c 1
 440 671.333333333 441 674.333333333 441 677 c 0
 441 680.333333333 439.333333333 684.333333333 436 689 c 128
 432.666666667 693.666666667 431 697.666666667 431 701 c 0
 431 703.666666667 431.666666667 706.333333333 433 709 c 1
EndSplineSet
Validated: 33
EndChar

StartChar: period
Encoding: 46 46 12
Width: 264
Flags: HW
LayerCount: 2
Back
Fore
SplineSet
2 107 m 0
 2 111 6 112.5 14 111.5 c 128
 22 110.5 26.5 111.333333333 27.5 114 c 128
 28.5 116.666666667 31 127.333333333 35 146 c 0
 37 158.666666667 41.3333333333 167.333333333 48 172 c 0
 68 186 90.3333333333 193 115 193 c 0
 119.666666667 193 124.666666667 190 130 184 c 128
 135.333333333 178 139.666666667 174.333333333 143 173 c 0
 153.666666667 174.333333333 167.333333333 173.333333333 184 170 c 1
 211.333333333 150 225 124 225 92 c 0
 225 86.6666666667 221.333333333 81.5 214 76.5 c 128
 206.666666667 71.5 202.333333333 67.3333333333 201 64 c 0
 196.333333333 52 191 40 185 28 c 128
 179 16 171 7.66666666667 161 3 c 0
 155.666666667 1 148.666666667 0.666666666667 140 2 c 0
 128 4.66666666667 120.333333333 6 117 6 c 256
 113.666666667 6 106.833333333 4.16666666667 96.5 0.5 c 128
 86.1666666667 -3.16666666667 78.6666666667 -4.33333333333 74 -3 c 0
 70 -1.66666666667 66.8333333333 3.5 64.5 12.5 c 128
 62.1666666667 21.5 59.6666666667 27 57 29 c 0
 47 35.6666666667 36.6666666667 42.5 26 49.5 c 128
 15.3333333333 56.5 9 64 7 72 c 0
 3.66666666667 90 2 101.666666667 2 107 c 0
EndSplineSet
Validated: 33
EndChar

StartChar: zero
Encoding: 48 48 13
Width: 592
Flags: HW
LayerCount: 2
Back
Fore
SplineSet
131 427 m 0
 132.333333333 440.333333333 130.666666667 458.666666667 126 482 c 1
 131 487 l 1
 131 599 l 1
 126 604 l 1
 131 608 l 1
 131 706 l 1
 134.333333333 708.666666667 136 713.333333333 136 720 c 0
 136 735 136 735 136 736 c 1
 140 735.333333333 145.333333333 732.333333333 152 727 c 1
 151.333333333 726.333333333 148.333333333 720 143 708 c 0
 143.666666667 706 143.666666667 699.333333333 143 688 c 0
 141.666666667 679.333333333 143.666666667 673.666666667 149 671 c 1
 145.666666667 663.666666667 144.333333333 658.333333333 145 655 c 0
 147.666666667 650.333333333 148 642 146 630 c 128
 144 618 145 609.333333333 149 604 c 0
 149.666666667 599.333333333 148.666666667 593.5 146 586.5 c 128
 143.333333333 579.5 142 574.666666667 142 572 c 0
 142 568.666666667 143 565.833333333 145 563.5 c 128
 147 561.166666667 149 560 151 560 c 0
 153.666666667 560 155.833333333 562.666666667 157.5 568 c 128
 159.166666667 573.333333333 160.333333333 576.666666667 161 578 c 0
 159.666666667 580.666666667 159 583.666666667 159 587 c 0
 159 591 160.833333333 596.833333333 164.5 604.5 c 128
 168.166666667 612.166666667 170 618 170 622 c 0
 170 624 169.333333333 626.333333333 168 629 c 1
 172 629.666666667 174.5 632.166666667 175.5 636.5 c 128
 176.5 640.833333333 178 643.666666667 180 645 c 2
 177 648 l 1
 181 651 181 651 189 657 c 1
 193.666666667 681 211.333333333 701 242 717 c 0
 265.333333333 729 286.333333333 735.333333333 305 736 c 0
 313 737.333333333 325.833333333 736.333333333 343.5 733 c 128
 361.166666667 729.666666667 370 727.666666667 370 727 c 0
 398 713.666666667 420.666666667 691.333333333 438 660 c 0
 454.666666667 631.333333333 464 600 466 566 c 0
 467.333333333 543.333333333 464.333333333 506.333333333 457 455 c 0
 451.666666667 431.666666667 442 400.666666667 428 362 c 0
 419.333333333 341.333333333 402.666666667 319.333333333 378 296 c 1
 375 299 l 1
 365 285.666666667 342.666666667 275.666666667 308 269 c 1
 262.666666667 272.333333333 228.666666667 285.666666667 206 309 c 0
 188.666666667 327.666666667 173 358.333333333 159 401 c 0
 154.333333333 415.666666667 152.666666667 426 154 432 c 0
 152.666666667 440 150.333333333 452.333333333 147 469 c 1
 145 452 145 452 143 435 c 0
 141.666666667 421.666666667 142.333333333 410.333333333 145 401 c 1
 139 398.333333333 136.666666667 389 138 373 c 1
 130 374.333333333 126 384 126 402 c 0
 126 412 127.666666667 420.333333333 131 427 c 0
403 482 m 1
 399.666666667 486.666666667 398 493.333333333 398 502 c 0
 398 524 398 524 398 525 c 0
 398 526.333333333 398.833333333 528.5 400.5 531.5 c 128
 402.166666667 534.5 403 536.666666667 403 538 c 0
 403 540 401.333333333 541.666666667 398 543 c 1
 399.333333333 549.666666667 398.833333333 558 396.5 568 c 128
 394.166666667 578 393.333333333 585 394 589 c 0
 387.333333333 608.333333333 381 627.666666667 375 647 c 0
 365 675.666666667 348.666666667 694.333333333 326 703 c 0
 322 702.333333333 314.333333333 704 303 708 c 1
 292.333333333 705.333333333 282 702.333333333 272 699 c 0
 252.666666667 691.666666667 240.666666667 675.333333333 236 650 c 1
 228 643.333333333 223 625.333333333 221 596 c 0
 218.333333333 563.333333333 215.333333333 544.333333333 212 539 c 0
 211.333333333 535.666666667 211 533 211 531 c 0
 211 527 214.333333333 524.166666667 221 522.5 c 128
 227.666666667 520.833333333 231.666666667 519 233 517 c 0
 238.333333333 515.666666667 244.666666667 517.333333333 252 522 c 1
 259 515 l 1
 257 506.333333333 250.333333333 502.333333333 239 503 c 0
 212 504 212 504 212 504 c 1
 212 499 l 1
 212 499 212 499 246 500 c 0
 259.333333333 500 269 496.666666667 275 490 c 1
 273 487.333333333 269.166666667 485.333333333 263.5 484 c 128
 257.833333333 482.666666667 254 480 252 476 c 1
 249.333333333 479.333333333 243 482.333333333 233 485 c 1
 231.666666667 481.666666667 227.666666667 480 221 480 c 128
 214.333333333 480 211 478.333333333 211 475 c 0
 211 473.666666667 211.333333333 471.666666667 212 469 c 0
 216 463.666666667 217.833333333 455 217.5 443 c 128
 217.166666667 431 218.666666667 422.333333333 222 417 c 1
 221.333333333 405 229 384 245 354 c 128
 261 324 272.666666667 308.666666667 280 308 c 0
 287.333333333 305.333333333 295.666666667 304 305 304 c 0
 323 304 340.333333333 309.333333333 357 320 c 1
 361 327.333333333 368.666666667 338.333333333 380 353 c 0
 378.666666667 355 378 357 378 359 c 0
 378 363 380.166666667 367.666666667 384.5 373 c 128
 388.833333333 378.333333333 391 382.666666667 391 386 c 0
 391 388.666666667 390.333333333 391.333333333 389 394 c 1
 392.333333333 396 393.833333333 400 393.5 406 c 128
 393.166666667 412 394.666666667 415.666666667 398 417 c 1
 398 423 398 423 398 429 c 0
 397.333333333 433.666666667 395.333333333 436.666666667 392 438 c 1
 398 443 398 443 398 443 c 1
 398 459 399.666666667 472 403 482 c 1
149 513 m 1
 149 541 l 1
 147 541 l 1
 147 513 l 1
 149 513 l 1
368 571 m 1
 364 566 l 1
 362.666666667 568.666666667 357.666666667 570.333333333 349 571 c 1
 348.333333333 568.333333333 347 567 345 567 c 0
 344.333333333 567 342.666666667 568.166666667 340 570.5 c 128
 337.333333333 572.833333333 335 574 333 574 c 1
 337 578.666666667 343 581 351 581 c 0
 359.666666667 581 365.333333333 577.666666667 368 571 c 1
380 517 m 1
 378 516.333333333 377 513.833333333 377 509.5 c 128
 377 505.166666667 375.666666667 502.333333333 373 501 c 0
 365 501 360.333333333 502.666666667 359 506 c 0
 360.333333333 506.666666667 362.666666667 509.166666667 366 513.5 c 128
 369.333333333 517.833333333 372.333333333 520 375 520 c 0
 376.333333333 520 378 519 380 517 c 1
392 490 m 1
 392 484 390.333333333 480 387 478 c 1
 385 481.333333333 381.333333333 483 376 483 c 0
 364 482 364 482 364 482 c 1
 361.333333333 476 358.333333333 473 355 473 c 0
 353.666666667 473 351 474 347 476 c 128
 343 478 340 479 338 479 c 0
 335.333333333 479 333 478 331 476 c 1
 333 478.666666667 336 482.333333333 340 487 c 0
 343.333333333 489.666666667 348.666666667 490.166666667 356 488.5 c 128
 363.333333333 486.833333333 368 488.666666667 370 494 c 1
 374.666666667 485.333333333 382 484 392 490 c 1
303 548 m 1
 297.666666667 544 290.666666667 542 282 542 c 0
 274 542 267 544 261 548 c 1
 263.666666667 554 267 557 271 557 c 0
 273 557 276.333333333 556 281 554 c 128
 285.666666667 552 289.333333333 551 292 551 c 0
 294 551 296.333333333 551.333333333 299 552 c 2
 303 548 l 1
343 508 m 1
 342.333333333 508 339.166666667 505.166666667 333.5 499.5 c 128
 327.833333333 493.833333333 325.333333333 489 326 485 c 1
 326 485 326 485 317 492 c 1
 321 496 322.666666667 499 322 501 c 0
 320 504.333333333 315.333333333 505.833333333 308 505.5 c 128
 300.666666667 505.166666667 296 507 294 511 c 1
 314.666666667 520.333333333 331 519.333333333 343 508 c 1
303 482 m 0
 302.333333333 480.666666667 300.333333333 479.333333333 297 478 c 128
 293.666666667 476.666666667 292.666666667 474.333333333 294 471 c 2
 301 466 l 1
 299 464 l 1
 294.333333333 466.666666667 288 471.333333333 280 478 c 1
 288 491.333333333 295.666666667 492.666666667 303 482 c 0
275 469 m 0
 273.666666667 465.666666667 269 464 261 464 c 1
 259 466 l 1
 260.333333333 468.666666667 265 472 273 476 c 0
 273.666666667 475.333333333 274.333333333 473 275 469 c 0
EndSplineSet
Validated: 33
EndChar

StartChar: one
Encoding: 49 49 14
Width: 592
Flags: HW
LayerCount: 2
Back
Fore
SplineSet
147 78 m 1
 161 78 182.666666667 81 212 87 c 1
 225.333333333 160.333333333 238 257 250 377 c 2
 280 668 l 2
 278.666666667 678 266.666666667 688 244 698 c 128
 221.333333333 708 210 717.333333333 210 726 c 0
 210 733.333333333 214.333333333 742.666666667 223 754 c 1
 237 756 312 762.666666667 448 774 c 1
 444 696 432.666666667 580 414 426 c 0
 394.666666667 269.333333333 382.666666667 152.666666667 378 76 c 1
 384 65.3333333333 405.666666667 56 443 48 c 1
 443 37.3333333333 440.666666667 21.3333333333 436 0 c 1
 149 29 l 1
 145 35 143.333333333 43 144 53 c 0
 145.333333333 61 146.333333333 69.3333333333 147 78 c 1
421 168 m 1
 438 79 l 1
 417 143 l 1
 421 168 l 1
EndSplineSet
Validated: 1
EndChar

StartChar: two
Encoding: 50 50 15
Width: 592
Flags: HW
LayerCount: 2
Back
Fore
SplineSet
211 85 m 1
 209 80 l 1
 205 82 l 1
 206 87 l 1
 211 85 l 1
260 89 m 1
 260 86 l 1
 255 88 l 1
 256 90 l 1
 260 89 l 1
201 110 m 1
 200 107 l 1
 196 109 l 1
 196 111 l 1
 201 110 l 1
280 92 m 1
 279 88 l 1
 274 89 l 1
 276 94 l 1
 280 92 l 1
268 97 m 1
 267 92 l 1
 262 94 l 1
 264 98 l 1
 268 97 l 1
259 100 m 1
 257 95 l 1
 255 96 l 1
 257 101 l 1
 259 100 l 1
177 132 m 1
 175 127 l 1
 171 128 l 1
 172 133 l 1
 177 132 l 1
275 108 m 1
 273 103 l 1
 269 105 l 1
 270 109 l 1
 275 108 l 1
179 176 m 1
 197.666666667 194.666666667 224.666666667 223.333333333 260 262 c 0
 290.666666667 296 311 330.666666667 321 366 c 1
 311 364.666666667 297.166666667 355 279.5 337 c 128
 261.833333333 319 248 310 238 310 c 0
 228.666666667 310 220 313.833333333 212 321.5 c 128
 204 329.166666667 200 337.666666667 200 347 c 0
 200 365.666666667 214.666666667 384.333333333 244 403 c 0
 246.666666667 405 268.333333333 417 309 439 c 1
 328.333333333 440.333333333 345.666666667 432 361 414 c 2
 395 366 l 1
 395 351 l 2
 395 345 397.333007812 343.333007812 402 342 c 1
 403.333007812 348.666992188 407.666666667 354 415 362 c 1
 411 259 l 1
 404.333333333 268.333333333 401 281 401 297 c 2
 402 340 l 1
 395.333333333 312.666666667 382 287 362 263 c 0
 344 242 344 242 308 200 c 1
 312.666666667 197.333333333 321.5 195.166666667 334.5 193.5 c 128
 347.5 191.833333333 356.333333333 189.333333333 361 186 c 0
 371 171.333333333 376 155.333333333 376 138 c 0
 376 130 375 121.666666667 373 113 c 1
 361 118.333333333 344 121 322 121 c 1
 328 121 319 120.666666667 295 120 c 2
 295 120 295 120 268 120 c 0
 217.333333333 120 187.666666667 138.666666667 179 176 c 1
168 145 m 1
 167 140 l 1
 162 142 l 1
 164 147 l 1
 168 145 l 1
330 96 m 1
 329 94 l 1
 324 96 l 1
 325 98 l 1
 330 96 l 1
170 158 m 1
 169 153 l 1
 164 155 l 1
 165 159 l 1
 170 158 l 1
350 100 m 1
 348 95 l 1
 343 97 l 1
 345 102 l 1
 350 100 l 1
229 204 m 1
 228.333333333 202 228 200 228 198 c 256
 228 196 228.666666667 194.333333333 230 193 c 0
 234.666666667 188.333333333 238.333333333 186 241 186 c 0
 245 186 249 190.666666667 253 200 c 128
 257 209.333333333 260.333333333 214.666666667 263 216 c 1
 261 217.333333333 259 218 257 218 c 0
 254.333333333 218 251.166666667 215.333333333 247.5 210 c 128
 243.833333333 204.666666667 240 202 236 202 c 0
 234 202 231.666666667 202.666666667 229 204 c 1
182 220 m 1
 186 219 l 1
 185.333333333 216.333333333 184.666666667 215 184 215 c 0
 182.666666667 215.666666667 181.666666667 216.666666667 181 218 c 2
 182 220 l 1
210 264 m 1
 208 259 l 1
 204 261 l 1
 205 265 l 1
 210 264 l 1
189 271 m 1
 187 266 l 1
 185 267 l 1
 186 272 l 1
 189 271 l 1
192 281 m 1
 190 276 l 1
 188 277 l 1
 190 281 l 1
 192 281 l 1
235 274 m 1
 234 271 l 1
 229 273 l 1
 230 275 l 1
 235 274 l 1
229 281 m 1
 228 276 l 1
 223 278 l 1
 225 282 l 1
 229 281 l 1
211 386 m 1
 209 381 l 1
 204 383 l 1
 206 388 l 1
 211 386 l 1
215 398 m 1
 213 393 l 1
 208 395 l 1
 210 399 l 1
 215 398 l 1
216 416 m 1
 214 411 l 1
 209 413 l 1
 211 418 l 1
 216 416 l 1
222 427 m 1
 221 422 l 1
 216 424 l 1
 218 429 l 1
 222 427 l 1
225 434 m 1
 223 429 l 1
 218 431 l 1
 220 436 l 1
 225 434 l 1
216 440 m 1
 215 438 l 1
 213 438 l 1
 214 441 l 1
 216 440 l 1
228 460 m 1
 224 461 l 1
 222 456 l 1
 227 455 l 1
 228 460 l 1
406 405 m 1
 405 403 l 1
 401 404 l 1
 402 407 l 1
 406 405 l 1
248 461 m 1
 247 458 l 1
 242 460 l 1
 243 462 l 1
 248 461 l 1
236 465 m 1
 231 467 l 1
 230 464 l 1
 235 463 l 1
 236 465 l 1
301 453 m 1
 299 448 l 1
 297 449 l 1
 298 454 l 1
 301 453 l 1
270 464 m 1
 268 459 l 1
 263 461 l 1
 265 465 l 1
 270 464 l 1
251 470 m 1
 249 466 l 1
 244 467 l 1
 246 472 l 1
 251 470 l 1
230 480 m 1
 229 475 l 1
 226 476 l 1
 228 481 l 1
 230 480 l 1
314 461 m 1
 313 457 l 1
 308 458 l 1
 310 463 l 1
 314 461 l 1
246 485 m 1
 241 487 l 1
 239 482 l 1
 244 481 l 1
 246 485 l 1
385 444 m 1
 385 442 l 1
 380 444 l 1
 381 446 l 1
 385 444 l 1
314 469 m 1
 314 467 l 1
 309 469 l 1
 310 471 l 1
 314 469 l 1
250 497 m 1
 246 493 l 1
 238 502 l 1
 250 497 l 1
231 504 m 1
 226 506 l 1
 224 501 l 1
 229 499 l 1
 231 504 l 1
390 456 m 1
 388 451 l 1
 383 453 l 1
 385 458 l 1
 390 456 l 1
311 484 m 1
 309 484 l 1
 307 480 l 1
 310 479 l 1
 311 484 l 1
302 487 m 1
 297 489 l 1
 296 484 l 1
 300 482 l 1
 302 487 l 1
252 504 m 1
 247 506 l 1
 246 501 l 1
 251 500 l 1
 252 504 l 1
245 507 m 1
 231 512 l 1
 245 507 l 1
384 469 m 1
 382 464 l 1
 377 466 l 1
 379 471 l 1
 384 469 l 1
343 483 m 1
 341 484 l 1
 339 479 l 1
 342 478 l 1
 343 483 l 1
336 486 m 1
 331 487 l 1
 330 483 l 1
 334 481 l 1
 336 486 l 1
322 491 m 1
 320 486 l 1
 316 488 l 1
 317 492 l 1
 322 491 l 1
312 494 m 1
 311 489 l 1
 306 491 l 1
 308 496 l 1
 312 494 l 1
293 501 m 1
 289 502 l 1
 287 498 l 1
 292 496 l 1
 293 501 l 1
256 514 m 1
 254 509 l 1
 249 511 l 1
 251 516 l 1
 256 514 l 1
248 516 m 1
 247 512 l 1
 242 513 l 1
 244 518 l 1
 248 516 l 1
285 506 m 1
 280 508 l 1
 278 503 l 1
 283 502 l 1
 285 506 l 1
278 509 m 1
 276 504 l 1
 271 506 l 1
 273 510 l 1
 278 509 l 1
228 526 m 1
 228 529.333333333 230.333333333 533 235 537 c 1
 242 535 l 1
 237 523 l 1
 228 526 l 1
362 484 m 1
 360 485 l 1
 359 483 l 1
 361 482 l 1
 362 484 l 1
347 495 m 1
 346 490 l 1
 343 491 l 1
 345 496 l 1
 347 495 l 1
328 502 m 1
 324 503 l 1
 322 499 l 1
 327 497 l 1
 328 502 l 1
319 505 m 1
 317 506 l 1
 315 501 l 1
 317 500 l 1
 319 505 l 1
331 509 m 1
 329 504 l 1
 325 506 l 1
 326 510 l 1
 331 509 l 1
321 512 m 1
 320 507 l 1
 317 508 l 1
 319 513 l 1
 321 512 l 1
300 520 m 1
 298 515 l 1
 294 516 l 1
 295 521 l 1
 300 520 l 1
349 529 m 1
 354.333333333 530.333333333 360.666666667 531 368 531 c 0
 383.333333333 531 403.666666667 528 429 522 c 1
 426 491 l 1
 422 490.333333333 418 490 414 490 c 0
 390 490 368.333333333 503 349 529 c 1
EndSplineSet
Validated: 33
EndChar

StartChar: three
Encoding: 51 51 16
Width: 592
Flags: HW
LayerCount: 2
Back
Fore
SplineSet
127 221 m 1
 129.666666667 239 136 259.333333333 146 282 c 0
 161.333333333 317.333333333 170 337.666666667 172 343 c 1
 168 305 166 287.666666667 166 291 c 1
 166 247 200 226.666666667 268 230 c 1
 297.333333333 242.666666667 320.333333333 265 337 297 c 0
 352.333333333 326.333333333 360 358 360 392 c 1
 344 416 l 1
 367.333333333 425.333333333 386 443 400 469 c 0
 412.666666667 492.333333333 419 517.333333333 419 544 c 0
 419 563.333333333 411.5 578.333333333 396.5 589 c 128
 381.5 599.666666667 364 605 344 605 c 0
 322 605 301.666666667 597 283 581 c 1
 315 650 l 1
 333 649.333333333 358.5 646.166666667 391.5 640.5 c 128
 424.5 634.833333333 449 631 465 629 c 1
 455.666666667 592.333333333 433.666666667 528.666666667 399 438 c 0
 369 361.333333333 350 296.333333333 342 243 c 1
 335.333333333 226.333333333 322.333333333 177 303 95 c 1
 263.666666667 126.333333333 205 168.333333333 127 221 c 1
238 317 m 2
 250 353 l 1
 245.333333333 357 234.166666667 360.833333333 216.5 364.5 c 128
 198.833333333 368.166666667 188.333333333 373 185 379 c 1
 199.666666667 411.666666667 222.666666667 454 254 506 c 1
 272 497.333333333 289.333333333 494 306 496 c 1
 315.333333333 521.333333333 325 533.666666667 335 533 c 1
 337 529 338 524 338 518 c 0
 338 492.666666667 328 472.666666667 308 458 c 1
 302 459.333333333 292 458.333333333 278 455 c 1
 270.666666667 442.333333333 267 430.333333333 267 419 c 0
 267 411 269.333333333 401 274 389 c 0
 280 374.333333333 283.666666667 364.666666667 285 360 c 1
 275.666666667 334 265 313.666666667 253 299 c 1
 241.666666667 299.666666667 236.666666667 305.666666667 238 317 c 2
EndSplineSet
Validated: 33
EndChar

StartChar: four
Encoding: 52 52 17
Width: 592
Flags: HW
LayerCount: 2
Back
Fore
SplineSet
528 373 m 1
 534.666666667 359 538 346 538 334 c 0
 538 306 522 287.666666667 490 279 c 0
 472 274.333333333 462 268.333333333 460 261 c 0
 460 254.333333333 461.5 243.5 464.5 228.5 c 128
 467.5 213.5 469 202 469 194 c 0
 469 177.333333333 464.333333333 163 455 151 c 1
 439 138.333333333 423 132 407 132 c 0
 377.666666667 132 358.333333333 152.666666667 349 194 c 0
 343.666666667 218.666666667 338.666666667 235.666666667 334 245 c 1
 315.333333333 243 281.333333333 236 232 224 c 0
 188 213.333333333 153.666666667 208 129 208 c 0
 105.666666667 208 84 212 64 220 c 1
 53 248 l 1
 83.6666666667 359.333333333 136 498 210 664 c 1
 230 686.666666667 258.333333333 699.666666667 295 703 c 0
 323 705 344.333333333 697.333333333 359 680 c 1
 381 644 397 595.666666667 407 535 c 0
 421 451 430.666666667 400.666666667 436 384 c 1
 456 388 472.666666667 390 486 390 c 0
 504 390 518 384.333333333 528 373 c 1
311 362 m 1
 275 553 l 1
 199 340 l 1
 215.666666667 340.666666667 234.666666667 343.666666667 256 349 c 0
 271.333333333 353 289.666666667 357.333333333 311 362 c 1
EndSplineSet
Validated: 33
EndChar

StartChar: five
Encoding: 53 53 18
Width: 592
Flags: HW
LayerCount: 2
Back
Fore
SplineSet
129 480 m 1
 129.666666667 462.666666667 130.666666667 437 132 403 c 0
 133.333333333 373 138.333333333 349.666666667 147 333 c 1
 180.333333333 354.333333333 209.666666667 365 235 365 c 0
 245.666666667 365 256 363.333333333 266 360 c 1
 273.333333333 350.666666667 278 336.666666667 280 318 c 1
 264.666666667 302 244.666666667 294 220 294 c 0
 207.333333333 294 180 299 138 309 c 1
 141.333333333 301.666666667 143 292 143 280 c 0
 143 274 142.5 264.833333333 141.5 252.5 c 128
 140.5 240.166666667 140 231 140 225 c 0
 140 195 154 178 182 174 c 0
 192 172.666666667 203.333333333 172 216 172 c 0
 294.666666667 172 353 197 391 247 c 0
 411 273 421 304.666666667 421 342 c 0
 421 369.333333333 414.666666667 394 402 416 c 0
 374.666666667 464 338 485.666666667 292 481 c 0
 288 481.666666667 281.666666667 480.333333333 273 477 c 128
 264.333333333 473.666666667 258.333333333 472 255 472 c 0
 249 472 244.333333333 475 241 481 c 1
 248.333333333 489.666666667 272.666666667 499.333333333 314 510 c 0
 348.666666667 519.333333333 366 533.666666667 366 553 c 0
 366 561.666666667 363.333333333 572 358 584 c 1
 355.333333333 599.333333333 349.333333333 623.333333333 340 656 c 1
 312.666666667 649.333333333 277 637.333333333 233 620 c 2
 124 578 l 1
 121 622 l 1
 422 721 l 1
 448 647 463.333333333 564 468 472 c 0
 469.333333333 448 471.666666667 365 475 223 c 1
 300 163 l 2
 236 141.666666667 176.333333333 126 121 116 c 1
 118.333333333 167.333333333 117 216.333333333 117 263 c 0
 117 341.666666667 121 414 129 480 c 1
160 286 m 1
 182.666666667 279.333333333 202.333333333 276 219 276 c 0
 242.333333333 276 263.666666667 282.666666667 283 296 c 0
 292.333333333 302.666666667 297 311 297 321 c 0
 297 324.333333333 296 329.5 294 336.5 c 128
 292 343.5 291 348.666666667 291 352 c 0
 291 358 295.333333333 361.666666667 304 363 c 1
 308.666666667 361 315 363.5 323 370.5 c 128
 331 377.5 337 381.333333333 341 382 c 0
 357.666666667 384 367.333333333 387.666666667 370 393 c 1
 374.666666667 391 376.666666667 388.333333333 376 385 c 1
 384 388 l 1
 381 392 l 1
 387 387 l 1
 393 398 l 1
 401 382.666666667 405 365.666666667 405 347 c 0
 405 322.333333333 398 295 384 265 c 1
 367.333333333 240.333333333 343 221 311 207 c 0
 282.333333333 194.333333333 251.666666667 188 219 188 c 0
 203.666666667 188 189 189.666666667 175 193 c 1
 165.666666667 202.333333333 160.666666667 217 160 237 c 2
 160 237 160 237 160 286 c 1
290 362 m 1
 288 363 l 1
 287 361 l 1
 289 360 l 1
 290 362 l 1
151 422 m 1
 150 417 l 1
 147 418 l 1
 149 423 l 1
 151 422 l 1
326 374 m 1
 323 372 l 1
 322 375 l 1
 326 374 l 1
136 566 m 1
 144.666666667 566.666666667 156.666666667 570.833333333 172 578.5 c 128
 187.333333333 586.166666667 198.666666667 590.666666667 206 592 c 2
 323 636 l 1
 331.666666667 614.666666667 339.333333333 583.333333333 346 542 c 1
 340.666666667 538 314.666666667 528.666666667 268 514 c 0
 234 503.333333333 218.333333333 487.666666667 221 467 c 2
 222 463 l 1
 203 454 l 1
 217 449 l 1
 202.333333333 449.666666667 191 447.666666667 183 443 c 0
 181 442.333333333 180 441.333333333 180 440 c 256
 180 438.666666667 182 438 184 437 c 1
 180 438 175.333333333 438 168 436 c 128
 160.666666667 434 156 433 154 433 c 0
 146.666666667 433 143 439 143 451 c 0
 139.666666667 477 137.333333333 515.333333333 136 566 c 1
194 436 m 1
 192 431 l 1
 187 433 l 1
 189 438 l 1
 194 436 l 1
203 438 m 1
 201 434 l 1
 196 435 l 1
 198 440 l 1
 203 438 l 1
213 437 m 1
 212 435 l 1
 207 437 l 1
 208 439 l 1
 213 437 l 1
200 453 m 1
 193 455 l 1
 194 452 l 1
 200 453 l 1
EndSplineSet
Validated: 33
EndChar

StartChar: six
Encoding: 54 54 19
Width: 592
Flags: HW
LayerCount: 2
Back
Fore
SplineSet
459 130 m 0
 459 104 447 77.6666666667 423 51 c 0
 402.333333333 31.6666666667 381.333333333 12.3333333333 360 -7 c 1
 336.666666667 -20.3333333333 312.666666667 -27 288 -27 c 0
 259.333333333 -27 223.666666667 -16 181 6 c 1
 149 40.6666666667 132.666666667 87.3333333333 132 146 c 0
 132 171.333333333 135.666666667 195.666666667 143 219 c 0
 155.666666667 261 178.666666667 305.666666667 212 353 c 0
 218.666666667 362.333333333 250.666666667 403.666666667 308 477 c 1
 277 511 l 1
 296.333333333 523.666666667 319.333333333 530 346 530 c 0
 374 530 410.666666667 521.333333333 456 504 c 1
 402 496 353 474 309 438 c 0
 261.666666667 399.333333333 233.333333333 353.666666667 224 301 c 1
 308.666666667 307 370 286.333333333 408 239 c 0
 442 195.666666667 459 159.333333333 459 130 c 0
389 83 m 1
 323 47 l 1
 321.666666667 51 321 55.3333333333 321 60 c 0
 321 74 327.166666667 94.3333333333 339.5 121 c 128
 351.833333333 147.666666667 358 169.333333333 358 186 c 0
 358 194.666666667 356.666666667 203.333333333 354 212 c 0
 349.333333333 231.333333333 334 243.333333333 308 248 c 0
 268 255.333333333 247 259.666666667 245 261 c 0
 191.666666667 232.333333333 165.666666667 168 167 68 c 1
 178.333333333 42 199.333333333 26.6666666667 230 22 c 0
 271.333333333 16 297.333333333 9.33333333333 308 2 c 1
 366 15.3333333333 393 42.3333333333 389 83 c 1
EndSplineSet
Validated: 33
EndChar

StartChar: seven
Encoding: 55 55 20
Width: 592
Flags: HW
LayerCount: 2
Back
Fore
SplineSet
541 661 m 0
 536.333333333 646.333333333 510.333333333 584 463 474 c 1
 452.333333333 422.666666667 435.5 364 412.5 298 c 128
 389.5 232 372.666666667 173.333333333 362 122 c 1
 351.333333333 108 340.333333333 101 329 101 c 0
 325.666666667 101 317.5 102.833333333 304.5 106.5 c 128
 291.5 110.166666667 280 111.333333333 270 110 c 0
 242.666666667 104 225.333333333 101 218 101 c 0
 204 101 181 103 149 107 c 1
 140.333333333 111.666666667 132 116.666666667 124 122 c 0
 114 128 108 135.333333333 106 144 c 1
 111 163 l 1
 96.3333333333 296.333333333 77.3333333333 423 54 543 c 1
 54 573.666666667 52 607.666666667 48 645 c 128
 44 682.333333333 42 716.333333333 42 747 c 1
 103 800 l 1
 175.666666667 797.333333333 248.166666667 794.5 320.5 791.5 c 128
 392.833333333 788.5 462.333333333 783 529 775 c 1
 543.666666667 757 551 743.333333333 551 734 c 0
 551 730.666666667 549.166666667 723.666666667 545.5 713 c 128
 541.833333333 702.333333333 540 691 540 679 c 0
 540 673 540.333333333 667 541 661 c 0
435 662 m 1
 428 687 l 1
 383.333333333 682.333333333 325.333333333 680 254 680 c 0
 144 680.666666667 84.6666666667 680.666666667 76 680 c 1
 76 682.666666667 75.6666666667 673 75 651 c 0
 75 639 77 630 81 624 c 1
 347 631 l 1
 360 617 l 1
 338.666666667 565.666666667 307.333333333 494.333333333 266 403 c 0
 220.666666667 303.666666667 189 232.333333333 171 189 c 1
 246 189 l 1
 261.333333333 235.666666667 294 314 344 424 c 0
 388 522.666666667 418.333333333 602 435 662 c 1
EndSplineSet
Validated: 33
EndChar

StartChar: eight
Encoding: 56 56 21
Width: 592
Flags: HW
LayerCount: 2
Back
Fore
SplineSet
203 439 m 1
 186.333333333 463.666666667 178 490.666666667 178 520 c 0
 178 532 179.666666667 544 183 556 c 0
 191 588.666666667 208.333333333 615.333333333 235 636 c 128
 261.666666667 656.666666667 291.666666667 667 325 667 c 0
 337 667 348.666666667 665.666666667 360 663 c 0
 393.333333333 654.333333333 420.333333333 636.833333333 441 610.5 c 128
 461.666666667 584.166666667 472 554.333333333 472 521 c 0
 472 510.333333333 470.666666667 499.666666667 468 489 c 1
 378 512 l 1
 383 534 l 1
 415 526 l 1
 413.666666667 550 404.333333333 570.166666667 387 586.5 c 128
 369.666666667 602.833333333 349 611 325 611 c 0
 299.666666667 611 278.166666667 602 260.5 584 c 128
 242.833333333 566 234 544.666666667 234 520 c 0
 234 493.333333333 244 471 264 453 c 1
 293.333333333 453.666666667 320 446.666666667 344 432 c 1
 378 439.333333333 400.333333333 459.333333333 411 492 c 1
 466 478 l 1
 453.333333333 436.666666667 427.666666667 406.666666667 389 388 c 1
 405.666666667 363.333333333 414 336.333333333 414 307 c 0
 414 295 412.333333333 283 409 271 c 0
 401 238.333333333 383.666666667 211.666666667 357 191 c 128
 330.333333333 170.333333333 300.333333333 160 267 160 c 0
 255 160 243 161.333333333 231 164 c 0
 196.333333333 172.666666667 168.666666667 191.333333333 148 220 c 128
 127.333333333 248.666666667 118 280.333333333 120 315 c 1
 174 302 l 1
 175.333333333 277.333333333 184.833333333 257 202.5 241 c 128
 220.166666667 225 241 217 265 217 c 0
 290.333333333 217 312 225.5 330 242.5 c 128
 348 259.5 357 280.333333333 357 305 c 0
 357 330.333333333 347.833333333 352.166666667 329.5 370.5 c 128
 311.166666667 388.833333333 289.333333333 398 264 398 c 0
 244.666666667 398 226.833333333 392 210.5 380 c 128
 194.166666667 368 183.333333333 352.333333333 178 333 c 1
 126 346 l 1
 137.333333333 388.666666667 163 419.666666667 203 439 c 1
EndSplineSet
Validated: 33
EndChar

StartChar: nine
Encoding: 57 57 22
Width: 592
Flags: HW
LayerCount: 2
Back
Fore
SplineSet
289 557 m 1
 285.666666667 553 280.666666667 551.333333333 274 552 c 0
 258 552 258 552 256 552 c 2
 249 559 l 1
 268.333333333 563 281.666666667 562.333333333 289 557 c 1
317 519 m 1
 311 514.333333333 301 513.666666667 287 517 c 1
 282 522 l 1
 285.333333333 525.333333333 288.333333333 527 291 527 c 0
 292.333333333 527 294.666666667 526.333333333 298 525 c 128
 301.333333333 523.666666667 304 523 306 523 c 256
 308 523 310 523.333333333 312 524 c 2
 317 519 l 1
433 519 m 1
 429.666666667 517.666666667 428.166666667 513.833333333 428.5 507.5 c 128
 428.833333333 501.166666667 427.333333333 497.333333333 424 496 c 1
 425.333333333 484 421.333333333 470.333333333 412 455 c 0
 402 437.666666667 396.666666667 425 396 417 c 1
 377.333333333 389.666666667 357.666666667 367.333333333 337 350 c 0
 301 318.666666667 280.333333333 300.666666667 275 296 c 0
 247 282.666666667 211.333333333 267 168 249 c 1
 166.666666667 253 166 256.333333333 166 259 c 0
 166 261 166.666666667 264 168 268 c 1
 194 270.666666667 225.666666667 289.333333333 263 324 c 0
 293.666666667 353.333333333 317.666666667 382 335 410 c 1
 335 418 339.166666667 428.333333333 347.5 441 c 128
 355.833333333 453.666666667 360 464.333333333 360 473 c 0
 360 475.666666667 359.666666667 478.666666667 359 482 c 0
 359 484 360.333333333 487 363 491 c 128
 365.666666667 495 367 497.666666667 367 499 c 0
 367 501.666666667 364.333333333 503.666666667 359 505 c 0
 357 504.333333333 353.666666667 506 349 510 c 1
 350.333333333 512.666666667 353 514.333333333 357 515 c 0
 361 515 361 515 366 515 c 1
 368.666666667 522.333333333 370 540 370 568 c 0
 373.333333333 606.666666667 358.666666667 640 326 668 c 1
 312.666666667 674.666666667 298.666666667 678 284 678 c 0
 258 678 239.666666667 667 229 645 c 1
 213.666666667 627.666666667 206 611 206 595 c 0
 206 581 210.333333333 562.666666667 219 540 c 1
 240 536 l 1
 238.666666667 532 235.333333333 529.333333333 230 528 c 128
 224.666666667 526.666666667 222 524.333333333 222 521 c 0
 222 519.666666667 222.666666667 517.666666667 224 515 c 0
 227.333333333 509 234.666666667 505.333333333 246 504 c 128
 257.333333333 502.666666667 264.666666667 499.333333333 268 494 c 1
 264.666666667 493.333333333 260.666666667 491 256 487 c 1
 270 475 288.666666667 470.333333333 312 473 c 1
 313.333333333 476.333333333 316 478 320 478 c 0
 326.666666667 477.333333333 330.333333333 477.333333333 331 478 c 2
 335 473 l 2
 333.666666667 471.666666667 330.333333333 467.833333333 325 461.5 c 128
 319.666666667 455.166666667 314.666666667 452 310 452 c 0
 308 452 305.666666667 452.666666667 303 454 c 1
 301.666666667 450.666666667 298.5 449.166666667 293.5 449.5 c 128
 288.5 449.833333333 285.333333333 448.333333333 284 445 c 0
 281.333333333 444.333333333 278.333333333 444 275 444 c 0
 270.333333333 444 263.666666667 445.833333333 255 449.5 c 128
 246.333333333 453.166666667 239 454.666666667 233 454 c 1
 233 454 233 454 222 461 c 0
 218 464.333333333 214 465.333333333 210 464 c 1
 202.666666667 469.333333333 193.833333333 478.833333333 183.5 492.5 c 128
 173.166666667 506.166666667 165 515 159 519 c 1
 157.666666667 516.333333333 153 515 145 515 c 0
 141.666666667 516.333333333 140 520.166666667 140 526.5 c 128
 140 532.833333333 138.666666667 536.666666667 136 538 c 1
 139.333333333 542.666666667 140.833333333 551.166666667 140.5 563.5 c 128
 140.166666667 575.833333333 141.666666667 584.333333333 145 589 c 1
 148.333333333 581.666666667 150 573.333333333 150 564 c 0
 150 554 148.333333333 545.333333333 145 538 c 0
 145 533 145 533 145 528 c 0
 145.666666667 524.666666667 148 523.333333333 152 524 c 0
 154.666666667 523.333333333 158.333333333 524 163 526 c 1
 160.333333333 528 159 531.666666667 159 537 c 128
 159 542.333333333 157.333333333 545.666666667 154 547 c 1
 154 547 154 547 155 577 c 0
 155 589 151.666666667 597.666666667 145 603 c 1
 145 687 l 1
 147.666666667 688.333333333 149 693 149 701 c 1
 145 705 l 1
 152 713 l 1
 154.666666667 709.666666667 157.666666667 706.333333333 161 703 c 128
 164.333333333 699.666666667 167.666666667 698.333333333 171 699 c 0
 173 699 176 699.666666667 180 701 c 1
 180 701 180 701 184 694 c 1
 180 693 180 693 172 691 c 1
 170 695 166.333333333 696.666666667 161 696 c 1
 159 682 158 667.333333333 158 652 c 256
 158 636.666666667 159 622 161 608 c 1
 163.666666667 619.333333333 170.333333333 632.333333333 181 647 c 0
 191 658.333333333 200.666666667 670 210 682 c 0
 211.333333333 685.333333333 223.666666667 691 247 699 c 0
 259 703.666666667 271 708 283 712 c 0
 301 714 317.333333333 711.666666667 332 705 c 0
 344.666666667 697 357.333333333 689.333333333 370 682 c 0
 371.333333333 681.333333333 381 672.666666667 399 656 c 0
 407.666666667 648 414.333333333 638 419 626 c 0
 422.333333333 622.666666667 423.833333333 616.5 423.5 607.5 c 128
 423.166666667 598.5 424.666666667 592.333333333 428 589 c 0
 427.333333333 586.333333333 427 583.666666667 427 581 c 0
 427 577.666666667 428 573 430 567 c 128
 432 561 433 556.666666667 433 554 c 0
 433 550 431.333333333 546 428 542 c 1
 432 532 433.666666667 524.333333333 433 519 c 1
515 625 m 2
 500 594 l 1
 496.666666667 576 493.333333333 560 490 546 c 0
 481.333333333 512.666666667 472 492 462 484 c 1
 458 456 449.333333333 418.333333333 436 371 c 0
 420.666666667 315 407.333333333 278.666666667 396 262 c 1
 396.666666667 257.333333333 391.833333333 239.666666667 381.5 209 c 128
 371.166666667 178.333333333 364 161.333333333 360 158 c 1
 360.666666667 150.666666667 356.833333333 139.333333333 348.5 124 c 128
 340.166666667 108.666666667 331.666666667 93.6666666667 323 79 c 0
 318.333333333 75.6666666667 296 85.3333333333 256 108 c 0
 219 130 219 130 182 152 c 0
 177.333333333 152.666666667 164 159.333333333 142 172 c 128
 120 184.666666667 108.666666667 192.666666667 108 196 c 0
 99.3333333333 200.666666667 86.6666666667 207.666666667 70 217 c 1
 71.3333333333 219.666666667 74.6666666667 220.666666667 80 220 c 0
 85.3333333333 218.666666667 89 216.666666667 91 214 c 1
 93 216 98.3333333333 214.666666667 107 210 c 128
 115.666666667 205.333333333 121.333333333 201.333333333 124 198 c 1
 124.666666667 199.333333333 135.5 194 156.5 182 c 128
 177.5 170 189.666666667 162.333333333 193 159 c 1
 203.666666667 163.666666667 210 165.333333333 212 164 c 0
 217.333333333 164 225 164.666666667 235 166 c 0
 237 164.666666667 265 158.333333333 319 147 c 1
 318.333333333 143 319.833333333 140.833333333 323.5 140.5 c 128
 327.166666667 140.166666667 329 139.666666667 329 139 c 0
 329 137 326.666666667 133.666666667 322 129 c 1
 318 131.666666667 310 133 298 133 c 128
 286 133 278.333333333 136.333333333 275 143 c 1
 271.666666667 143 265.666666667 144.5 257 147.5 c 128
 248.333333333 150.5 241.333333333 152 236 152 c 0
 232 152 228 151.333333333 224 150 c 1
 227.333333333 138.666666667 238 130 256 124 c 1
 292 105 l 1
 297.333333333 95 304.333333333 90 313 90 c 0
 315.666666667 90 318.666666667 90.3333333333 322 91 c 0
 330 105.666666667 337.666666667 124 345 146 c 0
 353 172 356 191 354 203 c 1
 352 205 l 1
 356.666666667 207.666666667 359.666666667 213.333333333 361 222 c 0
 362.333333333 222 364 221 366 219 c 1
 372 229.666666667 378 247 384 271 c 1
 388 273 389.666666667 276.666666667 389 282 c 1
 387 284 l 1
 391 284.666666667 393.666666667 287.833333333 395 293.5 c 128
 396.333333333 299.166666667 399 302.333333333 403 303 c 1
 401.666666667 309 401 318.333333333 401 331 c 1
 405.666666667 331.666666667 408 334.666666667 408 340 c 0
 407.333333333 349.333333333 406.833333333 354.166666667 406.5 354.5 c 128
 406.166666667 354.833333333 397.333333333 355.333333333 380 356 c 0
 380 358.666666667 378.5 360.333333333 375.5 361 c 128
 372.5 361.666666667 370.666666667 362.666666667 370 364 c 1
 378.666666667 364 390.666666667 364.666666667 406 366 c 0
 412 367.333333333 416.333333333 370.333333333 419 375 c 1
 418.333333333 387.666666667 426 415.666666667 442 459 c 1
 440 465 439 471.333333333 439 478 c 0
 439 501.333333333 452.666666667 530.666666667 480 566 c 1
 480 576 484.333333333 591 493 611 c 0
 501 629 504.333333333 642.666666667 503 652 c 1
 506.333333333 653.333333333 509.5 657.333333333 512.5 664 c 128
 515.5 670.666666667 518.333333333 675.333333333 521 678 c 1
 529.666666667 674 527.666666667 656.333333333 515 625 c 2
259 377 m 257
 259 377 259 377 249 375 c 1
 249.666666667 375.666666667 248.333333333 378 245 382 c 1
 243.666666667 380.666666667 242.333333333 380 241 380 c 0
 240.333333333 380 239 381.166666667 237 383.5 c 128
 235 385.833333333 233 387 231 387 c 1
 232.333333333 391 239.333333333 393.333333333 252 394 c 1
 252 394 252 394 267 387 c 0
 273 383.666666667 278.666666667 383 284 385 c 1
 277 371 l 2
 277 372.333333333 274 373.666666667 268 375 c 128
 259 377 259 377 259 377 c 257
136 468 m 1
 133 466 l 1
 131.666666667 468.666666667 131 471.666666667 131 475 c 0
 131 479 131.666666667 482 133 484 c 1
 133.666666667 480.666666667 134.666666667 475.333333333 136 468 c 1
184 401 m 1
 182.666666667 397 176.666666667 394.666666667 166 394 c 0
 166 393.333333333 163.666666667 396.333333333 159 403 c 1
 153.666666667 401.666666667 147.333333333 403.333333333 140 408 c 1
 144 411.333333333 147 412.666666667 149 412 c 0
 151.666666667 406 156.666666667 403 164 403 c 0
 173 403 173 403 182 403 c 1
 184 401 l 1
126 431 m 1
 124 429 l 2
 122 429.666666667 121 431 121 433 c 0
 121 435.666666667 122 437.333333333 124 438 c 0
 125.333333333 437.333333333 126 435 126 431 c 1
126 410 m 1
 124 408 l 1
 122 410 l 1
 124 412 l 1
 126 410 l 1
298 208 m 1
 294 204 291 202.333333333 289 203 c 2
 287 205 l 1
 294 213 l 1
 298 208 l 1
EndSplineSet
Validated: 33
EndChar

StartChar: colon
Encoding: 58 58 23
Width: 349
Flags: HW
LayerCount: 2
Back
Fore
SplineSet
282 20 m 1
 231.333333333 32.6666666667 189.333333333 39 156 39 c 0
 133.333333333 39 108 36.6666666667 80 32 c 1
 59.3333333333 134 51 294 55 512 c 1
 253 471 l 1
 251.666666667 444.333333333 251 416.666666667 251 388 c 0
 251 326.666666667 255.333333333 256.333333333 264 177 c 0
 270 124.333333333 276 72 282 20 c 1
207 413 m 1
 199.666666667 423.666666667 187.333333333 433.833333333 170 443.5 c 128
 152.666666667 453.166666667 137.333333333 458 124 458 c 0
 118 458 113 457 109 455 c 0
 109 453.666666667 112.333333333 449.666666667 119 443 c 128
 125.666666667 436.333333333 129 431 129 427 c 256
 129 423 125.666666667 419.333333333 119 416 c 1
 103.666666667 389.333333333 96 367.666666667 96 351 c 0
 96 335 102.666666667 324.666666667 116 320 c 1
 126 306 138.666666667 299 154 299 c 0
 170.666666667 299 186.5 307.166666667 201.5 323.5 c 128
 216.5 339.833333333 224 357 224 375 c 0
 224 390.333333333 218.333333333 403 207 413 c 1
234 112 m 0
 238.666666667 136 241 153.333333333 241 164 c 0
 241 192 222.333333333 212.666666667 185 226 c 0
 177.666666667 228.666666667 166.666666667 229 152 227 c 0
 136 224.333333333 122.666666667 220 112 214 c 1
 127.333333333 202.666666667 135 193.666666667 135 187 c 0
 135 183 128.666666667 177.166666667 116 169.5 c 128
 103.333333333 161.833333333 96.6666666667 153.666666667 96 145 c 0
 97.3333333333 119 98.3333333333 105 99 103 c 0
 100.333333333 97 107 89.6666666667 119 81 c 1
 173 78 l 2
 187.666666667 77.3333333333 201.666666667 81 215 89 c 0
 226.333333333 96.3333333333 232.666666667 104 234 112 c 0
EndSplineSet
Validated: 33
EndChar

StartChar: question
Encoding: 63 63 24
Width: 798
Flags: HW
LayerCount: 2
Back
Fore
SplineSet
807 636 m 1
 785 568.666666667 739 518 669 484 c 0
 638.333333333 469.333333333 562.666666667 444 442 408 c 0
 339.333333333 377.333333333 266.333333333 345.666666667 223 313 c 0
 159.666666667 265 131 201 137 121 c 0
 139 118.333333333 140 115.666666667 140 113 c 0
 140 107.666666667 136.666666667 101 130 93 c 0
 122.666666667 83 118.333333333 76.6666666667 117 74 c 128
 115.666666667 71.3333333333 107.666666667 70 93 70 c 1
 67 109.333333333 54 148 54 186 c 0
 54 218 63.3333333333 247 82 273 c 0
 123.333333333 330.333333333 185.666666667 378 269 416 c 0
 305.666666667 432.666666667 383.666666667 460 503 498 c 0
 604.333333333 530 680.333333333 562.666666667 731 596 c 1
 731 602.666666667 732.166666667 612.833333333 734.5 626.5 c 128
 736.833333333 640.166666667 738 650.333333333 738 657 c 0
 738 681.666666667 728.666666667 700 710 712 c 1
 619.333333333 714 516 688 400 634 c 0
 353.333333333 612 259.333333333 559.333333333 118 476 c 1
 119.333333333 468.666666667 116.333333333 462.5 109 457.5 c 128
 101.666666667 452.5 94.3333333333 448 87 444 c 1
 67 454 57 466 57 480 c 1
 87 536.666666667 140.666666667 588.666666667 218 636 c 0
 274 670.666666667 342 703 422 733 c 0
 540 777.666666667 624.333333333 800 675 800 c 0
 718.333333333 800 755.333333333 787.666666667 786 763 c 0
 786.666666667 761.666666667 794 747.333333333 808 720 c 0
 817.333333333 702 822 686.333333333 822 673 c 256
 822 659.666666667 817 647.333333333 807 636 c 1
122 -84 m 0
 122 -88.6666666667 117.666666667 -97.5 109 -110.5 c 128
 100.333333333 -123.5 96 -133.333333333 96 -140 c 0
 96 -143.333333333 96.3333333333 -146.333333333 97 -149 c 0
 91 -157 80.6666666667 -166 66 -176 c 128
 51.3333333333 -186 41.3333333333 -194 36 -200 c 1
 26.6666666667 -198 14.6666666667 -191 0 -179 c 1
 -0.666666666667 -168.333333333 -1 -158.333333333 -1 -149 c 0
 -1 -125 1.33333333333 -106 6 -92 c 1
 30 -68.6666666667 53 -57 75 -57 c 0
 83.6666666667 -57 93.6666666667 -59.6666666667 105 -65 c 128
 116.333333333 -70.3333333333 122 -76.6666666667 122 -84 c 0
EndSplineSet
Validated: 33
EndChar

StartChar: at
Encoding: 64 64 25
Width: 648
Flags: HW
LayerCount: 2
Back
Fore
SplineSet
595 401 m 1
 599.666666667 381.666666667 602 363.333333333 602 346 c 0
 602 280.666666667 574.333333333 242.666666667 519 232 c 1
 504.333333333 238 489.333333333 241 474 241 c 0
 452.666666667 241 421.5 232.166666667 380.5 214.5 c 128
 339.5 196.833333333 310 188 292 188 c 0
 264.666666667 188 239 200 215 224 c 1
 201.666666667 242 195 261.666666667 195 283 c 0
 195 305.666666667 206.333333333 342 229 392 c 1
 245.666666667 407.333333333 266.666666667 415 292 415 c 0
 300 415 312.166666667 414 328.5 412 c 128
 344.833333333 410 357 409 365 409 c 0
 392.333333333 409 413 420.333333333 427 443 c 1
 439 429 445 409.666666667 445 385 c 0
 445 379.666666667 444.666666667 371.5 444 360.5 c 128
 443.333333333 349.5 443 341.333333333 443 336 c 0
 443 299.333333333 460 274 494 260 c 1
 516.666666667 259.333333333 535.333333333 265 550 277 c 128
 564.666666667 289 572 306 572 328 c 0
 572 340 569.333333333 350.666666667 564 360 c 0
 547.333333333 405.333333333 516 441.333333333 470 468 c 0
 427.333333333 492 380.333333333 503.666666667 329 503 c 0
 300.333333333 503 268.333333333 495.5 233 480.5 c 128
 197.666666667 465.5 168.666666667 447.666666667 146 427 c 1
 114.666666667 410.333333333 99 386.666666667 99 356 c 0
 99 347.333333333 100.5 334.166666667 103.5 316.5 c 128
 106.5 298.833333333 108 285.666666667 108 277 c 0
 108 269.666666667 107.333333333 263 106 257 c 1
 125.333333333 215 157 182.333333333 201 159 c 0
 241 137.666666667 285.333333333 127 334 127 c 1
 521 181 l 1
 524.333333333 175 526 169.333333333 526 164 c 0
 526 142 507.333333333 129.333333333 470 126 c 1
 420.666666667 108 370 99 318 99 c 0
 244 99 178 116.666666667 120 152 c 1
 76.6666666667 198.666666667 55 250.333333333 55 307 c 0
 55 367.666666667 79.6666666667 423 129 473 c 1
 178.333333333 495.666666667 212.666666667 510.666666667 232 518 c 0
 273.333333333 533.333333333 309.666666667 541 341 541 c 0
 355 541 369 539.666666667 383 537 c 0
 467 511.666666667 537.666666667 466.333333333 595 401 c 1
391 281 m 0
 394.333333333 287.666666667 395.666666667 293.666666667 395 299 c 0
 395 315.666666667 382.333333333 333 357 351 c 2
 303 389 l 1
 256 313 l 2
 252.666666667 305.666666667 251 298.666666667 251 292 c 0
 251 264.666666667 271.333333333 249 312 245 c 1
 335.333333333 250.333333333 349.666666667 254 355 256 c 0
 369.666666667 262 381.666666667 270.333333333 391 281 c 0
EndSplineSet
Validated: 33
EndChar

StartChar: A
Encoding: 65 65 26
Width: 923
Flags: HW
LayerCount: 2
Back
Fore
SplineSet
762 594 m 0
 756 594 753 595 753 598 c 2
 753 605 l 1
 761 604 765 601 765 598 c 0
 764 597 763 595 762 594 c 0
729 549 m 1
 724 546 722 545 722 544 c 1
 720 545 719 547 719 551 c 1
 729 549 l 1
812 639 m 1
 782 632 738 623 679 612 c 1
 686 597 690 570 691 534 c 128
 692 498 698 472 708 455 c 1
 709 442 713 425 721 404 c 0
 729 381 734 364 735 353 c 1
 728 358 723 370 719 390 c 0
 716 407 709 415 700 415 c 0
 696 415 691 414 685 411 c 2
 655 405 l 1
 653 418 646 442 633 477 c 0
 622 508 617 532 617 549 c 0
 617 569 623 587 634 603 c 1
 686 630 732 644 773 644 c 0
 786 644 799 642 812 639 c 1
756 353 m 2
 756 365 l 2
 757 364 758 362 758 359 c 256
 758 356 757 354 756 353 c 2
986 752 m 0
 988 751 989 750 989 749 c 256
 989 748 983 741 972 730 c 128
 963 721 959 715 959 711 c 0
 959 710 959 709 959 709 c 1
 954 708 951 705 949 700 c 128
 947 695 945 693 943 693 c 256
 941 693 937 694 931 697 c 0
 928 697 925 698 922 698 c 0
 905 698 890 690 876 676 c 128
 860 659 848 650 840 650 c 0
 834 650 827 651 820 654 c 0
 799 657 778 659 759 659 c 0
 689 659 636 636 600 591 c 1
 597 536 612 467 647 382 c 1
 659 384 676 390 697 400 c 1
 722 352 734 314 733 286 c 1
 718 283 698 276 672 265 c 1
 673 264 677 249 685 220 c 0
 690 201 696 189 703 182 c 1
 706 183 709 191 711 205 c 1
 706 210 703 218 702 232 c 128
 701 246 700 255 697 259 c 1
 702 259 708 261 716 265 c 2
 729 272 l 1
 730 269 730 265 730 260 c 0
 730 251 728 238 724 220 c 128
 720 202 718 190 718 181 c 0
 718 168 722 158 729 151 c 1
 724 150 720 152 718 158 c 128
 716 164 714 166 712 166 c 256
 710 166 708 165 706 164 c 0
 705 156 708 145 712 131 c 128
 716 117 718 107 718 100 c 0
 718 93 716 86 713 79 c 1
 713 84 709 89 702 96 c 128
 695 103 691 108 690 111 c 1
 681 111 l 2
 681 112 680 113 679 115 c 0
 675 114 670 109 664 100 c 128
 658 91 654 86 650 86 c 0
 647 86 644 87 641 90 c 1
 642 95 640 97 635 97 c 2
 623 97 l 1
 621 95 l 1
 625 90 l 1
 624 87 621 85 617 85 c 0
 615 85 612 85 608 86 c 128
 604 87 602 88 600 88 c 0
 594 88 590 85 587 79 c 1
 586 80 586 82 586 83 c 256
 586 84 587 87 588 90 c 128
 589 93 589 95 589 96 c 0
 589 100 586 102 580 102 c 1
 579 96 573 89 564 82 c 128
 555 75 549 70 546 66 c 1
 557 61 570 58 585 58 c 0
 597 58 615 60 638 64 c 128
 661 68 678 71 690 71 c 0
 697 71 704 71 711 70 c 1
 713 72 l 1
 716 58 l 2
 718 53 717 48 713 45 c 1
 698 48 683 50 666 50 c 0
 637 50 597 44 546 32 c 1
 542 40 538 46 535 49 c 0
 530 56 525 60 520 61 c 0
 513 60 511 56 512 47 c 0
 515 42 525 31 544 12 c 1
 633 27 689 33 714 32 c 1
 716 29 717 25 717 20 c 0
 717 16 716 10 714 2 c 128
 712 -6 711 -12 711 -16 c 0
 711 -19 712 -22 713 -24 c 1
 698 -21 683 -19 668 -19 c 0
 635 -19 601 -28 564 -46 c 0
 555 -51 524 -69 472 -99 c 1
 469 -112 430 -130 355 -155 c 1
 310 -188 225 -203 101 -200 c 0
 98 -198 93 -197 86 -197 c 0
 84 -197 81 -197 77 -198 c 2
 68 -198 l 2
 54 -198 44 -184 37 -156 c 0
 33 -132 29 -108 25 -85 c 1
 26 -86 27 -86 28 -86 c 0
 31 -86 34 -84 38 -80 c 0
 47 -59 51 -49 52 -48 c 0
 59 -36 68 -29 79 -27 c 1
 86 -22 93 -20 102 -20 c 0
 107 -20 117 -23 133 -28 c 0
 142 -31 150 -32 155 -32 c 0
 158 -32 160 -32 162 -31 c 1
 143 -16 121 -8 96 -8 c 0
 70 -8 52 -17 41 -34 c 128
 30 -51 24 -60 21 -62 c 1
 20 -55 16 -37 9 -10 c 0
 3 12 0 30 0 43 c 1
 3 46 6 47 10 47 c 0
 13 47 18 46 25 43 c 128
 32 40 37 39 40 39 c 0
 43 39 45 40 48 41 c 1
 53 35 64 30 81 25 c 0
 102 20 114 16 119 14 c 128
 124 12 134 3 150 -10 c 0
 163 -21 174 -27 183 -29 c 1
 186 -24 l 1
 184 -22 l 1
 185 -21 187 -20 188 -20 c 0
 189 -20 l 0
 190 -22 190 -25 190 -28 c 0
 190 -32 189 -38 189 -41 c 0
 189 -47 192 -51 198 -51 c 0
 199 -51 199 -51 200 -51 c 1
 200 -52 202 -55 205 -58 c 1
 210 -57 213 -52 216 -45 c 0
 221 -24 238 18 268 81 c 0
 293 134 306 176 306 209 c 1
 311 242 318 291 327 357 c 0
 334 407 337 454 337 498 c 0
 337 544 333 587 324 628 c 0
 325 630 329 632 336 634 c 128
 342 636 345 639 345 643 c 0
 345 644 344 645 344 646 c 1
 340 646 l 2
 341 648 342 654 342 665 c 1
 396 690 481 720 596 755 c 0
 597 756 598 757 598 758 c 256
 598 761 596 764 594 766 c 1
 602 776 l 1
 605 760 l 1
 705 787 800 800 891 800 c 0
 911 800 931 799 950 798 c 1
 955 793 964 789 977 785 c 0
 984 783 988 778 988 769 c 0
 988 764 987 759 986 752 c 0
691 96 m 1
 688 96 l 1
 688 100 l 1
 691 100 l 1
 691 96 l 1
691 85 m 1
 688 85 l 1
 688 88 l 1
 691 88 l 1
 691 85 l 1
265 103 m 2
 265 102 l 0
 265 102 263 100 262 100 c 0
 261 100 260 101 258 102 c 2
 265 103 l 2
913 744 m 1
 891 751 868 754 845 754 c 0
 787 754 709 726 611 670 c 0
 609 670 604 665 604 661 c 0
 604 659 606 659 608 659 c 0
 617 659 628 664 641 672 c 0
 658 683 669 690 674 691 c 0
 721 719 778 736 843 742 c 1
 843 740 l 1
 848 738 856 739 865 744 c 1
 879 731 l 1
 841 692 l 1
 833 692 821 693 805 694 c 128
 789 695 777 695 769 695 c 0
 735 695 708 685 688 665 c 1
 716 674 742 679 767 679 c 0
 778 679 788 678 798 676 c 1
 808 670 818 667 827 667 c 0
 842 667 857 677 873 698 c 0
 894 725 908 741 913 744 c 1
978 766 m 1
 941 781 902 789 862 789 c 0
 799 789 728 770 651 732 c 0
 608 709 542 675 454 630 c 1
 491 635 555 663 646 713 c 0
 729 758 797 781 850 781 c 0
 883 781 916 774 949 760 c 1
 949 760 959 758 965 758 c 0
 968 758 975 761 978 766 c 1
670 657 m 1
 670 659 l 1
 663 659 l 1
 663 657 l 1
 670 657 l 1
681 599 m 1
 681 602 l 1
 677 602 l 1
 677 599 l 1
 681 599 l 1
669 595 m 1
 669 598 l 1
 666 598 l 1
 666 595 l 1
 669 595 l 1
610 647 m 1
 605 646 l 1
 607 646 l 1
 610 647 l 1
656 601 m 2
 647 601 l 1
 647 598 l 1
 653 599 656 600 656 601 c 2
438 598 m 1
 436 599 434 603 434 612 c 1
 429 619 419 621 406 621 c 0
 392 621 383 614 380 601 c 1
 391 580 l 1
 403 577 415 575 428 575 c 0
 454 575 484 584 517 602 c 0
 544 617 544 617 598 647 c 1
 594 650 590 651 586 651 c 0
 580 651 569 646 554 635 c 128
 540 625 528 620 519 620 c 0
 518 620 518 620 517 620 c 1
 512 613 500 606 482 600 c 128
 464 594 453 588 448 583 c 1
 444 585 443 587 443 589 c 0
 443 590 443 590 443 591 c 1
 442 590 440 590 438 590 c 0
 435 590 433 591 432 594 c 1
 434 596 437 597 438 598 c 1
511 550 m 1
 511 553 l 1
 508 553 l 1
 508 550 l 1
 511 550 l 1
627 317 m 1
 620 332 615 356 610 389 c 128
 605 422 600 446 594 461 c 1
 584 463 l 1
 589 472 l 2
 588 473 585 474 582 477 c 1
 589 484 l 1
 589 493 586 507 581 526 c 128
 576 545 573 559 573 569 c 0
 573 588 580 604 594 617 c 1
 579 612 569 601 565 584 c 0
 560 562 555 549 551 544 c 1
 552 529 557 522 565 522 c 0
 567 520 567 518 566 515 c 256
 565 512 563 510 562 508 c 0
 567 505 569 499 569 492 c 0
 569 478 569 474 568 472 c 1
 574 471 579 461 584 443 c 1
 584 452 l 1
 587 452 l 2
 591 450 592 446 591 441 c 0
 588 437 585 436 582 437 c 1
 582 433 584 427 587 418 c 1
 592 419 595 418 598 414 c 0
 599 413 597 410 594 405 c 1
 601 401 604 397 604 393 c 0
 604 390 602 386 598 382 c 1
 601 375 601 372 606 373 c 0
 609 372 610 370 609 368 c 0
 608 364 607 361 607 360 c 1
 611 360 613 359 614 358 c 2
 612 355 l 1
 612 345 617 339 620 336 c 1
 618 335 616 332 611 328 c 1
 619 325 622 322 621 317 c 1
 627 317 l 1
483 544 m 1
 483 546 l 1
 479 546 l 1
 479 544 l 1
 483 544 l 1
714 304 m 1
 714 311 711 320 706 330 c 128
 701 340 698 348 697 353 c 0
 695 362 691 366 685 366 c 0
 683 366 679 365 674 364 c 128
 669 363 666 362 663 362 c 0
 660 362 657 363 655 365 c 1
 654 362 653 358 653 354 c 0
 653 347 655 336 660 322 c 128
 665 308 667 298 668 291 c 1
 674 290 682 291 691 295 c 0
 703 300 711 303 714 304 c 1
504 493 m 2
 499 501 l 2
 498 502 497 501 494 500 c 1
 499 495 503 492 504 493 c 2
449 524 m 1
 448 527 447 528 448 529 c 0
 454 536 457 543 457 548 c 256
 457 553 454 559 448 564 c 1
 443 550 441 539 441 532 c 0
 441 528 442 525 443 522 c 1
 449 524 l 1
570 406 m 1
 570 410 l 1
 567 410 l 1
 567 406 l 1
 570 406 l 1
510 463 m 1
 504 461 l 1
 508 461 l 1
 510 463 l 1
445 501 m 1
 445 506 l 1
 434 506 l 1
 434 506 434 506 436 497 c 0
 437 494 435 491 432 490 c 1
 425 468 421 455 421 450 c 0
 421 443 423 437 427 434 c 1
 427 436 428 439 432 442 c 128
 436 445 438 448 438 449 c 0
 438 451 437 453 434 455 c 0
 435 456 435 461 434 470 c 0
 433 476 436 480 443 482 c 1
 442 483 441 486 441 489 c 1
 441 489 l 1
 441 493 440 496 438 497 c 2
 445 501 l 1
655 219 m 1
 657 224 658 229 658 234 c 0
 658 241 652 258 639 283 c 0
 640 285 641 287 641 289 c 256
 641 291 640 294 637 299 c 128
 634 304 633 307 634 310 c 1
 631 311 629 311 626 308 c 128
 623 305 622 304 621 304 c 2
 629 294 l 1
 625 291 l 1
 636 276 642 251 643 216 c 1
 647 216 651 217 655 219 c 1
497 376 m 1
 497 378 l 1
 493 376 l 1
 497 376 l 1
432 376 m 0
 429 376 427 378 424 382 c 128
 421 386 419 389 419 392 c 0
 419 397 422 400 427 403 c 0
 428 404 428 406 428 408 c 256
 428 410 426 414 424 418 c 128
 422 422 421 426 422 429 c 1
 421 428 420 427 419 427 c 0
 415 416 410 400 405 378 c 1
 407 370 416 366 431 366 c 0
 454 367 466 367 465 367 c 1
 470 392 482 425 499 468 c 1
 492 471 486 473 482 473 c 0
 477 473 474 470 474 463 c 0
 474 460 475 455 476 448 c 128
 477 441 477 436 477 433 c 0
 477 421 473 412 465 407 c 1
 465 403 463 399 460 396 c 128
 457 393 453 393 449 394 c 2
 456 387 l 1
 446 377 438 373 432 376 c 0
602 169 m 1
 593 181 585 201 579 228 c 0
 575 250 571 272 567 293 c 0
 565 294 563 297 560 304 c 0
 559 309 556 311 551 310 c 1
 555 315 l 1
 552 330 547 353 540 382 c 128
 533 411 522 436 508 455 c 1
 580 191 l 1
 580 171 583 157 589 148 c 1
 592 149 594 151 594 152 c 0
 594 153 593 155 591 159 c 0
 590 162 590 165 591 167 c 2
 602 169 l 1
666 203 m 0
 663 204 660 203 656 201 c 0
 655 200 654 198 654 195 c 0
 654 192 655 187 658 182 c 1
 666 183 670 187 670 194 c 0
 670 197 669 200 666 203 c 0
583 269 m 1
 583 272 l 1
 580 272 l 1
 580 269 l 1
 583 269 l 1
651 199 m 1
 651 203 l 1
 647 203 l 1
 647 199 l 1
 651 199 l 1
684 119 m 1
 685 128 681 149 670 180 c 1
 670 167 674 148 681 124 c 0
 679 122 678 120 679 119 c 2
 684 119 l 1
628 188 m 1
 628 191 l 1
 625 191 l 1
 625 188 l 1
 628 188 l 1
691 114 m 1
 691 117 l 1
 688 117 l 1
 688 114 l 1
 691 114 l 1
523 265 m 1
 524 268 525 271 525 274 c 0
 525 280 522 289 517 300 c 128
 512 311 509 319 509 324 c 0
 509 327 509 330 510 333 c 1
 494 334 480 335 467 335 c 256
 454 335 444 334 436 333 c 1
 429 337 417 338 400 336 c 0
 395 338 390 339 386 339 c 0
 377 339 372 330 369 313 c 0
 366 292 363 280 358 275 c 1
 410 266 448 261 472 261 c 0
 489 261 506 262 523 265 c 1
602 156 m 1
 598 156 l 1
 600 145 l 1
 584 142 l 1
 584 130 588 125 596 126 c 1
 602 135 604 145 602 156 c 1
587 119 m 0
 584 120 582 120 581 118 c 128
 580 116 579 114 580 111 c 1
 585 114 587 116 587 119 c 0
445 232 m 1
 440 231 431 233 419 236 c 128
 407 239 398 241 393 241 c 0
 386 241 379 239 374 236 c 1
 379 233 389 230 404 228 c 128
 419 226 429 224 434 220 c 1
 430 215 426 213 422 212 c 1
 423 211 425 207 430 201 c 1
 425 198 423 196 422 196 c 2
 422 190 l 1
 432 189 437 194 437 205 c 0
 438 220 440 229 445 232 c 1
432 169 m 0
 433 171 434 173 434 176 c 0
 434 178 433 180 431 180 c 0
 427 180 425 172 425 172 c 0
 425 170 428 169 432 169 c 0
449 634 m 1
 450 635 450 636 451 637 c 0
 451 641 446 646 436 652 c 0
 421 657 407 660 396 660 c 0
 374 660 358 653 350 638 c 0
 345 629 342 617 342 602 c 0
 342 593 343 584 346 575 c 0
 357 554 372 544 391 544 c 1
 393 539 394 533 394 526 c 0
 394 519 393 508 390 494 c 128
 387 480 385 468 385 461 c 0
 383 450 379 435 374 414 c 0
 369 396 361 385 348 381 c 1
 344 358 334 319 317 264 c 1
 317 247 l 2
 318 242 322 240 331 241 c 1
 322 126 288 32 231 -43 c 1
 228 -53 218 -60 200 -64 c 128
 182 -68 171 -74 167 -80 c 1
 176 -86 182 -89 186 -88 c 0
 241 -60 282 -10 309 61 c 0
 325 104 339 167 351 252 c 1
 339 252 l 2
 334 252 331 254 329 257 c 1
 334 266 338 282 343 304 c 128
 348 326 353 341 358 351 c 0
 356 352 355 354 355 355 c 0
 359 365 363 370 367 370 c 0
 368 370 370 370 371 369 c 0
 383 386 391 411 396 444 c 0
 403 489 408 516 411 527 c 0
 414 532 415 536 415 539 c 0
 415 544 410 548 401 551 c 128
 392 554 386 557 385 558 c 0
 373 564 363 578 355 601 c 1
 356 608 363 622 377 641 c 1
 396 644 409 646 416 646 c 0
 430 646 441 642 449 634 c 1
428 133 m 1
 434 135 434 140 434 147 c 2
 434 162 l 1
 428 156 427 140 427 124 c 0
 427 114 426 107 425 103 c 1
 427 103 l 2
 434 104 436 107 436 113 c 0
 436 121 436 126 428 133 c 1
382 176 m 1
 379 180 377 188 378 200 c 128
 379 212 379 219 377 223 c 1
 367 206 363 183 364 156 c 1
 367 156 371 159 374 165 c 128
 377 171 380 175 382 176 c 1
555 111 m 1
 558 120 560 129 560 138 c 0
 560 150 558 165 553 183 c 0
 546 207 543 222 542 227 c 0
 539 240 530 245 516 243 c 0
 497 240 484 240 479 243 c 1
 472 238 467 227 465 210 c 128
 463 193 461 180 459 169 c 1
 463 114 l 2
 466 93 476 79 493 72 c 0
 494 70 494 68 494 66 c 0
 494 63 490 58 483 54 c 128
 476 50 471 46 470 43 c 1
 445 42 425 31 408 8 c 0
 399 -4 387 -28 371 -65 c 0
 357 -98 344 -120 332 -133 c 1
 337 -134 341 -131 345 -124 c 128
 349 -117 353 -114 358 -114 c 1
 369 -101 382 -79 397 -49 c 0
 420 -1 433 24 434 25 c 0
 440 24 446 23 452 23 c 0
 473 23 492 34 509 57 c 0
 533 88 548 106 555 111 c 1
459 66 m 1
 454 73 447 84 438 100 c 1
 436 95 432 92 425 90 c 0
 416 87 410 85 409 84 c 2
 416 79 l 1
 407 74 l 1
 398 60 392 46 389 32 c 1
 398 32 l 1
 404 35 408 44 409 57 c 0
 410 68 412 74 416 74 c 0
 420 74 441 61 446 61 c 0
 451 61 455 63 459 66 c 1
366 117 m 1
 363 120 361 123 361 126 c 0
 361 128 363 131 366 134 c 128
 369 137 371 140 371 142 c 256
 371 144 369 146 364 148 c 1
 359 145 356 138 355 129 c 0
 354 118 353 111 351 108 c 1
 352 107 353 107 354 107 c 0
 355 108 359 111 366 117 c 1
497 -56 m 1
 497 -54 l 1
 488 -56 l 1
 497 -56 l 1
362 92 m 0
 361 95 358 97 354 97 c 0
 352 97 348 96 348 93 c 0
 348 91 349 88 351 86 c 1
 348 83 340 77 340 73 c 0
 340 72 339 65 339 61 c 0
 339 58 341 56 344 55 c 0
 345 56 346 57 346 58 c 0
 346 59 345 60 344 61 c 0
 348 69 351 72 354 72 c 0
 355 72 l 1
 355 77 l 1
 358 78 359 79 360 79 c 1
 360 80 360 81 360 82 c 0
 360 85 361 88 362 92 c 0
456 -56 m 1
 452 -56 l 1
 454 -58 l 1
 456 -56 l 1
335 39 m 1
 331 36 l 1
 331 34 323 28 323 24 c 0
 323 22 324 21 326 21 c 0
 328 21 330 22 332 25 c 1
 331 28 l 1
 334 30 335 34 335 39 c 1
407 -69 m 2
 400 -69 l 1
 403 -72 l 2
 404 -72 405 -71 407 -69 c 2
326 12 m 1
 323 11 320 9 319 7 c 1
 321 9 325 11 326 12 c 1
319 -9 m 0
 319 -9 319 -9 319 -8 c 0
 319 -4 316 1 311 1 c 0
 310 1 309 1 308 -1 c 2
 313 -11 l 2
 312 -12 309 -13 303 -13 c 1
 303 -13 303 -14 303 -15 c 0
 303 -19 295 -25 295 -27 c 0
 296 -28 298 -29 302 -29 c 0
 303 -26 319 -16 319 -11 c 0
 319 -10 319 -9 319 -9 c 0
295 -38 m 1
 294 -38 l 0
 292 -38 287 -41 279 -45 c 1
 281 -46 l 2
 285 -46 290 -43 295 -38 c 1
270 -62 m 2
 270 -62 266 -66 265 -68 c 128
 263 -71 261 -71 261 -72 c 256
 261 -73 262 -75 263 -76 c 2
 270 -62 l 2
387 28 m 1
 368 8 358 -11 355 -29 c 1
 347 -36 339 -49 332 -66 c 0
 326 -80 316 -90 302 -96 c 1
 303 -99 l 1
 299 -103 l 1
 292 -116 274 -127 247 -136 c 1
 247 -141 l 1
 224 -154 199 -160 171 -160 c 0
 142 -160 116 -153 93 -139 c 0
 91 -139 88 -138 83 -135 c 128
 78 -132 75 -131 73 -131 c 256
 71 -131 69 -132 67 -134 c 1
 83 -161 110 -176 149 -179 c 0
 165 -178 188 -175 218 -170 c 1
 259 -153 295 -127 328 -91 c 0
 364 -52 384 -12 387 28 c 1
302 -155 m 1
 302 -152 l 1
 297 -155 l 1
 302 -155 l 1
258 -80 m 1
 253 -81 247 -83 240 -88 c 128
 233 -93 228 -96 223 -96 c 1
 223 -97 223 -98 223 -99 c 0
 223 -103 224 -107 228 -112 c 1
 236 -107 246 -96 258 -80 c 1
216 -114 m 1
 216 -105 l 1
 210 -110 200 -114 186 -115 c 0
 170 -117 160 -119 155 -121 c 2
 216 -114 l 1
146 -69 m 1
 144 -64 139 -58 130 -51 c 1
 119 -50 110 -49 102 -49 c 0
 89 -49 79 -51 72 -54 c 0
 68 -58 65 -63 64 -70 c 0
 62 -81 61 -87 61 -88 c 0
 62 -88 62 -88 63 -88 c 0
 65 -88 70 -87 70 -85 c 0
 70 -84 69 -82 67 -80 c 1
 71 -79 72 -77 72 -73 c 0
 72 -72 72 -70 72 -69 c 1
 75 -62 81 -58 88 -58 c 0
 91 -58 95 -58 102 -60 c 128
 107 -61 111 -62 114 -62 c 0
 115 -62 116 -62 117 -62 c 2
 115 -67 l 1
 122 -67 l 2
 123 -69 124 -71 125 -72 c 128
 126 -73 126 -74 126 -75 c 0
 126 -76 125 -77 124 -78 c 0
 123 -78 l 0
 122 -78 121 -77 119 -76 c 1
 112 -88 l 2
 113 -88 115 -90 118 -94 c 128
 120 -97 123 -99 126 -99 c 0
 127 -99 127 -99 128 -99 c 0
 134 -94 140 -84 146 -69 c 1
151 -121 m 1
 150 -121 149 -122 148 -122 c 0
 145 -122 143 -119 141 -114 c 1
 128 -114 l 2
 129 -115 132 -117 136 -120 c 128
 140 -123 142 -124 144 -124 c 256
 146 -124 148 -123 151 -121 c 1
77 -121 m 2
 66 -94 l 1
 61 -95 58 -99 58 -104 c 0
 59 -112 59 -116 59 -117 c 0
 64 -121 68 -123 72 -123 c 0
 74 -123 76 -122 77 -121 c 2
79 -184 m 1
 80 -179 77 -175 70 -172 c 128
 63 -169 60 -167 59 -166 c 1
 59 -180 63 -188 70 -191 c 1
 70 -184 l 2
 71 -182 72 -181 74 -182 c 256
 76 -183 78 -183 79 -184 c 1
574 523 m 1
 571 523 l 1
 571 527 l 1
 574 527 l 1
 574 523 l 1
581 477 m 1
 577 477 l 1
 577 480 l 1
 581 480 l 1
 581 477 l 1
697 326 m 1
 690 320 l 2
 688 320 685 321 681 322 c 1
 677 317 l 2
 676 319 675 325 673 334 c 0
 672 341 672 346 674 349 c 0
 681 351 686 348 688 340 c 128
 690 332 693 327 697 326 c 1
425 589 m 1
 422 589 420 588 419 587 c 1
 418 590 414 592 408 594 c 128
 403 596 400 599 400 602 c 0
 400 606 407 608 409 608 c 0
 413 608 418 602 425 589 c 1
508 308 m 1
 508 291 l 2
 507 284 504 280 497 277 c 1
 469 278 430 281 380 288 c 1
 379 307 382 320 389 328 c 1
 399 328 433 331 444 331 c 0
 476 331 497 323 508 308 c 1
520 225 m 1
 533 182 540 153 540 138 c 0
 540 109 527 90 501 81 c 1
 485 96 477 118 477 145 c 0
 477 154 478 167 480 184 c 128
 482 201 483 214 483 223 c 1
 491 224 503 224 520 225 c 1
EndSplineSet
Validated: 161
EndChar

StartChar: B
Encoding: 66 66 27
Width: 816
Flags: HW
LayerCount: 2
Back
Fore
SplineSet
666 767 m 1
 667 766 668 764 668 761 c 0
 667 758 665 755 661 754 c 0
 660 755 661 756 663 760 c 128
 665 764 666 766 666 767 c 1
577 785 m 1
 572 775 l 1
 563 781 l 1
 577 785 l 1
561 774 m 1
 554 778 l 1
 554 781 l 1
 557 781 l 1
 561 774 l 1
451 760 m 1
 433 765 l 1
 440 767 l 1
 451 760 l 1
420 768 m 2
 420 767 419 766 418 765 c 0
 417 765 416 766 415 767 c 2
 415 768 l 1
 420 768 l 2
736 422 m 1
 736 417 736 414 735 414 c 0
 731 413 729 414 729 417 c 0
 729 420 729 422 730 424 c 0
 731 425 733 424 736 422 c 1
369 754 m 2
 364 753 361 753 360 753 c 2
 360 754 l 1
 369 754 l 2
735 366 m 1
 732 368 731 371 732 375 c 0
 733 380 734 382 733 383 c 2
 735 385 l 1
 738 384 739 381 738 378 c 0
 736 372 735 368 735 366 c 1
738 361 m 0
 740 360 741 358 741 356 c 0
 741 353 739 349 736 344 c 1
 733 348 l 2
 736 349 736 351 736 354 c 128
 736 357 737 360 738 361 c 0
321 744 m 1
 314 744 l 1
 321 746 l 1
 321 744 l 1
744 313 m 2
 743 312 742 310 742 307 c 1
 742 307 l 1
 742 304 741 303 740 302 c 0
 737 303 736 304 737 307 c 0
 738 310 739 312 738 313 c 2
 744 313 l 2
742 285 m 2
 740 286 739 286 738 286 c 1
 738 288 739 290 742 291 c 1
 742 285 l 2
745 281 m 1
 745 278 745 276 744 276 c 2
 742 276 l 1
 742 281 l 1
 745 281 l 1
744 256 m 2
 744 257 743 258 740 261 c 1
 744 261 l 1
 744 256 l 2
284 737 m 1
 281 736 274 734 263 731 c 0
 255 729 248 728 241 729 c 1
 243 730 257 732 284 737 c 1
748 247 m 1
 743 242 l 1
 744 252 l 1
 746 252 l 1
 748 247 l 1
751 171 m 0
 747 170 745 171 745 175 c 0
 744 177 745 179 747 182 c 0
 750 183 753 181 754 178 c 256
 755 175 754 172 751 171 c 0
219 703 m 2
 212 701 l 2
 214 703 216 704 217 705 c 0
 218 704 218 704 219 703 c 2
183 728 m 1
 175 719 l 1
 177 729 l 1
 183 729 l 1
 183 728 l 1
758 134 m 1
 753 134 750 137 750 142 c 0
 750 151 750 156 749 157 c 0
 750 158 751 159 754 159 c 0
 755 155 754 149 752 141 c 1
 757 141 759 139 758 134 c 1
157 715 m 1
 155 714 154 713 152 712 c 128
 147 708 144 707 143 707 c 0
 141 707 139 708 138 710 c 1
 143 711 149 713 157 715 c 1
158 715 m 1
 161 717 164 718 167 718 c 1
 164 717 161 716 158 715 c 1
742 118 m 1
 736 126 l 1
 740 127 l 1
 742 118 l 1
758 84 m 1
 755 88 754 91 754 92 c 0
 756 93 756 94 755 96 c 0
 753 98 752 99 752 100 c 0
 752 102 753 103 756 104 c 1
 755 102 755 100 757 96 c 128
 759 92 760 90 760 89 c 0
 760 87 759 85 758 84 c 1
747 104 m 2
 747 103 746 102 745 101 c 0
 743 100 741 101 738 102 c 1
 738 104 l 1
 747 104 l 2
705 129 m 2
 705 128 704 127 703 126 c 2
 699 126 l 1
 699 129 l 1
 705 129 l 2
686 132 m 1
 682 126 l 1
 680 127 l 1
 686 132 l 1
134 710 m 1
 117 707 94 703 63 698 c 1
 79 702 103 706 134 710 c 1
687 112 m 1
 680 117 l 1
 687 118 l 1
 687 112 l 1
752 37 m 1
 751 34 749 33 746 32 c 0
 743 31 742 32 741 34 c 128
 740 36 739 37 738 38 c 2
 735 40 l 1
 735 47 737 49 742 48 c 1
 740 42 l 1
 752 37 l 1
730 201 m 1
 679 175 628 137 577 87 c 1
 570 85 562 76 552 61 c 128
 542 46 534 38 527 38 c 0
 522 38 517 39 512 42 c 0
 489 51 455 63 410 80 c 0
 370 94 334 101 302 101 c 0
 258 101 221 87 191 58 c 1
 177 39 170 21 170 2 c 0
 170 -11 174 -24 182 -37 c 1
 188 -37 l 1
 187 -42 187 -45 188 -46 c 0
 192 -47 197 -46 203 -44 c 1
 203 -41 l 1
 208 -41 l 2
 209 -42 210 -44 212 -46 c 1
 214 -44 220 -42 230 -41 c 0
 238 -40 242 -38 241 -36 c 1
 243 -37 246 -37 249 -37 c 1
 248 -35 248 -33 251 -32 c 128
 255 -30 255 -30 259 -28 c 0
 263 -29 267 -29 270 -29 c 0
 273 -29 276 -29 281 -28 c 128
 286 -27 289 -26 292 -26 c 0
 296 -26 299 -30 300 -37 c 0
 302 -42 302 -41 303 -42 c 1
 299 -43 292 -42 282 -40 c 128
 272 -38 266 -38 263 -39 c 1
 263 -37 l 1
 260 -40 255 -43 247 -45 c 0
 237 -48 231 -49 230 -50 c 2
 233 -53 l 2
 231 -54 229 -54 227 -54 c 256
 225 -54 222 -53 218 -52 c 128
 214 -51 211 -51 209 -51 c 0
 204 -51 200 -54 197 -60 c 1
 202 -68 211 -74 223 -76 c 128
 235 -78 247 -80 258 -81 c 1
 257 -79 258 -77 259 -75 c 0
 256 -69 250 -66 241 -67 c 1
 241 -67 245 -66 249 -64 c 1
 244 -51 l 2
 250 -61 264 -66 286 -67 c 1
 285 -70 286 -73 288 -76 c 1
 282 -79 278 -80 277 -80 c 0
 276 -77 272 -75 265 -75 c 1
 266 -80 263 -86 256 -92 c 1
 234 -85 220 -81 214 -81 c 0
 213 -81 213 -81 213 -81 c 1
 213 -78 213 -77 212 -76 c 1
 209 -81 206 -84 203 -84 c 0
 201 -84 198 -82 194 -78 c 128
 190 -74 186 -71 183 -71 c 0
 181 -71 179 -71 178 -72 c 0
 159 -41 150 -8 150 27 c 0
 150 51 155 73 166 92 c 1
 179 105 193 125 210 150 c 1
 222 154 240 160 264 168 c 128
 288 176 305 188 312 203 c 1
 311 205 309 208 307 210 c 1
 319 208 328 212 333 221 c 1
 334 228 338 237 346 249 c 1
 337 252 l 1
 337 256 l 1
 343 265 346 277 346 290 c 0
 346 306 340 335 329 376 c 128
 318 417 312 450 312 475 c 0
 312 538 331 587 369 622 c 1
 406 667 453 714 510 765 c 1
 521 757 552 725 604 668 c 0
 619 651 635 634 650 617 c 0
 663 600 670 583 670 565 c 0
 670 562 669 559 669 556 c 1
 656 539 627 508 581 464 c 1
 590 457 607 450 630 442 c 128
 653 434 670 428 679 423 c 0
 695 413 703 400 703 383 c 0
 703 378 702 373 701 367 c 0
 706 330 716 275 730 201 c 1
736 30 m 2
 736 29 734 28 731 28 c 1
 730 30 l 1
 736 30 l 2
56 699 m 2
 55 700 54 699 53 698 c 2
 53 703 l 1
 56 703 l 1
 56 699 l 2
685 67 m 2
 685 66 684 65 683 64 c 1
 683 65 682 65 678 67 c 2
 685 67 l 2
709 -3 m 1
 708 -3 706 1 702 7 c 0
 700 10 697 12 694 11 c 1
 694 14 695 15 696 16 c 2
 683 21 l 2
 684 22 685 24 685 26 c 0
 680 33 678 38 678 39 c 2
 685 48 l 1
 692 42 l 1
 694 44 l 2
 695 43 694 40 693 34 c 0
 692 30 694 27 699 26 c 1
 697 25 696 23 696 21 c 0
 696 18 698 15 701 11 c 2
 701 11 701 11 709 8 c 0
 712 7 714 5 713 2 c 1
 723 5 737 6 754 7 c 1
 759 14 761 18 760 20 c 2
 754 23 l 1
 759 26 l 2
 762 27 763 27 764 26 c 256
 765 25 766 21 768 14 c 0
 769 9 768 6 765 3 c 0
 758 2 748 -1 734 -6 c 128
 720 -11 708 -13 701 -13 c 1
 700 -10 700 -8 704 -6 c 128
 706 -5 708 -4 709 -3 c 1
44 696 m 2
 43 695 40 694 36 694 c 1
 36 694 l 1
 32 694 29 694 28 693 c 1
 29 695 31 696 34 696 c 2
 44 696 l 2
664 62 m 2
 657 69 l 2
 660 70 662 70 664 70 c 0
 667 70 668 69 668 66 c 0
 667 64 666 63 664 62 c 2
643 83 m 1
 639 84 634 85 627 88 c 1
 631 87 631 87 634 88 c 0
 638 89 640 90 641 90 c 0
 643 89 644 87 643 83 c 1
18 693 m 1
 20 689 21 685 21 682 c 0
 21 677 19 674 15 671 c 1
 3 675 l 2
 6 676 10 679 12 684 c 128
 14 689 16 692 18 693 c 1
621 63 m 1
 616 68 l 1
 616 70 l 1
 619 70 l 1
 621 63 l 1
25 659 m 1
 17 662 l 1
 17 665 l 1
 20 665 l 1
 25 659 l 1
134 553 m 2
 133 551 132 549 130 548 c 0
 127 547 125 548 124 550 c 2
 124 553 l 1
 134 553 l 2
14 661 m 1
 8 661 l 1
 8 664 l 1
 14 664 l 1
 14 661 l 1
182 481 m 1
 181 481 179 480 178 479 c 1
 177 480 177 482 177 486 c 1
 179 485 181 484 182 481 c 1
673 -2 m 1
 670 -5 668 -8 669 -11 c 2
 660 -4 l 1
 664 -3 668 -3 673 -2 c 1
657 2 m 2
 646 3 l 1
 652 12 l 2
 652 11 653 10 655 8 c 128
 657 6 658 4 657 2 c 2
608 54 m 1
 605 47 l 1
 602 47 l 1
 602 49 l 1
 608 54 l 1
381 703 m 1
 344 686 314 659 290 622 c 128
 266 585 255 546 255 506 c 0
 255 497 260 460 271 393 c 0
 277 356 288 329 303 311 c 1
 300 312 297 311 293 308 c 1
 296 295 297 286 297 280 c 0
 297 238 242 204 242 204 c 1
 220 181 197 169 173 169 c 0
 170 169 167 170 164 170 c 1
 164 170 164 170 167 174 c 1
 160 180 l 2
 166 178 172 178 177 180 c 0
 183 183 188 184 191 185 c 0
 206 200 214 223 214 252 c 1
 214 256 214 253 213 270 c 2
 213 270 213 270 213 289 c 0
 213 298 214 306 215 313 c 1
 223 313 228 315 230 318 c 1
 228 318 227 318 225 318 c 0
 217 318 204 320 189 324 c 0
 167 329 152 332 144 332 c 0
 131 332 119 328 109 321 c 0
 98 310 93 298 93 285 c 0
 93 281 94 277 95 272 c 0
 100 264 103 258 103 254 c 0
 103 253 103 252 102 251 c 0
 91 255 84 264 80 278 c 0
 79 280 78 292 76 314 c 1
 85 355 109 376 147 379 c 0
 149 379 152 379 154 379 c 0
 164 379 176 380 192 382 c 1
 186 402 183 422 183 441 c 0
 183 494 211 551 268 613 c 1
 217 613 184 613 170 612 c 0
 133 610 105 597 86 574 c 0
 83 567 81 559 81 550 c 0
 81 535 88 513 102 486 c 1
 89 488 75 504 60 535 c 0
 58 544 57 552 57 561 c 0
 57 598 70 630 95 656 c 1
 128 683 179 697 248 697 c 1
 237 697 292 696 301 696 c 0
 334 696 361 698 381 703 c 1
5 655 m 1
 6 651 6 646 5 641 c 1
 3 642 1 644 0 647 c 1
 5 655 l 1
691 -18 m 1
 682 -23 670 -28 654 -32 c 0
 633 -37 620 -41 616 -42 c 2
 621 -36 l 1
 616 -32 l 2
 618 -33 621 -31 625 -28 c 1
 618 -23 l 2
 615 -22 615 -19 616 -16 c 2
 624 -9 l 1
 618 -5 612 3 606 14 c 1
 607 15 608 16 609 17 c 0
 609 18 608 20 606 22 c 128
 604 24 604 26 604 27 c 0
 604 28 608 32 615 40 c 0
 618 43 622 44 627 42 c 1
 630 36 635 34 641 35 c 1
 642 32 645 27 650 21 c 0
 651 20 648 19 644 18 c 128
 640 17 638 15 638 14 c 256
 638 13 638 12 639 11 c 1
 631 10 625 14 621 23 c 0
 620 25 619 25 616 24 c 0
 615 23 613 22 611 21 c 1
 612 20 614 19 615 20 c 2
 611 16 l 1
 614 15 618 11 622 4 c 128
 626 -3 631 -6 638 -5 c 1
 633 -6 630 -7 629 -7 c 1
 630 -8 630 -10 630 -12 c 0
 630 -15 629 -19 627 -23 c 0
 628 -25 629 -26 630 -25 c 2
 634 -23 l 1
 634 -27 l 1
 639 -27 649 -25 662 -22 c 128
 675 -19 684 -17 691 -18 c 1
588 51 m 1
 585 56 l 1
 585 58 l 1
 587 58 l 1
 588 51 l 1
571 50 m 1
 567 54 l 1
 567 56 l 1
 570 56 l 1
 571 50 l 1
147 470 m 2
 145 468 144 467 143 468 c 2
 141 470 l 1
 147 470 l 2
148 459 m 1
 147 460 145 461 143 463 c 2
 143 464 l 2
 144 464 146 462 148 459 c 1
617 -11 m 1
 615 -11 l 1
 615 -9 l 1
 617 -9 l 1
 617 -11 l 1
169 410 m 1
 162 406 l 1
 160 408 l 1
 169 410 l 1
610 -19 m 1
 604 -23 594 -27 581 -32 c 1
 577 -23 l 1
 567 -27 l 2
 566 -26 566 -24 566 -23 c 256
 566 -22 567 -20 568 -18 c 0
 569 -19 571 -19 573 -19 c 0
 576 -19 581 -17 588 -13 c 128
 595 -9 599 -7 602 -7 c 1
 601 -12 604 -16 610 -19 c 1
565 22 m 1
 566 19 572 15 583 9 c 0
 585 8 588 8 590 6 c 128
 592 4 594 3 595 3 c 2
 590 0 l 1
 593 -5 l 2
 591 -6 590 -4 588 -1 c 128
 586 2 585 4 584 4 c 0
 583 3 581 2 579 0 c 1
 581 -2 l 1
 574 -2 570 -1 568 2 c 0
 567 2 566 1 565 0 c 2
 561 8 l 2
 558 13 555 15 551 14 c 0
 543 6 532 2 520 2 c 0
 518 2 517 2 515 2 c 1
 515 6 516 9 519 11 c 0
 520 11 522 10 524 9 c 2
 528 17 l 2
 530 17 535 18 544 20 c 0
 550 21 555 21 559 20 c 1
 562 21 564 21 565 22 c 1
328 225 m 1
 325 225 l 1
 325 228 l 1
 328 228 l 1
 328 225 l 1
138 410 m 2
 130 417 l 2
 132 418 135 418 138 419 c 1
 139 414 139 411 138 410 c 2
155 394 m 0
 155 387 153 385 150 387 c 0
 149 388 148 389 148 392 c 0
 149 394 151 395 152 395 c 256
 153 395 154 395 155 394 c 0
141 400 m 1
 135 394 l 2
 134 395 134 397 134 400 c 1
 141 400 l 1
477 42 m 1
 473 42 l 1
 473 44 l 1
 477 44 l 1
 477 42 l 1
518 -22 m 2
 514 -25 l 1
 512 -22 509 -19 505 -14 c 1
 508 -13 511 -14 512 -17 c 128
 513 -20 515 -22 518 -22 c 2
299 199 m 1
 294 192 l 1
 292 192 l 1
 292 194 l 1
 299 199 l 1
586 -53 m 1
 581 -57 558 -65 519 -78 c 1
 525 -67 536 -61 551 -59 c 0
 572 -57 583 -55 586 -53 c 1
501 -14 m 1
 491 -14 l 1
 491 -13 l 1
 501 -13 l 1
 501 -14 l 1
526 -44 m 1
 523 -44 l 1
 523 -41 l 1
 526 -41 l 1
 526 -44 l 1
520 -38 m 1
 518 -38 l 1
 518 -36 l 1
 520 -36 l 1
 520 -38 l 1
36 437 m 1
 33 437 l 1
 33 440 l 1
 36 440 l 1
 36 437 l 1
46 420 m 1
 35 419 l 1
 35 422 l 1
 38 422 l 1
 46 420 l 1
417 53 m 2
 398 55 l 2
 401 56 407 55 417 53 c 2
510 -48 m 1
 504 -48 l 1
 504 -46 l 1
 510 -46 l 1
 510 -48 l 1
427 26 m 0
 425 25 417 26 404 31 c 0
 404 34 406 36 411 38 c 2
 418 40 l 1
 427 40 l 1
 422 34 l 1
 426 30 428 27 427 26 c 0
38 402 m 2
 37 408 l 2
 38 407 39 405 38 402 c 2
367 58 m 1
 364 58 360 57 355 56 c 1
 352 58 350 62 350 69 c 0
 351 70 354 72 359 74 c 1
 362 70 l 1
 356 65 l 1
 359 64 362 61 367 58 c 1
505 -57 m 1
 503 -57 501 -58 498 -62 c 1
 502 -66 l 2
 503 -67 503 -69 501 -71 c 1
 500 -67 496 -66 490 -66 c 128
 484 -66 481 -65 481 -63 c 256
 481 -61 481 -59 482 -57 c 0
 481 -56 478 -56 475 -55 c 0
 474 -52 475 -49 477 -46 c 1
 472 -45 468 -40 462 -32 c 128
 456 -24 450 -21 445 -22 c 1
 446 -20 447 -19 447 -18 c 2
 429 -16 l 1
 426 -20 422 -22 418 -22 c 1
 418 -19 l 1
 415 -20 411 -21 404 -22 c 1
 405 -19 404 -16 403 -13 c 0
 404 -12 405 -12 406 -12 c 256
 407 -12 410 -13 412 -14 c 128
 414 -15 415 -16 416 -16 c 0
 417 -16 419 -15 420 -13 c 0
 420 -4 422 1 426 0 c 0
 427 1 427 4 427 7 c 1
 431 6 436 4 443 0 c 1
 439 0 433 -2 426 -5 c 1
 427 -9 433 -11 442 -11 c 1
 442 -8 443 -5 445 -4 c 0
 448 -3 450 -3 452 -5 c 0
 461 -12 469 -15 477 -14 c 1
 475 -18 474 -21 474 -24 c 0
 474 -28 476 -31 479 -32 c 1
 482 -30 l 1
 487 -39 l 1
 483 -38 479 -40 475 -44 c 1
 478 -45 483 -45 489 -42 c 1
 495 -48 l 1
 489 -53 l 1
 492 -54 497 -56 505 -57 c 1
46 380 m 1
 44 371 l 1
 42 380 l 1
 46 380 l 1
341 74 m 0
 340 73 336 74 328 76 c 1
 339 81 l 2
 339 80 339 79 340 78 c 128
 341 77 341 75 341 74 c 0
471 -64 m 2
 470 -65 469 -66 466 -67 c 1
 466 -60 l 1
 471 -64 l 2
50 356 m 1
 46 350 l 1
 47 358 l 1
 50 358 l 1
 50 356 l 1
316 84 m 1
 312 84 l 1
 312 87 l 1
 316 87 l 1
 316 84 l 1
142 255 m 1
 136 255 l 1
 136 263 l 1
 142 258 l 1
 142 255 l 1
171 226 m 1
 166 225 163 225 162 226 c 0
 161 228 162 230 164 233 c 1
 171 226 l 1
500 -81 m 1
 494 -90 485 -94 471 -94 c 0
 469 -94 467 -94 465 -94 c 0
 458 -96 451 -92 444 -82 c 128
 437 -72 431 -67 424 -69 c 1
 419 -64 417 -59 417 -54 c 0
 417 -52 417 -50 418 -48 c 1
 415 -47 412 -42 409 -32 c 1
 418 -32 l 1
 417 -35 417 -39 417 -44 c 1
 420 -43 424 -44 431 -46 c 1
 430 -47 429 -52 429 -60 c 1
 433 -64 l 2
 434 -62 436 -61 438 -61 c 0
 439 -61 441 -61 442 -62 c 1
 441 -65 444 -68 451 -71 c 1
 448 -72 l 1
 451 -75 454 -77 457 -76 c 2
 453 -80 l 1
 459 -79 466 -80 475 -83 c 0
 478 -82 481 -79 485 -76 c 0
 486 -75 488 -74 491 -74 c 0
 496 -74 499 -76 500 -81 c 1
385 3 m 9
 380 3 l 1
 380 11 l 1
 383 4 383 4 385 3 c 9
169 210 m 2
 166 210 165 211 164 212 c 2
 164 214 l 1
 169 210 l 2
121 254 m 1
 118 254 l 1
 118 256 l 1
 121 256 l 1
 121 254 l 1
279 83 m 1
 275 86 l 1
 275 88 l 1
 278 88 l 1
 279 83 l 1
175 185 m 1
 165 184 l 1
 165 187 l 1
 175 188 l 1
 175 185 l 1
153 201 m 1
 148 199 145 198 144 198 c 1
 147 206 144 214 135 222 c 128
 126 230 123 234 124 237 c 1
 125 236 131 235 140 234 c 0
 147 233 151 230 152 224 c 1
 147 221 l 2
 149 220 149 216 147 209 c 0
 146 204 148 201 153 201 c 1
456 -99 m 1
 453 -101 l 1
 451 -101 l 1
 456 -99 l 1
313 46 m 1
 308 38 l 1
 306 38 l 1
 306 45 l 1
 313 46 l 1
399 -44 m 1
 395 -49 392 -52 390 -51 c 0
 380 -46 368 -36 353 -22 c 1
 359 -22 367 -19 378 -13 c 0
 381 -14 383 -17 386 -24 c 128
 389 -31 391 -35 392 -36 c 1
 391 -35 390 -36 389 -37 c 0
 390 -38 393 -41 399 -44 c 1
200 148 m 1
 190 140 l 1
 194 150 l 1
 197 150 l 1
 200 148 l 1
180 164 m 1
 177 158 l 1
 174 158 l 1
 173 164 l 1
 180 164 l 1
153 189 m 1
 149 180 l 1
 148 190 l 1
 153 189 l 1
138 185 m 1
 135 185 l 1
 136 188 134 193 129 200 c 128
 124 207 121 212 121 214 c 0
 121 217 123 219 127 221 c 1
 130 217 l 1
 130 217 130 217 125 214 c 1
 127 211 130 209 134 210 c 1
 133 209 132 207 132 206 c 0
 132 204 134 201 137 198 c 128
 140 195 142 193 142 192 c 0
 142 190 141 188 138 185 c 1
286 16 m 1
 282 14 282 8 277 5 c 0
 274 3 271 2 268 2 c 0
 264 2 258 5 251 10 c 128
 244 15 239 17 236 17 c 2
 261 21 l 1
 259 20 l 1
 272 18 280 16 286 16 c 1
290 18 m 1
 288 20 l 1
 294 29 l 2
 297 33 299 35 302 35 c 256
 305 35 309 33 316 30 c 1
 323 39 l 1
 325 37 l 1
 322 35 320 33 320 32 c 256
 320 31 322 29 325 28 c 2
 337 30 l 1
 336 28 l 1
 341 25 345 24 346 25 c 0
 348 30 351 39 356 51 c 1
 360 51 366 50 374 48 c 1
 364 40 l 2
 365 39 365 38 365 36 c 0
 365 30 361 25 354 20 c 128
 347 15 341 13 334 13 c 0
 330 13 324 14 316 16 c 128
 308 18 302 19 298 19 c 0
 295 19 292 19 290 18 c 1
188 150 m 1
 180 141 l 1
 180 150 l 1
 188 150 l 1
270 70 m 0
 271 67 270 64 268 60 c 1
 267 64 265 66 261 67 c 0
 257 66 253 66 250 66 c 0
 247 67 245 68 245 70 c 1
 248 70 251 71 256 73 c 1
 250 79 l 2
 249 78 248 77 247 78 c 2
 245 79 l 1
 248 81 250 82 252 82 c 256
 254 82 256 80 260 76 c 128
 264 72 267 70 270 70 c 0
113 214 m 2
 113 214 112 215 108 216 c 128
 104 217 102 220 102 223 c 1
 106 225 108 226 109 226 c 0
 113 223 115 221 115 218 c 0
 115 217 114 215 113 214 c 2
165 164 m 1
 164 161 l 1
 160 158 l 1
 159 164 l 1
 165 164 l 1
436 -104 m 0
 433 -111 426 -115 415 -115 c 0
 414 -113 414 -111 416 -108 c 128
 418 -105 420 -103 420 -102 c 256
 420 -101 419 -99 417 -97 c 0
 412 -98 409 -99 408 -99 c 1
 408 -98 410 -96 415 -95 c 128
 420 -94 422 -92 422 -90 c 0
 422 -84 417 -82 408 -83 c 0
 403 -84 400 -83 398 -80 c 2
 398 -75 l 1
 401 -74 404 -74 409 -76 c 128
 414 -78 417 -80 418 -80 c 0
 421 -80 423 -78 426 -75 c 1
 425 -77 426 -77 429 -78 c 128
 432 -79 434 -81 434 -83 c 0
 434 -84 434 -85 433 -86 c 2
 427 -86 l 2
 426 -87 426 -90 429 -94 c 1
 426 -97 424 -100 424 -101 c 0
 425 -104 427 -105 430 -104 c 0
 431 -103 432 -102 433 -102 c 0
 434 -103 435 -103 436 -104 c 0
280 40 m 1
 277 40 l 1
 274 46 l 1
 280 42 l 1
 280 40 l 1
166 153 m 1
 164 153 l 1
 164 155 l 1
 166 155 l 1
 166 153 l 1
71 224 m 1
 66 243 63 257 63 265 c 1
 60 266 59 269 60 272 c 2
 60 281 l 1
 67 262 70 243 71 224 c 1
289 39 m 2
 288 38 286 37 285 34 c 128
 284 31 282 29 281 29 c 2
 277 31 l 2
 274 31 276 32 283 35 c 1
 281 37 280 38 280 39 c 2
 289 39 l 2
241 77 m 1
 238 73 l 1
 239 79 l 1
 241 79 l 1
 241 77 l 1
121 194 m 1
 118 194 l 1
 118 196 l 1
 121 196 l 1
 121 194 l 1
135 179 m 1
 124 179 l 2
 124 180 123 182 121 184 c 2
 118 184 l 2
 125 185 130 184 135 179 c 1
351 -32 m 1
 349 -32 342 -31 330 -29 c 0
 323 -28 316 -29 311 -33 c 1
 311 -28 l 2
 312 -29 315 -28 318 -25 c 1
 318 -16 l 1
 320 -16 322 -16 324 -16 c 0
 335 -16 344 -21 351 -32 c 1
111 198 m 1
 109 193 l 1
 106 194 103 198 100 207 c 1
 107 208 110 205 111 198 c 1
383 -78 m 1
 380 -78 l 1
 383 -76 l 1
 383 -78 l 1
351 -42 m 2
 351 -45 351 -47 350 -48 c 2
 347 -48 l 1
 351 -42 l 2
174 143 m 1
 172 144 169 145 165 145 c 0
 162 145 157 144 152 143 c 1
 149 137 147 134 144 134 c 2
 143 136 l 1
 146 137 148 140 147 143 c 256
 146 146 145 149 144 152 c 1
 143 151 141 150 138 148 c 1
 139 145 l 1
 130 145 l 2
 132 145 133 147 134 150 c 128
 135 153 135 154 136 154 c 0
 137 153 139 152 139 152 c 2
 139 152 138 153 140 157 c 128
 141 160 144 162 147 161 c 1
 148 156 152 153 160 150 c 128
 168 147 173 144 174 143 c 1
116 181 m 1
 113 181 l 1
 110 186 l 1
 116 184 l 1
 116 181 l 1
88 206 m 1
 84 208 l 1
 85 212 l 1
 87 212 l 1
 88 206 l 1
118 176 m 1
 111 176 l 1
 111 179 l 1
 118 179 l 1
 118 176 l 1
134 164 m 2
 133 162 128 161 120 162 c 1
 118 164 l 1
 134 164 l 2
166 126 m 1
 163 123 160 122 157 122 c 0
 156 122 154 122 152 123 c 0
 151 125 152 128 153 131 c 0
 156 132 158 132 161 130 c 128
 164 128 165 126 166 126 c 1
404 -64 m 1
 395 -65 388 -66 383 -66 c 256
 378 -66 374 -65 373 -64 c 2
 376 -62 l 1
 376 -58 l 1
 372 -57 368 -57 365 -57 c 0
 358 -57 349 -60 336 -66 c 128
 323 -72 314 -75 307 -75 c 0
 302 -75 298 -74 293 -72 c 0
 293 -70 296 -69 300 -69 c 128
 304 -69 306 -68 307 -67 c 1
 308 -70 310 -71 313 -69 c 0
 317 -66 320 -65 321 -66 c 2
 321 -62 l 1
 327 -62 331 -63 332 -66 c 1
 335 -65 336 -64 335 -61 c 0
 335 -60 335 -58 334 -56 c 0
 335 -55 337 -55 339 -55 c 0
 340 -58 342 -59 344 -58 c 2
 350 -58 l 1
 352 -53 356 -51 361 -51 c 0
 363 -51 367 -52 372 -54 c 128
 377 -56 381 -56 383 -56 c 256
 385 -56 387 -56 389 -55 c 1
 390 -58 392 -60 396 -60 c 128
 400 -60 403 -61 404 -64 c 1
259 44 m 0
 254 44 249 43 244 43 c 0
 229 43 219 46 213 51 c 1
 219 55 229 57 243 56 c 0
 254 55 259 54 259 51 c 0
 259 50 259 50 258 49 c 1
 259 48 259 47 259 44 c 0
371 -99 m 1
 365 -99 l 1
 365 -92 l 1
 368 -91 369 -92 370 -95 c 128
 371 -99 371 -99 371 -99 c 1
135 134 m 1
 115 136 l 1
 114 140 115 146 118 155 c 1
 118 157 l 1
 124 157 l 1
 124 155 l 2
 123 155 119 153 117 150 c 1
 116 148 l 1
 121 148 l 2
 123 148 123 148 121 147 c 0
 118 145 117 143 118 141 c 0
 129 143 135 141 135 134 c 1
347 -81 m 1
 345 -81 l 1
 345 -80 l 1
 347 -80 l 1
 347 -81 l 1
404 -117 m 1
 391 -126 381 -130 375 -130 c 0
 373 -130 371 -130 369 -129 c 1
 377 -126 389 -122 404 -117 c 1
111 157 m 2
 111 155 109 154 106 154 c 2
 102 157 l 1
 111 157 l 2
97 164 m 0
 96 163 93 162 90 162 c 128
 87 162 85 162 85 161 c 256
 85 160 85 158 86 157 c 0
 90 141 92 128 92 118 c 0
 92 114 92 111 91 108 c 1
 80 155 73 193 72 221 c 1
 74 207 77 198 80 193 c 1
 86 193 l 1
 80 184 l 1
 87 183 92 176 97 164 c 0
224 25 m 1
 219 25 l 2
 218 26 219 27 221 28 c 2
 224 25 l 1
360 -99 m 1
 357 -100 356 -103 357 -106 c 128
 358 -109 358 -112 356 -113 c 2
 339 -111 l 1
 341 -106 339 -100 333 -92 c 1
 336 -93 341 -93 346 -90 c 1
 345 -91 345 -92 345 -93 c 0
 345 -95 347 -96 352 -97 c 128
 357 -98 359 -98 360 -99 c 1
257 -9 m 1
 244 -6 l 1
 244 -4 l 1
 256 -3 l 1
 257 -9 l 1
244 5 m 1
 234 -4 l 1
 236 7 l 1
 239 7 l 1
 244 5 l 1
328 -88 m 1
 325 -88 l 1
 325 -85 l 1
 328 -85 l 1
 328 -88 l 1
194 49 m 1
 193 49 l 1
 193 50 l 0
 194 49 l 1
195 48 m 1
 201 48 l 2
 202 48 200 47 198 46 c 128
 196 45 196 44 197 42 c 2
 205 39 l 2
 205 39 198 38 196 35 c 0
 197 34 198 32 201 27 c 128
 204 22 207 20 212 20 c 2
 231 20 l 2
 230 19 230 19 228 17 c 128
 227 16 226 14 226 13 c 0
 226 12 226 12 227 11 c 1
 226 10 224 9 222 9 c 0
 221 9 219 9 217 10 c 0
 209 15 202 20 195 25 c 0
 190 28 189 32 191 37 c 1
 191 37 191 37 196 40 c 1
 196 44 195 47 195 48 c 1
324 -93 m 1
 317 -96 l 1
 321 -90 l 1
 324 -90 l 1
 324 -93 l 1
246 -23 m 1
 241 -23 l 1
 244 -11 l 1
 246 -11 l 1
 246 -23 l 1
330 -101 m 1
 327 -104 l 2
 327 -103 326 -101 325 -99 c 2
 330 -101 l 1
328 -126 m 1
 325 -126 l 1
 325 -124 l 1
 328 -124 l 1
 328 -126 l 1
102 93 m 1
 93 95 l 1
 93 97 l 1
 102 102 l 1
 102 93 l 1
97 83 m 1
 95 83 l 1
 95 90 l 2
 96 89 96 86 97 83 c 1
106 69 m 1
 97 73 l 1
 97 76 l 1
 102 81 l 1
 106 69 l 1
341 -143 m 1
 324 -156 301 -164 272 -166 c 1
 275 -160 284 -156 298 -152 c 128
 312 -148 320 -143 323 -136 c 1
 321 -134 l 2
 323 -133 324 -133 325 -133 c 1
 325 -136 330 -139 341 -143 c 1
226 -120 m 1
 222 -122 219 -123 216 -122 c 1
 219 -121 222 -120 225 -120 c 0
 226 -120 l 1
227 -120 m 1
 228 -119 230 -119 231 -118 c 0
 239 -113 244 -111 245 -110 c 0
 247 -111 250 -114 253 -119 c 1
 250 -120 l 1
 251 -123 253 -124 255 -124 c 0
 257 -123 257 -123 259 -122 c 128
 260 -121 261 -120 261 -117 c 1
 265 -118 269 -116 272 -110 c 1
 268 -106 l 1
 272 -103 l 1
 266 -95 l 2
 271 -98 277 -102 284 -108 c 1
 283 -111 284 -115 288 -120 c 1
 282 -127 275 -131 268 -131 c 0
 263 -131 256 -130 247 -126 c 128
 239 -123 232 -120 227 -120 c 1
269 -169 m 1
 266 -169 l 1
 266 -166 l 1
 269 -166 l 1
 269 -169 l 1
208 -104 m 1
 200 -105 l 1
 200 -103 l 1
 202 -103 l 1
 208 -104 l 1
221 -110 m 0
 220 -111 219 -114 217 -117 c 1
 215 -115 213 -113 210 -112 c 256
 207 -111 205 -111 203 -113 c 1
 201 -111 l 1
 206 -109 211 -108 215 -108 c 0
 218 -108 220 -109 221 -110 c 0
205 -138 m 1
 196 -138 187 -128 180 -107 c 0
 178 -107 175 -110 171 -117 c 1
 160 -117 l 2
 165 -115 168 -108 168 -97 c 1
 173 -97 l 2
 173 -98 173 -99 174 -101 c 0
 175 -102 179 -100 186 -97 c 1
 185 -100 184 -103 184 -105 c 0
 184 -112 189 -117 198 -120 c 128
 207 -123 211 -126 211 -127 c 0
 211 -130 209 -133 205 -138 c 1
259 -177 m 1
 246 -178 228 -182 203 -189 c 1
 196 -181 l 1
 217 -170 232 -165 243 -165 c 0
 249 -165 254 -166 259 -168 c 1
 259 -177 l 1
133 -103 m 1
 130 -104 l 1
 125 -99 121 -91 120 -80 c 0
 119 -66 118 -57 118 -53 c 1
 121 -64 126 -80 133 -103 c 1
141 -157 m 1
 138 -154 134 -139 130 -113 c 1
 139 -139 142 -154 141 -157 c 1
150 -169 m 1
 147 -176 l 1
 144 -176 l 1
 144 -173 l 1
 150 -169 l 1
174 -200 m 1
 172 -203 168 -204 162 -203 c 256
 156 -202 151 -201 147 -200 c 1
 146 -197 145 -192 144 -186 c 1
 159 -184 l 1
 164 -195 169 -201 174 -200 c 1
539 684 m 1
 533 684 l 1
 537 680 l 1
 539 684 l 1
634 567 m 1
 634 570 l 1
 629 569 l 1
 634 567 l 1
626 564 m 1
 626 567 l 1
 624 567 l 1
 624 564 l 1
 626 564 l 1
376 528 m 1
 371 526 l 1
 373 525 l 1
 376 528 l 1
239 652 m 1
 239 654 238 656 236 657 c 1
 236 654 237 653 239 652 c 1
234 642 m 1
 234 645 l 1
 231 645 l 1
 231 642 l 1
 234 642 l 1
588 514 m 1
 561 567 515 624 448 685 c 1
 433 672 420 653 410 628 c 128
 400 603 395 581 395 560 c 0
 395 538 400 507 409 468 c 0
 419 423 425 392 426 374 c 0
 427 366 428 358 428 349 c 0
 428 319 416 289 393 258 c 0
 378 239 355 214 323 185 c 1
 332 186 340 186 349 186 c 0
 395 186 453 172 524 145 c 1
 517 172 510 208 503 255 c 2
 495 308 l 2
 491 337 488 356 486 366 c 0
 467 461 455 528 452 567 c 0
 453 569 456 569 458 568 c 128
 460 567 461 567 462 569 c 1
 471 549 477 522 481 489 c 2
 491 406 l 1
 509 421 509 421 545 451 c 0
 567 470 581 491 588 514 c 1
208 652 m 1
 208 656 l 1
 203 659 l 1
 208 652 l 1
180 662 m 1
 180 665 l 1
 177 665 l 1
 177 662 l 1
 180 662 l 1
169 667 m 1
 163 671 159 672 157 670 c 2
 157 665 l 1
 166 662 l 1
 168 666 169 667 169 667 c 1
630 159 m 1
 624 196 616 250 606 321 c 0
 601 340 587 355 562 365 c 0
 557 367 535 373 496 383 c 1
 514 301 528 222 537 146 c 1
 543 138 560 130 588 122 c 1
 591 128 598 135 609 142 c 128
 620 149 627 154 630 159 c 1
337 441 m 2
 337 445 l 1
 333 445 l 1
 333 444 l 2
 335 444 336 443 337 441 c 2
367 381 m 1
 364 387 l 1
 360 385 l 1
 367 381 l 1
386 344 m 1
 386 353 l 1
 383 352 l 1
 386 344 l 1
215 482 m 1
 216 483 216 483 217 484 c 1
 216 485 216 485 215 486 c 2
 213 489 l 2
 213 488 214 485 215 482 c 1
226 459 m 1024
619 27 m 1
 619 30 l 1
 616 30 l 1
 616 27 l 1
 619 27 l 1
523 81 m 1
 523 83 l 1
 515 83 l 1
 515 81 l 1
 523 81 l 1
224 326 m 1
 223 332 l 1
 219 329 l 1
 219 326 l 1
 224 326 l 1
483 -38 m 1
 483 -36 l 1
 480 -36 l 1
 480 -38 l 1
 483 -38 l 1
338 24 m 1
 338 26 l 1
 336 26 l 1
 336 24 l 1
 338 24 l 1
381 -27 m 2
 376 -23 l 1
 372 -27 370 -29 371 -30 c 0
 372 -30 374 -29 376 -28 c 128
 378 -27 380 -27 381 -27 c 2
430 -85 m 1
 430 -82 l 1
 427 -82 l 1
 427 -85 l 1
 430 -85 l 1
256 14 m 1
 256 16 l 1
 253 16 l 1
 253 14 l 1
 256 14 l 1
89 163 m 1
 89 166 l 1
 86 166 l 1
 86 163 l 1
 89 163 l 1
268 -69 m 1
 259 -71 l 1
 261 -72 l 2
 264 -73 266 -72 268 -69 c 1
274 -122 m 1
 274 -120 l 1
 266 -120 l 1
 266 -122 l 1
 274 -122 l 1
455 190 m 1
 446 184 l 1
 452 193 l 1
 455 193 l 1
 455 190 l 1
EndSplineSet
Validated: 161
EndChar

StartChar: C
Encoding: 67 67 28
Width: 787
Flags: HW
LayerCount: 2
Back
Fore
SplineSet
602 503 m 1
 599 500 597 499 596 500 c 2
 593 503 l 1
 602 503 l 1
617 417 m 0
 611 416 608 418 607 423 c 2
 607 439 l 2
 607 446 605 450 602 452 c 1
 605 457 608 459 612 457 c 1
 619 437 622 427 622 426 c 0
 622 422 620 419 617 417 c 0
543 444 m 1
 540 445 538 443 537 440 c 1
 535 444 l 1
 543 449 l 1
 543 444 l 1
424 419 m 2
 424 418 421 416 414 411 c 1
 412 413 411 416 411 419 c 1
 424 419 l 2
293 459 m 1
 290 458 287 462 282 471 c 1
 293 471 l 1
 293 459 l 1
309 363 m 2
 308 363 306 364 303 366 c 1
 309 369 l 1
 309 363 l 2
45 246 m 1
 57 214 68 189 78 171 c 0
 101 128 130 96 164 76 c 1
 213 27 289 3 391 3 c 0
 419 3 451 5 487 9 c 1
 588 2 674 67 744 204 c 1
 743 225 737 243 727 258 c 1
 718 264 708 267 696 267 c 0
 686 267 675 265 663 261 c 1
 644 227 618 197 583 172 c 128
 548 147 512 133 475 129 c 1
 366 151 296 208 263 299 c 0
 250 334 244 370 244 407 c 0
 244 476 267 532 314 575 c 1
 350 594 387 603 426 603 c 0
 457 603 483 597 502 586 c 1
 531 579 560 562 591 534 c 0
 624 503 652 488 675 488 c 0
 709 488 731 505 741 540 c 1
 740 555 733 570 720 583 c 0
 701 602 690 614 687 618 c 0
 684 631 677 650 664 673 c 128
 651 696 642 714 639 726 c 1
 634 731 629 736 622 744 c 128
 615 752 607 755 598 753 c 0
 573 748 556 738 545 722 c 1
 548 720 l 1
 544 708 l 2
 543 704 540 701 537 699 c 0
 506 704 476 706 445 706 c 0
 288 706 174 652 105 543 c 0
 90 524 76 494 63 451 c 0
 50 406 38 376 27 360 c 2
 35 369 l 1
 40 363 l 2
 39 361 39 358 39 355 c 256
 39 352 40 347 41 340 c 128
 42 333 43 328 43 325 c 0
 43 318 40 313 35 310 c 1
 46 302 l 1
 45 298 42 296 37 296 c 0
 26 295 21 293 20 290 c 1
 30 288 l 1
 32 281 35 274 37 268 c 1
 35 267 33 265 30 262 c 2
 25 256 l 1
 34 239 l 2
 39 228 43 222 44 223 c 0
 45 225 46 229 46 234 c 0
 46 237 46 241 45 246 c 1
610 712 m 1
 598 705 585 702 572 704 c 1
 576 712 583 716 592 716 c 0
 597 716 603 715 610 712 c 1
617 699 m 1
 614 691 607 687 595 687 c 0
 576 687 566 687 567 688 c 2
 617 699 l 1
669 605 m 1
 658 598 642 593 621 592 c 0
 596 590 580 588 572 586 c 1
 572 589 573 591 577 597 c 1
 585 596 596 598 612 603 c 128
 628 608 639 610 646 610 c 0
 654 610 662 608 669 605 c 1
692 561 m 1
 686 561 677 559 664 556 c 128
 651 553 641 551 635 551 c 0
 630 551 626 552 623 553 c 1
 626 552 629 552 632 552 c 0
 637 552 645 555 656 560 c 128
 667 565 674 568 678 568 c 0
 683 568 688 566 692 561 c 1
679 580 m 1
 676 580 666 578 649 573 c 0
 635 569 625 567 618 567 c 0
 609 567 601 570 596 575 c 1
 626 581 647 584 658 584 c 0
 667 584 674 583 679 580 c 1
700 543 m 1
 685 534 670 529 654 529 c 0
 649 529 645 529 642 530 c 1
 642 540 l 1
 672 545 l 2
 684 547 693 546 700 543 c 1
656 632 m 1
 651 631 633 626 604 615 c 0
 583 608 566 604 551 604 c 0
 540 604 530 606 521 611 c 1
 535 610 555 614 581 622 c 128
 607 630 626 634 637 634 c 0
 644 634 650 633 656 632 c 1
644 653 m 1
 563 631 507 621 478 624 c 1
 478 628 l 1
 492 629 516 635 549 644 c 0
 579 652 602 656 618 656 c 0
 627 656 636 655 644 653 c 1
623 669 m 1
 568 655 497 641 408 628 c 0
 302 612 230 600 191 591 c 1
 191 597 l 1
 393 642 537 666 623 669 c 1
481 664 m 1
 236 624 l 1
 267 640 307 651 356 657 c 0
 383 660 424 663 481 664 c 1
687 242 m 0
 688 241 687 239 685 237 c 2
 677 237 l 1
 676 240 680 242 687 242 c 0
706 218 m 1
 692 221 681 222 673 221 c 1
 676 226 682 228 689 228 c 1
 689 228 l 1
 697 228 703 230 706 235 c 1
 705 233 705 231 705 230 c 0
 705 227 706 224 708 219 c 128
 710 214 712 211 712 208 c 0
 712 204 709 201 704 199 c 0
 697 199 690 199 683 200 c 0
 674 199 668 196 666 189 c 1
 700 185 l 1
 694 180 683 176 668 173 c 0
 661 172 650 171 633 170 c 1
 634 177 639 181 648 182 c 128
 657 183 662 185 665 189 c 1
 658 194 657 200 658 208 c 1
 665 208 673 208 684 207 c 256
 695 206 702 210 706 218 c 1
287 584 m 1
 234 571 194 562 167 557 c 1
 189 577 221 587 263 587 c 0
 272 587 280 586 287 584 c 1
255 557 m 1
 220 538 190 528 166 528 c 0
 157 528 149 529 142 532 c 1
 155 540 173 546 197 549 c 0
 232 554 252 556 255 557 c 1
234 519 m 1
 223 520 208 517 188 512 c 128
 168 507 152 504 143 504 c 0
 136 504 129 505 124 508 c 1
 134 509 149 512 169 517 c 128
 189 522 203 525 211 525 c 0
 220 525 228 523 234 519 c 1
228 500 m 1
 195 482 154 471 105 467 c 1
 132 490 173 501 228 500 c 1
220 465 m 1
 157 454 115 445 92 440 c 1
 119 459 153 469 194 469 c 0
 205 469 213 468 220 465 c 1
215 438 m 1
 173 429 131 424 88 423 c 1
 123 437 154 444 181 444 c 0
 194 444 205 442 215 438 c 1
685 162 m 1
 686 159 684 156 679 151 c 1
 673 152 669 150 666 145 c 0
 667 143 668 141 668 139 c 0
 668 136 666 134 663 132 c 0
 654 132 648 130 647 127 c 0
 648 119 640 111 623 103 c 1
 501 79 l 2
 455 70 416 60 384 49 c 1
 415 50 452 55 497 65 c 0
 564 80 601 88 610 89 c 1
 608 81 599 76 584 74 c 0
 565 71 554 68 550 65 c 1
 552 62 555 62 560 63 c 128
 565 64 568 64 569 62 c 0
 570 55 568 51 561 50 c 0
 552 48 546 46 545 43 c 1
 510 43 l 1
 527 52 539 58 548 60 c 1
 537 59 510 54 468 45 c 0
 433 38 405 34 385 34 c 0
 376 34 368 35 360 36 c 1
 375 43 383 46 384 47 c 1
 378 48 372 49 366 49 c 0
 359 49 349 47 336 44 c 128
 323 41 313 40 306 40 c 0
 299 40 292 41 285 43 c 0
 285 45 284 47 282 49 c 1
 306 59 348 67 408 73 c 0
 463 78 504 88 531 103 c 1
 562 101 596 107 633 122 c 1
 622 123 608 122 589 119 c 0
 561 114 546 111 543 110 c 1
 543 122 l 1
 592 132 631 140 658 145 c 1
 653 149 648 151 642 151 c 0
 639 151 634 150 626 149 c 128
 618 148 613 147 610 148 c 1
 623 157 648 162 685 162 c 1
213 406 m 1
 196 406 174 403 147 396 c 0
 115 388 93 383 81 382 c 0
 80 384 79 386 79 387 c 0
 79 395 86 401 100 406 c 0
 103 405 107 405 112 405 c 0
 120 405 132 407 148 411 c 128
 164 415 177 417 185 417 c 0
 197 417 206 413 213 406 c 1
213 385 m 1
 179 368 143 360 104 360 c 0
 92 360 82 361 73 363 c 1
 84 364 103 369 130 377 c 0
 153 384 172 388 187 388 c 0
 196 388 204 387 213 385 c 1
220 358 m 1
 151 340 109 331 94 331 c 0
 87 331 80 332 73 333 c 1
 140 350 181 359 198 359 c 0
 206 359 213 359 220 358 c 1
461 10 m 1
 456 10 l 1
 456 14 l 1
 461 14 l 1
 461 10 l 1
226 331 m 1
 133 312 83 303 75 302 c 1
 102 322 144 332 201 332 c 0
 210 332 218 332 226 331 c 1
497 100 m 1
 383 79 297 65 239 57 c 1
 234 62 l 1
 341 91 412 105 447 105 c 0
 464 105 481 103 497 100 c 1
234 304 m 1
 197 295 169 289 151 284 c 0
 119 277 93 275 73 277 c 1
 138 297 181 307 203 307 c 0
 214 307 225 306 234 304 c 1
239 266 m 1
 229 265 206 261 169 255 c 0
 140 250 116 247 98 247 c 0
 91 247 85 247 78 248 c 1
 142 268 183 278 201 278 c 0
 218 278 231 274 239 266 c 1
249 256 m 1
 212 234 170 223 124 223 c 0
 109 223 96 225 86 229 c 1
 103 230 130 235 166 243 c 128
 202 251 230 255 249 256 c 1
397 116 m 1
 314 95 261 85 236 85 c 0
 226 85 217 86 209 87 c 1
 226 89 258 94 305 103 c 0
 345 110 376 115 397 116 c 1
263 229 m 1
 249 228 222 222 181 211 c 0
 148 202 120 198 97 199 c 1
 156 222 211 232 263 229 c 1
366 132 m 1
 358 129 328 122 277 111 c 0
 242 103 213 98 188 97 c 1
 267 114 326 125 366 132 c 1
306 183 m 1
 227 170 169 161 132 154 c 1
 209 175 259 185 282 185 c 0
 291 185 299 184 306 183 c 1
352 145 m 1
 258 125 l 2
 219 116 187 113 164 114 c 1
 258 134 l 2
 295 142 327 146 352 145 c 1
282 210 m 1
 235 190 178 177 111 170 c 1
 111 171 110 172 107 175 c 128
 104 178 104 180 105 183 c 1
 123 183 149 188 183 198 c 128
 217 208 243 212 260 212 c 0
 267 212 275 211 282 210 c 1
330 162 m 1
 245 146 181 133 140 124 c 1
 137 129 135 134 134 137 c 1
 201 156 254 165 291 165 c 0
 305 165 318 164 330 162 c 1
EndSplineSet
Validated: 41
EndChar

StartChar: D
Encoding: 68 68 29
Width: 796
Flags: HW
LayerCount: 2
Back
Fore
SplineSet
729 471 m 0
 719 456 714 443 714 432 c 0
 714 426 716 420 719 414 c 1
 713 413 706 409 697 401 c 1
 679 370 663 337 648 303 c 0
 631 264 618 240 608 232 c 1
 607 225 600 212 588 196 c 128
 576 180 570 170 570 166 c 0
 570 161 573 157 579 154 c 1
 578 146 574 141 568 140 c 1
 569 143 569 144 566 145 c 0
 559 148 559 148 559 148 c 1
 552 141 549 135 549 128 c 0
 549 125 549 123 550 121 c 0
 548 113 540 99 526 79 c 128
 512 59 504 45 504 38 c 0
 504 35 504 33 505 31 c 1
 504 32 504 36 501 40 c 128
 498 44 497 48 497 51 c 2
 492 43 l 2
 491 44 489 46 488 51 c 128
 487 56 485 58 483 58 c 256
 481 58 479 57 477 55 c 0
 477 52 479 47 484 42 c 128
 489 37 492 33 492 31 c 0
 492 27 488 24 481 21 c 1
 472 26 461 28 450 28 c 0
 438.534672174 28 395.452368507 20 384 20 c 0
 378 20 373 20 370 21 c 2
 355 24 l 2
 353 23 345 23 330 22 c 0
 319 21 312 19 309 15 c 1
 296 14 275 15 248 19 c 1
 232 15 213 13 191 13 c 0
 177.251248715 13 135.798695534 15 122 15 c 0
 102 15 85 13 71 8 c 1
 71 9 69 11 66 13 c 128
 63 15 61 16 60 15 c 0
 58 10 55 8 50 8 c 2
 36 8 l 1
 27 24 22 42 22 62 c 0
 22 73 24 91 29 118 c 0
 33 142 34 161 33 175 c 1
 48 294 58 445 62 629 c 0
 61 631 61 634 60 638 c 0
 63 648 64 666 62 690 c 128
 60 714 60 729 65 735 c 0
 75 742 90 746 110 747 c 0
 121 747 138 747 160 746 c 0
 172 744 186 743 201 743 c 0
 237 743 266 748 288 758 c 1
 288 755 289 752 291 751 c 0
 370.114087598 775.864427531 440.577984581 774.232778877 554 780 c 1
 562 769 568 757 572 745 c 1
 575 748 577 750 576 751 c 2
 575 753 l 1
 583 753 l 1
 581 742 l 1
 604.231181915 733.288306782 684.493058512 642.311591118 726 599 c 0
 747 576 757 555 757 534 c 0
 757 504.60984847 749.739852303 502.109778455 729 471 c 0
258 -18 m 1
 257 -18 254 -19 248 -22 c 0
 245 -23 242 -22 240 -19 c 128
 238 -16 238 -13 238 -10 c 0
 238 -3 241 1 247 2 c 0
 251 1 254 -3 254 -8 c 128
 254 -13 255 -16 258 -18 c 1
557 738 m 1
 553 739 551 739 548 743 c 128
 545 747 544 749 543 749 c 0
 541 749 540 747 539 742 c 0
 541 739 547 738 557 738 c 1
588 661 m 1
 588 664 l 1
 586 664 l 1
 586 661 l 1
 588 661 l 1
511 723 m 1
 511 727 l 1
 508 727 l 1
 508 723 l 1
 511 723 l 1
411 750 m 1
 411 753 l 1
 408 753 l 1
 408 750 l 1
 411 750 l 1
632 536 m 1
 631 534 629 532 628 529 c 0
 627 527 627 525 630 523 c 1
 630 526 631 530 632 536 c 1
117 700 m 2
 117 707 l 1
 114 702 l 2
 115 701 116 700 117 700 c 2
612 503 m 1
 597.701280849 523.65370544 569.874778602 552.823678678 569.874778602 583.466812233 c 0
 569.874778602 584.642505521 569.915740527 585.820367372 570 587 c 1
 567 614 553 636 527 653 c 0
 514 662 489 674 450 689 c 0
 447 692 444 693 441 693 c 256
 438 693 436 691 435 686 c 1
 422 687 397 692 361 699 c 0
 330 706 306 709 287 709 c 0
 277 709 267 708 258 707 c 1
 248 712 236 714 221 714 c 0
 208.936964713 714 168.317045144 708.756275381 149.668623256 708.756275381 c 0
 147.434903183 708.756275381 145.51641706 708.831509216 144 709 c 0
 132 707 124 700 119 687 c 0
 118 683 115 671 111 651 c 1
 132 639 157 633 186 633 c 0
 199 633 212 634 226 636 c 0
 231 635 234 632 235 625 c 0
 236 616 236 610 237 609 c 0
 246 594 255 584 264 580 c 1
 253 569 247 552 247 529 c 0
 247 514 245 495 242 472 c 0
 239 455 238 406 239 327 c 0
 239 268 233 221 222 184 c 1
 197 191 174 194 155 194 c 0
 128 194 107 188 93 175 c 0
 93 174 93 170 94 163 c 0
 95 160 94 157 89 154 c 0
 87 151 86 148 86 145 c 0
 86 138 90 131 99 122 c 2
 117 104 l 1
 117 106 125 105 163 105 c 0
 176 105 186 102 193 95 c 1
 200 94 206 97 213 102 c 1
 218 101 224 100 231 100 c 256
 243.025244141 100 282.094615573 105 293 105 c 0
 310 105 322 101 331 92 c 1
 355 95 391 102 439 113 c 0
 442 112 445 112 448 112 c 0
 459 112 472 119 485 132 c 0
 502 149 514 159 519 162 c 0
 570 223 599 276 608 321 c 1
 612 374 614 418 614 453 c 0
 614 472 613 489 612 503 c 1
144 594 m 1
 144 596 l 1
 142 596 l 1
 142 594 l 1
 144 594 l 1
183 517 m 1
 183 520 l 1
 180 520 l 1
 180 517 l 1
 183 517 l 1
137 540 m 1
 137 542 l 1
 133 542 l 1
 133 540 l 1
 137 540 l 1
139 422 m 1
 139 425 l 1
 136 425 l 1
 136 422 l 1
 139 422 l 1
121 429 m 1
 121 431 l 1
 117 431 l 1
 117 429 l 1
 121 429 l 1
141 337 m 1
 141 341 l 1
 138 341 l 1
 138 337 l 1
 141 337 l 1
127 335 m 1
 127 339 l 1
 125 339 l 1
 125 335 l 1
 127 335 l 1
377 59 m 1
 372 63 l 2
 369 66 366 67 364 66 c 2
 364 59 l 1
 377 59 l 1
550 439 m 1
 544 428 537 404 529 366 c 0
 523 337 511 316 494 301 c 0
 493 299 493 297 493 295 c 0
 493 288.402719652 504 268.727285677 504 264 c 0
 504 258 499 253 488 250 c 1
 478 242 464 230 444 214 c 128
 424 198 405 191 388 191 c 0
 379 191 370 193 361 197 c 0
 357 197 349 198 337 201 c 128
 325 204 316 204 309 203 c 1
 312 215 314 229 314 244 c 0
 314 253 313 270 311 295 c 128
 309 320 309 337 310 347 c 0
 315 386 320 424 324 461 c 1
 318 469 315 485 315 509 c 1
 321 512 324 515 324 519 c 0
 324 521 323 524 321 529 c 0
 320 534 320 537 321 540 c 2
 309 550 l 1
 314 557 319 571 324 594 c 0
 329 615 330 628 339 631 c 1
 334 628 332 624 332 619 c 256
 332 614 334 608 337 601 c 0
 341 597 344 595 346 596 c 0
 349 600 351 606 352 615 c 128
 353 624 354 630 355 634 c 0
 357 635 360 634 364 632 c 128
 368 630 369 628 370 628 c 0
 372 628 374 629 375 631 c 1
 381 622 388 617 396 617 c 0
 400 617 404 618 408 620 c 0
 415 625 421 628 426 629 c 0
 483 614 514 582 519 534 c 1
 530 526 536 514 536 497 c 0
 536 490 534 477 530 456 c 0
 531 455 537 450 550 439 c 1
285 367 m 1
 282 367 l 1
 282 370 l 1
 285 370 l 1
 285 367 l 1
430 586 m 1
 430 589 l 1
 426 589 l 1
 426 586 l 1
 430 586 l 1
436 309 m 1
 436 312 l 1
 432 312 l 1
 432 309 l 1
 436 309 l 1
EndSplineSet
Validated: 524321
EndChar

StartChar: E
Encoding: 69 69 30
Width: 703
Flags: HW
LayerCount: 2
Back
Fore
SplineSet
647 491 m 1
 640 491 636 493 633 497 c 0
 632 502 634 508 637 515 c 1
 640 510 643 502 647 491 c 1
651 447 m 2
 649 446 647 447 645 449 c 2
 651 449 l 1
 651 447 l 2
647 385 m 2
 641 369 l 2
 638 362 633 359 628 358 c 0
 622 360 619 366 619 377 c 1
 623 374 627 373 631 373 c 0
 638 373 643 377 647 385 c 2
609 371 m 1
 605 369 l 1
 603 369 l 1
 609 371 l 1
591 377 m 1
 583 377 l 1
 583 379 l 1
 591 379 l 1
 591 377 l 1
290 675 m 1
 289 674 285 671 279 664 c 128
 273 657 267 654 262 655 c 0
 253 660 249 671 250 687 c 1
 255 688 261 686 268 681 c 128
 275 676 280 673 283 673 c 0
 285 673 287 674 290 675 c 1
505 393 m 1
 503 387 l 1
 499 391 l 1
 505 393 l 1
479 403 m 1
 477 399 l 1
 469 399 l 1
 479 403 l 1
457 427 m 1
 456 427 454 424 449 417 c 1
 442 417 438 418 437 419 c 0
 442 426 446 429 451 429 c 0
 453 429 455 428 457 427 c 1
486 378 m 1
 483 378 l 1
 483 383 l 1
 486 383 l 1
 486 378 l 1
409 331 m 256
 409 330 409 330 408 330 c 0
 404 330 402 330 402 331 c 0
 403 332 405 332 408 333 c 0
 409 332 409 332 409 331 c 256
379 313 m 0
 377 310 375 307 374 306 c 2
 376 312 l 2
 377 314 377 315 378 315 c 0
 379 314 379 314 379 313 c 0
117 575 m 1
 116 568 l 1
 109 573 l 1
 117 575 l 1
619 147 m 1
 581 125 l 2
 505 81 420 59 326 59 c 0
 263 59 203 70 146 91 c 1
 133 104 112 125 85 153 c 0
 62 177 47 202 39 229 c 0
 28 268 22 309 22 352 c 0
 22 370 23 388 25 407 c 0
 32 438 43 464 56 487 c 1
 56 486 58 485 61 485 c 0
 63 485 64 487 64 491 c 0
 64 493 63 494 61 494 c 1
 105 571 166 616 244 629 c 1
 277 646 317 654 366 652 c 0
 366 649 368 648 371 648 c 0
 373 648 374 649 374 652 c 2
 444 648 l 2
 471 647 494 647 513 649 c 1
 519 643 532 635 551 625 c 0
 567 616 577 608 581 599 c 0
 593 527 598 472 595 435 c 1
 502 482 433 506 387 506 c 0
 344 506 307 492 275 463 c 1
 272 456 268 449 263 442 c 0
 257 433 254 425 254 420 c 0
 254 415 255 411 258 407 c 0
 267 399 277 395 287 395 c 0
 293 395 299 396 305 399 c 0
 320 408 330 412 337 411 c 1
 338 401 341 385 348 364 c 128
 355 343 359 327 359 316 c 0
 359 303 355 292 347 281 c 1
 338 283 328 284 319 284 c 0
 309 284 298 283 287 280 c 1
 288 280 288 280 288 279 c 0
 288 277 287 276 285 276 c 256
 283 276 282 277 282 279 c 1
 282 278 281 278 279 278 c 0
 275 277 271 276 267 273 c 1
 281 238 319 219 381 217 c 1
 479 226 540 258 563 313 c 0
 562 318 564 323 568 328 c 128
 572 333 575 338 577 341 c 1
 610 322 627 290 627 245 c 0
 627 234 626 218 623 196 c 128
 620 174 619 158 619 147 c 1
373 289 m 0
 373 286 373 284 372 283 c 1
 371 284 371 286 370 289 c 0
 371 290 371 291 372 291 c 256
 373 291 373 290 373 289 c 0
101 559 m 1
 98 553 l 1
 94 559 l 1
 101 559 l 1
340 278 m 0
 339 277 338 277 337 277 c 0
 335 277 334 277 333 278 c 0
 334 279 335 280 337 280 c 256
 339 280 340 279 340 278 c 0
353 266 m 1
 352 264 350 263 347 263 c 0
 346 263 345 263 345 264 c 0
 346 265 346 265 347 265 c 0
 352 266 353 266 353 266 c 1
357 258 m 0
 356 256 354 255 353 254 c 2
 354 258 l 2
 354 259 354 259 355 259 c 0
 356 259 357 259 357 258 c 0
343 258 m 0
 342 257 341 256 340 256 c 0
 338 256 337 257 337 258 c 0
 337 260 338 261 340 261 c 256
 342 261 343 260 343 258 c 0
323 279 m 2
 315 279 l 2
 314 279 313 279 313 280 c 0
 314 281 314 281 315 281 c 0
 320 280 322 280 323 279 c 2
349 242 m 0
 348 241 348 241 347 241 c 0
 346 241 345 241 345 242 c 0
 346 243 346 244 347 244 c 0
 348 244 349 243 349 242 c 0
325 263 m 0
 325 262 324 262 323 262 c 0
 322 262 322 262 322 263 c 0
 322 264 322 265 323 265 c 0
 324 265 325 264 325 263 c 0
304 280 m 2
 303 280 303 280 303 281 c 2
 304 282 l 1
 304 280 l 2
311 274 m 0
 310 273 309 272 308 272 c 0
 306 272 305 273 305 274 c 256
 305 275 306 276 308 276 c 256
 310 276 311 275 311 274 c 0
328 256 m 0
 328 251 328 249 327 249 c 0
 326 250 326 253 326 256 c 0
 326 257 326 257 327 258 c 1
 328 257 328 257 328 256 c 0
340 242 m 0
 339 238 338 236 337 236 c 0
 336 237 336 239 335 242 c 0
 336 243 337 243 338 243 c 256
 339 243 340 243 340 242 c 0
299 271 m 2
 294 272 l 2
 293 272 293 272 293 273 c 256
 293 274 293 274 294 274 c 0
 297 273 298 272 299 271 c 2
78 136 m 1
 58 128 l 1
 61 147 l 1
 78 136 l 1
413 644 m 0
 412 646 411 647 409 647 c 256
 407 647 406 646 406 644 c 0
 407 643 408 642 409 642 c 0
 411 642 412 643 413 644 c 0
396 622 m 256
 396 624 394 625 390 625 c 256
 386 625 384 624 384 622 c 256
 384 620 386 619 390 619 c 256
 394 619 396 620 396 622 c 256
352 644 m 0
 352 646 351 647 350 647 c 0
 348 647 347 646 347 644 c 0
 347 643 348 642 350 642 c 0
 351 642 352 643 352 644 c 0
350 626 m 1
 350 631 l 1
 345 631 l 1
 345 626 l 1
 350 626 l 1
333 614 m 2
 323 614 l 1
 323 611 l 1
 328 611 332 612 333 614 c 2
301 639 m 1
 298 640 295 640 292 640 c 0
 291 640 290 640 289 639 c 0
 290 636 290 634 291 634 c 0
 294 634 298 636 301 639 c 1
303 630 m 1
 295 632 l 1
 295 625 l 1
 303 630 l 1
340 587 m 1
 340 592 l 1
 335 592 l 1
 335 587 l 1
 340 587 l 1
321 585 m 1
 321 589 l 1
 318 589 l 1
 318 585 l 1
 321 585 l 1
293 605 m 1
 293 610 l 1
 288 610 l 1
 288 605 l 1
 293 605 l 1
303 591 m 1
 301 600 l 1
 295 597 l 1
 303 591 l 1
308 581 m 256
 308 583 307 584 305 584 c 0
 304 584 303 583 303 581 c 256
 303 579 304 578 305 578 c 0
 307 578 308 579 308 581 c 256
282 607 m 1
 282 609 l 1
 274 609 l 1
 274 607 l 1
 282 607 l 1
255 620 m 1
 255 623 l 1
 252 623 l 1
 252 620 l 1
 255 620 l 1
262 607 m 0
 259 606 257 604 254 601 c 1
 260 601 l 1
 263 604 263 606 262 607 c 0
275 592 m 2
 266 592 l 1
 266 590 l 1
 271 590 274 591 275 592 c 2
246 609 m 1
 238 611 l 1
 240 603 l 1
 246 609 l 1
285 570 m 1
 282 566 l 1
 278 566 l 1
 283 557 l 1
 285 570 l 1
237 600 m 1
 237 603 l 1
 233 603 l 1
 233 600 l 1
 237 600 l 1
264 564 m 1
 264 567 l 1
 261 567 l 1
 261 564 l 1
 264 564 l 1
244 568 m 1
 244 578 l 1
 238 576 l 1
 244 568 l 1
225 586 m 1
 225 588 l 1
 217 588 l 1
 217 586 l 1
 225 586 l 1
198 599 m 1
 198 602 l 1
 195 602 l 1
 195 599 l 1
 198 599 l 1
205 586 m 0
 202 585 200 583 197 580 c 1
 203 580 l 2
 205 582 206 584 205 586 c 0
254 524 m 1
 244 523 l 1
 244 518 l 1
 248 518 l 1
 254 524 l 1
176 573 m 2
 167 573 l 1
 167 570 l 1
 172 570 175 571 176 573 c 2
183 546 m 1
 183 551 l 1
 178 551 l 1
 178 546 l 1
 183 546 l 1
567 159 m 1
 555 159 l 1
 555 155 l 1
 558 154 562 156 567 159 c 1
145 559 m 1
 139 556 l 1
 142 555 l 1
 145 559 l 1
135 564 m 0
 135 566 134 567 132 567 c 256
 130 567 129 566 129 564 c 0
 129 563 130 562 132 562 c 256
 134 562 135 563 135 564 c 0
154 522 m 2
 144 522 l 1
 144 520 l 1
 149 520 153 521 154 522 c 2
499 173 m 1
 493 173 l 1
 497 169 l 1
 499 173 l 1
136 532 m 0
 136 533 135 534 133 534 c 256
 131 534 130 533 130 532 c 0
 130 530 131 529 133 529 c 256
 135 529 136 530 136 532 c 0
161 495 m 1
 161 500 l 1
 156 500 l 1
 156 495 l 1
 161 495 l 1
143 508 m 1
 135 511 l 1
 136 503 l 1
 143 508 l 1
445 193 m 2
 445 195 l 1
 441 195 l 1
 441 193 l 2
 442 191 442 190 443 189 c 0
 444 190 445 191 445 193 c 2
300 337 m 1
 300 341 l 1
 291 337 l 1
 300 337 l 1
123 505 m 1
 122 511 l 1
 116 506 l 1
 123 505 l 1
112 515 m 256
 112 517 111 518 110 518 c 0
 108 518 107 517 107 515 c 256
 107 513 108 512 110 512 c 0
 111 512 112 513 112 515 c 256
122 499 m 1
 114 501 l 1
 114 494 l 1
 122 499 l 1
172 443 m 2
 163 443 l 1
 163 440 l 1
 168 440 171 441 172 443 c 2
122 485 m 1
 122 488 l 1
 114 488 l 1
 114 485 l 1
 122 485 l 1
143 459 m 1
 141 462 138 462 135 461 c 1
 137 459 l 1
 143 459 l 1
469 132 m 0
 469 133 468 134 466 134 c 256
 464 134 463 133 463 132 c 0
 463 130 464 129 466 129 c 256
 468 129 469 130 469 132 c 0
179 416 m 1
 179 420 l 1
 175 420 l 1
 175 416 l 1
 179 416 l 1
95 498 m 1
 95 502 l 1
 92 502 l 1
 92 498 l 1
 95 498 l 1
247 347 m 1
 247 349 l 1
 239 349 l 1
 239 347 l 1
 247 347 l 1
466 124 m 1
 466 127 l 1
 463 127 l 1
 463 124 l 1
 466 124 l 1
297 286 m 256
 297 287 296 287 295 288 c 0
 294 287 293 287 293 286 c 256
 293 285 294 285 295 285 c 256
 296 285 297 285 297 286 c 256
102 485 m 0
 99 485 97 483 94 480 c 1
 100 480 l 2
 103 482 103 484 102 485 c 0
101 476 m 1
 101 478 l 1
 93 478 l 1
 93 476 l 1
 101 476 l 1
417 155 m 2
 417 159 l 2
 416 160 416 160 415 161 c 0
 414 160 413 160 412 159 c 2
 412 155 l 2
 413 154 414 153 415 153 c 0
 416 153 416 154 417 155 c 2
136 437 m 2
 126 437 l 1
 126 435 l 1
 131 435 135 436 136 437 c 2
143 422 m 1
 141 429 l 1
 135 426 l 1
 143 422 l 1
74 489 m 1
 74 492 l 1
 71 492 l 1
 71 489 l 1
 74 489 l 1
122 436 m 1
 122 438 l 1
 114 438 l 1
 114 436 l 1
 122 436 l 1
143 410 m 1
 143 415 l 1
 138 415 l 1
 138 410 l 1
 143 410 l 1
107 451 m 2
 98 451 l 1
 98 449 l 1
 103 449 106 450 107 451 c 2
81 476 m 0
 78 476 75 474 73 470 c 1
 79 470 l 1
 81 473 82 475 81 476 c 0
416 137 m 0
 415 138 416 138 414 140 c 128
 413 141 412 141 411 141 c 0
 410 141 409 140 409 139 c 0
 408 138 408 137 409 134 c 0
 409 132 410 131 411 130 c 0
 412 131 413 132 414 133 c 128
 415 134 415 136 416 137 c 0
95 449 m 1
 95 452 l 1
 92 452 l 1
 92 449 l 1
 95 449 l 1
114 424 m 1
 114 429 l 1
 110 429 l 1
 110 424 l 1
 114 424 l 1
102 436 m 0
 99 435 97 433 94 430 c 1
 100 430 l 2
 102 432 103 434 102 436 c 0
80 449 m 0
 81 450 81 453 80 457 c 0
 79 458 78 458 75 458 c 0
 74 458 73 457 73 456 c 0
 76 452 78 450 80 449 c 0
64 461 m 1
 63 468 62 471 61 472 c 0
 58 470 56 467 55 464 c 0
 56 463 56 463 57 463 c 0
 64 462 64 461 64 461 c 1
104 423 m 1
 98 421 l 1
 103 419 l 1
 104 423 l 1
125 398 m 2
 116 398 l 1
 116 395 l 1
 121 395 124 396 125 398 c 2
61 449 m 1
 58 453 55 456 52 457 c 0
 51 457 51 456 51 455 c 0
 51 452 51 451 52 451 c 0
 55 450 58 450 61 449 c 1
255 259 m 1
 256 264 254 267 249 268 c 0
 243 269 240 267 239 263 c 0
 240 260 243 259 246 259 c 2
 255 259 l 1
76 437 m 1
 68 437 l 1
 72 432 l 1
 76 437 l 1
96 414 m 1
 88 416 l 1
 89 410 l 1
 96 414 l 1
105 402 m 0
 104 404 103 405 102 405 c 256
 101 405 100 404 100 402 c 0
 100 401 101 400 102 400 c 0
 104 400 105 401 105 402 c 0
132 371 m 1
 132 375 l 1
 128 375 l 1
 128 371 l 1
 132 371 l 1
141 356 m 1
 141 358 l 1
 133 358 l 1
 133 356 l 1
 141 356 l 1
145 352 m 2
 135 352 l 1
 135 350 l 1
 140 350 144 351 145 352 c 2
153 330 m 1
 153 335 l 1
 149 335 l 1
 149 330 l 1
 153 330 l 1
118 366 m 1
 114 372 l 1
 110 372 l 1
 110 369 l 1
 118 366 l 1
49 436 m 256
 49 438 48 439 47 439 c 0
 45 439 44 438 44 436 c 256
 44 434 45 433 47 433 c 0
 48 433 49 434 49 436 c 256
387 95 m 0
 388 96 388 96 388 97 c 0
 388 99 387 102 384 105 c 1
 375 97 l 2
 376 96 380 95 387 95 c 0
67 409 m 256
 67 411 66 412 64 412 c 256
 62 412 61 411 61 409 c 256
 61 407 62 406 64 406 c 256
 66 406 67 407 67 409 c 256
94 384 m 1
 88 381 l 1
 92 378 l 1
 94 384 l 1
121 356 m 0
 118 356 115 354 113 350 c 1
 119 350 l 1
 121 353 122 355 121 356 c 0
325 145 m 2
 325 147 l 2
 324 148 323 149 322 149 c 0
 321 149 320 148 319 147 c 2
 319 145 l 2
 320 144 321 144 322 144 c 256
 323 144 324 144 325 145 c 2
75 391 m 1
 75 393 l 1
 67 393 l 1
 67 391 l 1
 75 391 l 1
110 352 m 2
 100 352 l 1
 100 349 l 1
 105 349 109 350 110 352 c 2
40 421 m 0
 40 422 39 423 37 423 c 256
 35 423 34 422 34 421 c 0
 34 414 35 410 37 410 c 256
 39 410 40 414 40 421 c 0
115 343 m 1
 109 341 l 1
 113 339 l 1
 115 343 l 1
48 404 m 1
 48 407 l 1
 45 407 l 1
 45 404 l 1
 48 404 l 1
206 249 m 1
 202 249 l 1
 202 234 l 1
 206 234 l 1
 206 249 l 1
117 325 m 1
 117 329 l 1
 112 329 l 1
 112 325 l 1
 117 325 l 1
81 366 m 2
 72 366 l 1
 72 363 l 1
 77 363 80 364 81 366 c 2
55 391 m 0
 52 390 49 388 47 385 c 1
 53 385 l 2
 55 387 56 389 55 391 c 0
63 376 m 256
 63 377 62 378 61 379 c 0
 60 378 59 377 59 376 c 256
 59 375 60 374 61 374 c 256
 62 374 63 375 63 376 c 256
88 339 m 1
 88 344 l 1
 84 344 l 1
 84 339 l 1
 88 339 l 1
79 330 m 1
 78 340 l 1
 72 335 l 1
 79 330 l 1
99 312 m 2
 89 317 l 1
 90 310 l 1
 95 310 98 311 99 312 c 2
61 337 m 0
 61 339 60 340 59 340 c 0
 57 340 56 339 56 337 c 0
 56 336 57 335 59 335 c 0
 60 335 61 336 61 337 c 0
50 352 m 1
 38 348 l 1
 49 346 l 1
 50 352 l 1
106 285 m 1
 106 290 l 1
 102 290 l 1
 102 285 l 1
 106 285 l 1
48 339 m 256
 48 341 47 342 46 342 c 0
 44 342 43 341 43 339 c 256
 43 337 44 336 46 336 c 0
 47 336 48 337 48 339 c 256
115 271 m 1
 115 273 l 1
 104 276 l 1
 107 271 l 1
 115 271 l 1
140 237 m 1
 140 241 l 1
 135 241 l 1
 135 237 l 1
 140 237 l 1
65 313 m 0
 65 315 64 316 62 316 c 256
 60 316 59 315 59 313 c 0
 59 312 60 311 62 311 c 256
 64 311 65 312 65 313 c 0
90 280 m 1
 88 287 l 1
 85 287 l 1
 85 284 l 1
 90 280 l 1
117 256 m 0
 117 258 116 259 114 259 c 256
 112 259 111 258 111 256 c 0
 111 255 112 254 114 254 c 256
 116 254 117 255 117 256 c 0
68 298 m 1
 62 296 l 1
 66 293 l 1
 68 298 l 1
95 271 m 0
 92 270 89 268 87 265 c 1
 93 265 l 1
 95 268 96 270 95 271 c 0
122 224 m 2
 113 224 l 1
 113 222 l 1
 118 222 121 223 122 224 c 2
66 270 m 256
 66 272 65 273 64 273 c 0
 62 273 61 272 61 270 c 256
 61 268 62 267 64 267 c 0
 65 267 66 268 66 270 c 256
93 241 m 2
 92 243 91 244 89 244 c 0
 88 244 86 244 85 243 c 2
 87 241 l 1
 93 241 l 2
132 201 m 1
 129 197 l 1
 125 197 l 1
 130 189 l 1
 132 201 l 1
88 227 m 1
 84 235 l 1
 80 235 l 1
 78 230 l 1
 88 227 l 1
114 204 m 1
 107 203 l 1
 104 192 l 1
 111 196 l 1
 114 204 l 1
91 221 m 1
 81 220 l 1
 85 214 l 1
 88 214 l 1
 91 221 l 1
121 189 m 1
 115 189 l 1
 114 182 l 1
 121 189 l 1
91 210 m 1
 85 208 l 1
 88 206 l 1
 91 210 l 1
72 218 m 1
 72 220 l 1
 64 220 l 1
 64 218 l 1
 72 218 l 1
EndSplineSet
Validated: 33
EndChar

StartChar: F
Encoding: 70 70 31
Width: 816
Flags: HW
LayerCount: 2
Back
Fore
SplineSet
728 777 m 1
 725 774 716 774 703 776 c 0
 693 777 686 773 683 764 c 1
 678 769 676 774 677 777 c 0
 694 789 707 794 715 792 c 0
 719 789 723 784 728 777 c 1
761 707 m 1
 756 703 754 699 754 695 c 0
 754 690 759 683 768 673 c 128
 777 663 781 656 781 653 c 0
 781 648 777 643 770 639 c 1
 771 607 768 581 761 561 c 1
 754 559 750 551 748 538 c 128
 746 525 740 518 733 516 c 1
 732 521 731 526 731 531 c 0
 731 540 734 554 742 572 c 128
 750 590 754 602 754 611 c 0
 754 619 752 626 748 633 c 1
 755 640 759 648 759 658 c 0
 759 665 757 676 753 690 c 128
 749 704 747 714 747 721 c 256
 747 728 749 735 752 740 c 1
 737 747 l 2
 738 748 739 749 740 749 c 256
 741 749 743 749 744 748 c 0
 748 746 751 747 752 752 c 1
 745 759 741 763 740 764 c 0
 741 766 747 767 756 767 c 1
 762 760 765 751 765 741 c 1
 765 746 764 734 761 707 c 1
652 781 m 1
 628 770 590 759 536 749 c 128
 482 739 442 727 417 712 c 1
 447 736 486 753 533 762 c 0
 559 766 599 772 652 781 c 1
505 727 m 1
 499 721 l 1
 496 723 l 1
 505 727 l 1
746 459 m 1
 743 443 739 427 735 412 c 0
 730 393 724 379 716 368 c 1
 715 375 714 383 714 391 c 0
 714 414 720 437 733 459 c 1
 746 459 l 1
406 714 m 1
 403 704 394 698 379 697 c 0
 376 696 374 696 372 696 c 0
 364 696 360 700 360 707 c 0
 360 708 360 710 361 712 c 0
 366 715 370 717 375 717 c 0
 377 717 382 716 390 715 c 0
 396 713 401 713 406 714 c 1
716 327 m 1
 703 316 697 302 697 284 c 0
 697 279 697 272 698 264 c 128
 699 256 700 250 700 245 c 0
 700 230 692 220 677 215 c 1
 680 220 683 240 687 277 c 0
 690 306 700 322 716 327 c 1
280 690 m 1
 278 686 274 683 266 682 c 128
 258 681 253 679 252 678 c 1
 251 680 250 682 250 684 c 0
 250 688 258 692 273 697 c 1
 280 690 l 1
226 673 m 1
 217 671 205 669 188 660 c 128
 171 651 159 647 152 647 c 0
 145 647 140 649 135 654 c 1
 147 669 165 676 188 676 c 0
 191 676 203 675 226 673 c 1
684 73 m 1
 679 73 l 1
 679 76 l 1
 684 76 l 1
 684 73 l 1
679 35 m 1
 680 31 680 26 677 20 c 0
 674 20 673 22 673 26 c 2
 673 35 l 1
 679 35 l 1
679 420 m 1
 643 413 l 2
 636 410 629 409 623 409 c 0
 611 409 596 418 576 435 c 128
 556 452 539 460 526 459 c 1
 507 480 479 490 443 490 c 0
 436 490 430 490 424 489 c 1
 411 480 403 463 401 437 c 0
 398 409 393 391 385 383 c 1
 387 382 389 382 392 382 c 0
 399 382 409 394 424 417 c 1
 424 438 l 2
 425 446 430 449 439 447 c 1
 441 450 442 451 441 452 c 2
 436 459 l 1
 452 453 476 443 508 430 c 0
 535 418 549 399 550 372 c 0
 549 368 549 364 549 359 c 0
 549 348 552 332 560 311 c 128
 568 290 572 273 572 262 c 0
 572 247 567 234 557 222 c 1
 553 210 536 200 506 193 c 128
 476 186 462 179 462 173 c 0
 462 166 471 155 490 140 c 1
 503 136 503 136 529 128 c 0
 544 123 552 113 553 98 c 0
 555 67 548 39 531 16 c 1
 518 7 503 2 485 2 c 0
 468 2 442 8 406 20 c 1
 402 3 389 -12 368 -24 c 0
 339 -40 323 -50 318 -53 c 1
 295 -54 276 -50 261 -40 c 0
 234 -22 220 3 220 35 c 0
 220 45 221 60 224 80 c 128
 227 100 229 116 229 126 c 0
 229 134 228 144 226 155 c 0
 220 191 211 245 198 317 c 0
 187 379 169 430 144 471 c 1
 147 482 138 495 118 512 c 128
 98 529 88 540 88 544 c 0
 88 553 100 559 123 564 c 0
 135 566 153 569 176 573 c 0
 197 578 210 589 216 607 c 1
 231 604 247 602 262 602 c 0
 315 602 361 616 402 645 c 1
 415 638 427 635 439 635 c 0
 453 635 470 640 490 651 c 0
 516 665 533 673 542 675 c 1
 555 668 573 657 598 642 c 0
 619 629 629 612 629 592 c 0
 629 588 629 584 628 579 c 1
 639 562 648 536 655 501 c 0
 664 462 672 435 679 420 c 1
95 630 m 1
 43 589 l 2
 25 573 20 561 20 549 c 1
 18 553 20 558 16 565 c 128
 12 572 11 576 11 578 c 0
 11 581 13 585 18 588 c 0
 27 590 39 599 56 614 c 0
 71 627 84 633 95 630 c 1
664 61 m 1
 664 20 664 -7 663 -18 c 0
 661 -49 649 -71 628 -85 c 1
 610 -85 l 1
 612 -80 616 -77 622 -74 c 0
 624 -73 628 -70 634 -64 c 1
 625 -51 621 -42 621 -37 c 0
 621 -29 626 -25 637 -25 c 1
 641 -29 l 1
 646 -21 649 -11 649 2 c 2
 649 25 l 2
 649 41 654 53 664 61 c 1
50 531 m 0
 53 527 54 521 53 514 c 0
 53 506 50 502 45 502 c 0
 38 502 35 506 35 513 c 2
 35 525 l 1
 44 530 49 532 50 531 c 0
75 467 m 1
 71 466 69 463 69 460 c 0
 69 458 70 455 72 452 c 128
 74 449 74 446 74 444 c 0
 74 440 71 438 65 437 c 1
 66 442 62 448 54 457 c 128
 46 466 43 472 43 476 c 256
 43 480 45 484 50 489 c 1
 75 467 l 1
580 -85 m 0
 577 -84 575 -84 573 -84 c 0
 569 -84 563 -85 556 -88 c 128
 549 -91 544 -93 540 -93 c 0
 537 -93 534 -93 531 -92 c 1
 550 -77 562 -69 568 -69 c 0
 571 -69 574 -69 577 -70 c 0
 580 -73 582 -76 582 -79 c 0
 582 -82 581 -84 580 -85 c 0
108 338 m 1
 101 334 97 332 95 332 c 2
 65 422 l 1
 78 422 87 411 92 390 c 0
 99 360 105 343 108 338 c 1
120 287 m 0
 121 286 119 283 114 276 c 1
 105 278 100 284 99 293 c 2
 99 293 99 293 99 317 c 0
 101 318 103 319 105 319 c 0
 108 319 111 314 114 304 c 128
 117 294 119 288 120 287 c 0
516 -83 m 1
 506 -94 490 -99 467 -99 c 0
 449 -99 432 -96 417 -89 c 1
 409 -79 l 1
 430 -82 465 -83 516 -83 c 1
129 179 m 1
 122 186 119 196 119 208 c 2
 119 220 l 2
 120 225 120 229 120 232 c 0
 120 242 118 250 114 257 c 1
 116 257 118 258 120 261 c 1
 126 255 129 249 129 242 c 0
 128 238 129 230 132 219 c 0
 136 206 138 197 138 194 c 0
 138 187 135 182 129 179 c 1
68 274 m 1
 63 274 l 1
 63 278 l 1
 68 278 l 1
 68 274 l 1
39 272 m 0
 36 272 34 273 33 276 c 0
 31 279 33 283 39 287 c 0
 41 286 42 283 42 280 c 256
 42 277 41 274 39 272 c 0
49 232 m 1
 45 232 l 1
 45 237 l 1
 49 237 l 1
 49 232 l 1
402 -89 m 1
 387 -97 369 -101 346 -101 c 0
 317 -101 297 -97 286 -89 c 1
 305 -84 324 -81 343 -81 c 256
 362 -81 382 -84 402 -89 c 1
147 104 m 1
 144 105 140 109 135 116 c 0
 136 118 137 120 137 122 c 256
 137 124 135 128 130 135 c 128
 125 142 122 147 123 151 c 1
 120 150 114 146 103 140 c 0
 96 135 89 132 83 132 c 0
 79 132 75 133 71 136 c 1
 76 139 87 147 105 158 c 0
 119 167 131 171 140 170 c 1
 139 167 139 164 139 160 c 0
 139 155 141 146 144 136 c 128
 147 126 149 119 149 114 c 0
 149 110 148 107 147 104 c 1
153 59 m 1
 147 59 l 1
 153 65 l 1
 153 59 l 1
177 14 m 1
 178 9 176 4 170 2 c 128
 164 0 160 -2 159 -4 c 1
 154 -2 152 2 153 8 c 2
 153 22 l 2
 154 23 157 24 162 26 c 1
 163 23 168 19 177 14 c 1
273 -92 m 0
 274 -97 271 -101 265 -102 c 0
 256 -105 250 -107 249 -107 c 0
 244 -104 242 -99 243 -92 c 0
 246 -88 249 -86 252 -86 c 0
 254 -86 257 -87 262 -89 c 128
 267 -91 271 -92 273 -92 c 0
211 -79 m 1
 204 -79 194 -78 181 -77 c 1
 166 -56 158 -40 158 -30 c 0
 158 -25 159 -21 162 -16 c 1
 167 -17 170 -23 172 -34 c 128
 174 -45 179 -52 186 -53 c 1
 183 -55 l 1
 185 -57 191 -60 202 -62 c 128
 213 -64 219 -66 219 -69 c 256
 219 -72 216 -75 211 -79 c 1
471 600 m 1
 471 603 l 1
 463 600 l 1
 471 600 l 1
471 579 m 1
 471 583 l 1
 463 579 l 1
 471 579 l 1
455 578 m 1
 455 583 l 1
 451 583 l 1
 451 578 l 1
 455 578 l 1
440 580 m 1
 440 585 l 1
 436 585 l 1
 436 580 l 1
 440 580 l 1
402 622 m 1
 402 628 l 1
 382 619 351 608 310 594 c 1
 333 592 350 596 361 607 c 1
 394 609 l 1
 391 615 l 1
 394 620 398 623 402 622 c 1
568 492 m 0
 569 487 567 484 562 483 c 128
 557 482 552 482 547 482 c 0
 515 487 493 504 481 534 c 1
 458 548 433 555 404 555 c 0
 375 555 350 547 331 531 c 1
 321 517 316 501 316 483 c 0
 316 474 318 459 322 438 c 128
 326 417 328 401 327 390 c 0
 329 389 332 385 337 378 c 128
 342 371 346 368 349 368 c 0
 352 368 354 369 357 372 c 1
 339 394 330 425 330 465 c 0
 330 489 334 509 342 525 c 1
 359 536 377 542 396 542 c 0
 415 542 440 533 469 516 c 0
 476 511 498 496 535 471 c 1
 549 466 560 464 567 464 c 0
 578 464 583 468 583 477 c 0
 583 482 579 494 572 512 c 128
 565 530 563 542 565 549 c 1
 568 549 l 1
 567 557 563 569 556 586 c 128
 549 603 546 615 546 623 c 256
 546 631 548 639 553 648 c 1
 547 655 540 658 533 658 c 0
 528 658 520 655 509 649 c 128
 498 643 491 640 486 639 c 1
 490 636 494 635 498 635 c 256
 502 635 507 637 514 640 c 128
 521 643 527 644 530 644 c 0
 533 644 535 644 538 643 c 0
 539 640 539 634 539 624 c 0
 539 615 536 609 529 607 c 1
 537 598 543 579 548 551 c 128
 553 523 560 503 568 492 c 0
286 588 m 1
 286 591 l 1
 271 591 l 1
 271 588 l 1
 286 588 l 1
258 588 m 1
 258 591 l 1
 252 588 l 1
 258 588 l 1
282 558 m 2
 276 555 l 1
 280 553 l 1
 282 555 283 557 282 558 c 2
231 588 m 1
 226 591 l 2
 225 590 222 589 218 588 c 128
 214 587 212 586 213 583 c 0
 224 581 230 583 231 588 c 1
249 543 m 1
 249 550 247 553 243 553 c 1
 243 543 l 1
 249 543 l 1
290 490 m 1
 290 495 l 1
 286 495 l 1
 286 490 l 1
 290 490 l 1
213 570 m 1
 211 573 208 574 204 573 c 0
 201 572 199 570 198 568 c 2
 201 564 l 2
 206 562 210 564 213 570 c 1
295 467 m 1
 295 474 l 1
 286 474 l 1
 286 467 l 1
 295 467 l 1
226 543 m 2
 213 546 l 2
 212 544 212 542 212 540 c 0
 212 536 214 533 219 531 c 0
 222 532 223 534 223 537 c 128
 223 540 224 542 226 543 c 2
192 564 m 1
 191 566 188 566 185 565 c 0
 182 564 181 563 181 561 c 0
 184 560 187 561 192 564 c 1
227 518 m 1
 227 523 l 1
 222 523 l 1
 222 518 l 1
 227 518 l 1
302 430 m 1
 302 435 l 1
 297 435 l 1
 297 430 l 1
 302 430 l 1
165 555 m 1
 165 558 l 1
 159 558 l 1
 159 555 l 1
 165 555 l 1
258 441 m 1
 249 441 l 1
 249 435 l 1
 252 432 254 431 256 432 c 0
 257 433 258 436 258 441 c 1
261 417 m 1
 261 420 l 1
 256 420 l 1
 256 417 l 1
 261 417 l 1
276 402 m 1
 277 405 276 408 275 409 c 0
 273 410 271 410 268 409 c 0
 265 408 264 406 264 405 c 0
 265 403 269 402 276 402 c 1
135 523 m 1
 123 538 l 2
 120 538 117 537 114 534 c 1
 117 531 l 2
 118 527 120 524 124 522 c 0
 129 519 132 520 135 523 c 1
147 507 m 2
 138 507 l 1
 138 504 l 2
 140 501 142 500 144 501 c 0
 147 504 148 506 147 507 c 2
256 396 m 1
 249 402 l 1
 246 399 244 398 243 398 c 1
 243 393 244 391 246 390 c 2
 256 396 l 1
154 490 m 1
 154 495 l 1
 150 495 l 1
 150 490 l 1
 154 490 l 1
170 477 m 1
 155 477 l 1
 162 467 l 1
 167 470 169 473 170 477 c 1
267 375 m 1
 243 372 l 1
 252 362 l 1
 267 375 l 1
186 422 m 1
 182 441 177 450 170 450 c 1
 173 448 174 444 174 438 c 0
 173 431 173 427 174 425 c 0
 175 422 179 421 186 422 c 1
192 398 m 1
 192 405 l 1
 186 405 l 1
 186 398 l 1
 192 398 l 1
458 416 m 1
 461 421 464 426 469 432 c 1
 468 433 465 435 462 439 c 128
 459 443 455 445 452 445 c 0
 451 445 449 445 447 444 c 1
 452 434 456 425 458 416 c 1
454 382 m 1
 429 372 389 363 337 356 c 0
 278 348 236 340 213 332 c 1
 209 347 l 2
 206 354 206 359 207 362 c 1
 204 364 202 370 201 378 c 128
 200 386 199 390 197 390 c 256
 195 390 192 389 189 387 c 1
 228 265 248 173 248 112 c 0
 248 84 246 56 241 29 c 1
 242 31 244 32 246 32 c 256
 248 32 252 29 258 22 c 1
 261 26 l 1
 271 16 l 2
 276 13 280 12 284 12 c 0
 289 12 295 16 302 24 c 128
 309 32 314 38 318 41 c 1
 316 44 l 1
 324 46 330 53 334 66 c 128
 338 79 343 87 346 89 c 1
 360 68 380 57 406 57 c 0
 434 57 455 73 469 104 c 1
 464 119 459 127 454 127 c 0
 452 127 450 126 447 125 c 0
 422 126 403 136 391 157 c 0
 382 172 376 195 371 226 c 0
 366 261 360 284 355 297 c 1
 370 302 383 304 393 304 c 0
 408 304 421 300 430 291 c 0
 433 287 436 281 436 272 c 128
 436 263 437 257 439 254 c 1
 458 254 470 256 475 261 c 0
 490 276 497 291 497 305 c 0
 497 315 489 330 474 350 c 128
 464 363 458 373 454 382 c 1
396 347 m 0
 401 344 402 340 401 336 c 0
 400 331 396 329 391 329 c 1
 386 335 384 339 385 342 c 0
 391 346 395 348 396 347 c 0
312 329 m 1
 317 317 319 308 319 302 c 0
 319 292 315 284 306 278 c 1
 299 277 289 277 276 276 c 1
 262 288 255 297 255 303 c 0
 255 307 257 311 261 314 c 0
 268 326 279 332 295 332 c 0
 301 332 307 331 312 329 c 1
336 215 m 0
 339 203 333 193 318 185 c 0
 315 184 312 184 309 184 c 0
 296 184 288 192 286 209 c 0
 285 213 287 216 291 219 c 128
 295 222 298 224 302 227 c 128
 306 230 309 231 312 231 c 256
 315 231 319 229 325 224 c 128
 331 219 335 216 336 215 c 0
344 134 m 0
 344 123 340 118 331 118 c 0
 328 118 324 119 321 121 c 2
 316 131 l 1
 323 139 329 143 334 143 c 0
 341 143 344 140 344 134 c 0
EndSplineSet
Validated: 33
EndChar

StartChar: G
Encoding: 71 71 32
Width: 877
Flags: HW
LayerCount: 2
Back
Fore
SplineSet
814 635 m 2
 814 609 l 2
 814 588 808 572 796 561 c 1
 780 579 772 596 772 613 c 0
 772 624 777 639 788 658 c 128
 799 677 804 691 804 700 c 0
 804 713 798 726 786 739 c 1
 770 744 752 746 731 746 c 0
 713 746 686 744 651 738 c 128
 616 732 589 729 572 729 c 0
 552 729 539 734 533 743 c 1
 640 760 723 768 781 768 c 0
 797 768 813 768 828 767 c 1
 834 725 837 707 837 712 c 1
 837 701 834 689 826 676 c 128
 818 663 814 650 814 635 c 2
784 348 m 1
 781 348 778 346 776 342 c 1
 775 347 772 362 765 387 c 0
 760 404 758 419 758 432 c 0
 758 448 762 462 770 475 c 1
 781 436 787 402 787 375 c 0
 787 364 786 355 784 348 c 1
746 326 m 1
 748 321 745 315 736 306 c 1
 723 304 713 309 704 320 c 1
 707 327 714 330 724 330 c 0
 730 330 737 329 746 326 c 1
752 555 m 1
 735 532 720 495 705 443 c 0
 691 394 676 361 660 344 c 1
 665 448 625 522 541 565 c 1
 530 566 510 572 483 581 c 0
 459 590 440 594 425 594 c 256
 410 594 396 590 383 583 c 0
 340 550 307 510 282 464 c 0
 255 415 242 364 242 313 c 0
 242 282 247 251 257 220 c 1
 277 206 l 1
 304 135 352 97 421 90 c 0
 460 86 483 97 489 124 c 0
 490 129 494 138 501 152 c 128
 508 166 512 177 512 186 c 0
 512 193 510 199 507 206 c 1
 514 211 518 219 518 230 c 0
 518 235 518 242 516 251 c 128
 514 260 513 267 513 272 c 0
 510 280 500 289 485 298 c 128
 470 307 461 315 459 320 c 1
 587 287 l 2
 637 273 675 259 706 244 c 1
 674 236 658 231 654 230 c 0
 634 222 621 209 616 190 c 1
 606 171 601 149 601 122 c 0
 601 115 601 107 602 100 c 1
 613 100 613 100 624 100 c 0
 633 100 638 97 640 90 c 1
 598 47 543 25 474 25 c 0
 407 25 325 47 229 90 c 1
 156 151 119 234 119 339 c 0
 119 371 123 404 130 439 c 1
 167 493 l 1
 161 497 l 1
 189 541 226 574 272 598 c 128
 318 622 367 634 420 634 c 0
 443 634 466 632 489 627 c 1
 519 630 559 618 608 590 c 0
 660 561 696 547 715 547 c 0
 728 547 740 550 752 555 c 1
279 749 m 1
 251 741 209 728 152 709 c 0
 101 690 76 659 78 615 c 0
 79 604 82 591 88 575 c 1
 77 550 68 513 61 466 c 0
 52 411 45 375 40 356 c 1
 29 361 24 370 24 383 c 0
 24 389 26 399 29 412 c 128
 32 425 34 435 34 441 c 1
 45 455 50 474 49 499 c 0
 48 528 50 547 54 557 c 0
 57 564 58 586 59 623 c 0
 59 652 62 672 69 685 c 0
 78 704 95 714 120 715 c 1
 158 744 196 759 234 759 c 0
 251 759 266 756 279 749 c 1
734 242 m 1
 731 227 725 170 717 73 c 0
 712 10 697 -41 672 -79 c 1
 594 -79 548 -80 533 -83 c 1
 526 -72 513 -67 494 -70 c 0
 471 -73 457 -73 451 -69 c 1
 451 -55 462 -48 485 -48 c 0
 490 -48 509 -50 543 -55 c 1
 549 -50 558 -47 569 -47 c 0
 578 -47 590 -50 608 -54 c 128
 626 -58 639 -60 648 -60 c 0
 672 -60 685 -44 686 -12 c 1
 693 6 696 23 696 40 c 0
 696 50 695 64 692 84 c 128
 689 104 688 119 688 129 c 0
 688 164 695 205 710 252 c 0
 712 255 715 257 718 257 c 0
 727 257 732 252 734 242 c 1
531 -43 m 1
 521 -43 l 1
 531 -40 l 1
 531 -43 l 1
433 -55 m 1
 429 -59 426 -60 423 -59 c 1
 423 -45 l 1
 433 -55 l 1
391 -57 m 1
 389 -59 387 -61 385 -63 c 1
 313 -45 l 1
 318 -39 326 -36 337 -36 c 256
 348 -36 367 -40 393 -48 c 1
 401 -48 407 -51 411 -57 c 1
 391 -57 l 1
38 258 m 1
 36 255 35 251 35 248 c 0
 35 244 36 238 40 230 c 128
 44 222 46 216 46 213 c 0
 46 206 41 199 32 194 c 1
 22 194 l 1
 18 216 16 228 16 231 c 0
 16 244 21 253 32 258 c 1
 38 258 l 1
277 -10 m 1
 272 -12 267 -13 261 -13 c 0
 252 -13 241 -11 229 -6 c 1
 232 -3 236 -1 241 -1 c 0
 244 -1 250 -3 258 -6 c 128
 266 -9 273 -10 277 -10 c 1
269 -22 m 1
 262 -25 254 -26 246 -26 c 0
 230 -26 210 -19 185 -5 c 0
 153 13 133 23 126 26 c 1
 126 40 l 1
 143 41 166 31 197 12 c 0
 230 -9 254 -20 269 -22 c 1
359 -43 m 1
 359 -40 l 1
 325 -40 l 1
 325 -43 l 1
 359 -43 l 1
EndSplineSet
Validated: 33
EndChar

StartChar: H
Encoding: 72 72 33
Width: 930
Flags: HWO
LayerCount: 2
Back
Fore
SplineSet
845 692 m 1
 832 695 817 697 784 699 c 0
 758 701 739 707 726 716 c 1
 743 718 764 715 787 707 c 0
 814 698 834 696 845 692 c 1
695 721 m 1
 693 718 l 1
 689 721 l 1
 695 721 l 1
683 721 m 1
 669 721 l 1
 669 724 l 1
 683 724 l 1
 683 721 l 1
610 737 m 1
 606 737 l 1
 606 741 l 1
 610 741 l 1
 610 737 l 1
502 755 m 1
 501 756 499 757 498 757 c 256
 497 757 494 756 490 755 c 128
 486 754 484 753 483 753 c 0
 480 753 478 756 479 762 c 1
 492 762 499 760 502 755 c 1
788 438 m 2
 782 438 l 1
 782 447 l 2
 783 448 784 448 785 448 c 256
 786 448 788 448 789 446 c 128
 790 444 791 443 791 442 c 0
 790 440 789 439 788 438 c 2
870 646 m 1
 835 489 811 336 796 187 c 0
 793 184 790 175 787 159 c 128
 784 143 780 135 775 135 c 0
 772 135 769 136 765 139 c 1
 780 174 790 226 797 295 c 0
 804 369 813 421 822 450 c 1
 823 491 839 556 870 646 c 1
894 298 m 1
 888 288 l 1
 885 293 881 295 874 294 c 1
 877 301 881 304 887 304 c 0
 890 304 893 302 894 298 c 1
433 753 m 1
 427 747 l 1
 424 749 l 1
 433 753 l 1
530 663 m 2
 530 661 528 658 524 654 c 128
 520 650 518 648 518 645 c 0
 518 644 519 642 520 640 c 2
 514 640 l 1
 513 644 514 648 518 652 c 128
 522 656 523 660 522 663 c 1
 530 663 l 2
386 790 m 1
 380 786 371 784 360 784 c 0
 351 784 341 785 329 788 c 2
 318 793 l 2
 322 792 330 794 342 796 c 128
 354 798 362 799 366 799 c 0
 375 799 382 796 386 790 c 1
473 692 m 0
 474 687 471 683 464 680 c 0
 455 676 449 672 448 669 c 1
 445 671 444 673 444 676 c 0
 444 686 449 690 458 689 c 0
 459 691 461 694 464 698 c 0
 467 699 469 698 470 696 c 128
 471 694 472 693 473 692 c 0
491 617 m 2
 485 617 l 2
 486 619 487 623 487 629 c 1
 491 625 493 622 493 620 c 0
 493 619 492 618 491 617 c 2
450 663 m 1
 449 661 447 656 444 649 c 0
 441 649 439 650 436 652 c 0
 434 659 439 663 450 663 c 1
539 496 m 1
 543 494 545 490 545 483 c 0
 545 466 541 457 534 457 c 0
 531 457 529 459 529 464 c 0
 529 467 530 473 534 480 c 128
 538 487 540 493 539 496 c 1
473 471 m 1
 468 464 466 460 467 459 c 2
 470 456 l 2
 469 454 466 453 462 453 c 1
 462 479 l 1
 465 480 467 479 469 476 c 128
 471 473 472 471 473 471 c 1
436 496 m 2
 435 496 434 495 431 492 c 128
 428 489 426 487 424 487 c 0
 423 487 421 487 420 488 c 128
 419 489 419 493 419 500 c 1
 421 500 425 501 430 502 c 1
 436 496 l 2
508 410 m 0
 508 407 505 405 499 404 c 1
 498 407 499 409 501 410 c 0
 503 411 505 411 508 410 c 0
343 562 m 1
 341 560 l 1
 337 562 l 1
 343 562 l 1
341 548 m 1
 337 545 l 1
 341 551 l 1
 341 548 l 1
438 399 m 1
 433 402 432 407 436 413 c 2
 438 416 l 1
 442 414 444 411 444 407 c 256
 444 403 442 400 438 399 c 1
741 110 m 2
 742 108 740 104 736 98 c 0
 734 97 732 98 730 101 c 2
 730 110 l 1
 741 110 l 2
406 431 m 1
 401 431 l 1
 401 436 l 1
 406 436 l 1
 406 431 l 1
703 47 m 1
 697 41 l 2
 696 42 695 44 695 49 c 2
 697 53 l 1
 703 47 l 1
839 649 m 1
 840 641 839 630 837 617 c 1
 836 623 833 626 826 626 c 0
 822 626 817 625 810 623 c 1
 771 578 743 520 724 449 c 0
 713 404 703 339 694 252 c 0
 685 162 676 96 666 55 c 1
 667 47 666 33 661 13 c 0
 656 -9 654 -24 654 -31 c 0
 654 -50 663 -61 681 -66 c 0
 682 -68 686 -71 692 -76 c 128
 698 -81 701 -85 701 -88 c 256
 701 -91 699 -94 695 -97 c 0
 694 -98 690 -99 683 -101 c 1
 656 -92 619 -84 570 -79 c 0
 515 -73 476 -67 452 -60 c 1
 452 -46 l 1
 460 -39 477 -33 504 -30 c 0
 523 -27 533 -18 533 -2 c 0
 533 3 532 10 530 18 c 1
 531 29 535 53 541 89 c 0
 546 118 549 142 549 160 c 0
 549 177 547 192 542 205 c 1
 513 204 479 207 438 212 c 2
 332 226 l 2
 324 225 313 225 300 228 c 0
 283 231 272 232 267 232 c 0
 254 232 244 228 236 220 c 1
 237 213 238 205 238 197 c 0
 238 181 234 156 226 123 c 128
 218 90 213 65 213 50 c 0
 213 16 230 -7 263 -19 c 1
 263 -32 260 -39 254 -40 c 0
 245 -37 215 -32 162 -24 c 0
 125 -19 97 -11 78 0 c 1
 73 -6 65 -9 54 -9 c 0
 49 -9 42 -8 30 -6 c 128
 18 -4 10 -2 5 -3 c 1
 9 1 26 8 56 17 c 0
 78 24 89 37 90 58 c 1
 98 95 106 154 114 234 c 0
 121 311 130 370 139 410 c 0
 139 415 138 417 135 418 c 1
 140 423 142 427 141 430 c 0
 141 447 143 474 146 509 c 128
 149 544 150 571 150 588 c 0
 150 647 135 694 106 727 c 1
 121 729 136 730 151 730 c 0
 176 730 215 725 267 716 c 128
 319 707 359 703 386 704 c 0
 389 703 390 700 390 697 c 2
 390 689 l 1
 329 663 293 610 280 531 c 0
 278 518 270 450 257 327 c 1
 260 316 266 311 277 311 c 0
 279 311 281 311 283 312 c 0
 311 310 359 306 427 301 c 0
 490 296 536 290 565 283 c 1
 586 403 596 483 596 522 c 0
 596 576 586 620 565 655 c 0
 566 656 566 657 567 658 c 0
 567 659 566 662 564 666 c 128
 562 670 562 672 562 673 c 0
 562 676 564 679 568 681 c 0
 627 672 718 661 839 649 c 1
74 647 m 1
 69 647 l 1
 69 652 l 1
 74 652 l 1
 74 647 l 1
17 609 m 1
 11 603 l 1
 9 605 7 606 5 605 c 1
 5 607 6 609 8 611 c 128
 10 613 11 614 11 615 c 2
 17 609 l 1
491 142 m 1
 490 134 486 127 479 121 c 1
 473 127 l 1
 474 134 480 139 491 142 c 1
112 488 m 1
 109 484 105 482 98 482 c 1
 97 485 99 489 104 494 c 1
 112 488 l 1
496 24 m 0
 493 25 491 31 491 41 c 1
 498 43 502 40 502 31 c 0
 502 28 500 25 496 24 c 0
34 442 m 0
 30 442 27 443 26 444 c 0
 25 447 26 449 30 450 c 1
 30 449 30 448 32 446 c 128
 34 444 35 443 34 442 c 0
442 26 m 2
 441 25 438 24 433 24 c 0
 431 25 430 27 430 32 c 1
 433 35 l 1
 442 26 l 2
88 281 m 1
 84 281 l 1
 84 286 l 1
 88 286 l 1
 88 281 l 1
306 55 m 0
 307 50 305 46 300 41 c 1
 291 53 l 1
 295 56 298 57 301 57 c 0
 303 57 305 56 306 55 c 0
276 40 m 1
 271 40 l 1
 271 43 l 1
 276 43 l 1
 276 40 l 1
81 240 m 2
 82 239 80 235 75 226 c 1
 69 231 l 1
 81 240 l 2
63 251 m 1
 58 245 l 1
 55 248 54 250 55 251 c 2
 63 251 l 1
290 -16 m 1
 285 -16 l 1
 285 -11 l 1
 290 -11 l 1
 290 -16 l 1
318 -31 m 1
 312 -43 l 1
 309 -40 307 -39 306 -40 c 2
 306 -31 l 1
 318 -31 l 1
718 626 m 0
 715 631 710 633 703 632 c 1
 704 631 703 629 701 626 c 1
 703 617 708 614 715 617 c 0
 717 618 718 621 718 626 c 0
705 604 m 1
 705 609 l 1
 701 609 l 1
 701 604 l 1
 705 604 l 1
657 651 m 1
 657 655 l 1
 652 655 l 1
 652 651 l 1
 657 651 l 1
687 632 m 1
 675 626 l 1
 675 622 676 619 678 617 c 0
 685 620 688 625 687 632 c 1
679 602 m 1
 679 605 l 1
 675 605 l 1
 675 602 l 1
 679 602 l 1
697 580 m 1
 697 597 l 1
 678 595 l 1
 678 586 l 2
 678 582 681 580 686 580 c 2
 697 580 l 1
723 544 m 1
 723 548 l 1
 718 548 l 1
 718 544 l 1
 723 544 l 1
635 640 m 1
 617 640 l 1
 621 632 l 2
 622 630 624 629 626 629 c 0
 629 629 632 633 635 640 c 1
672 557 m 1
 673 560 674 564 673 569 c 0
 672 575 670 578 666 577 c 0
 665 575 664 568 664 557 c 1
 672 557 l 1
609 620 m 1
 600 620 l 1
 603 617 l 2
 604 616 606 617 609 620 c 1
649 601 m 1
 629 601 l 1
 629 598 627 595 624 590 c 128
 621 585 620 582 620 580 c 0
 620 577 622 574 625 572 c 1
 637 575 645 584 649 601 c 1
695 531 m 1
 687 533 l 1
 679 528 676 521 678 514 c 1
 687 511 692 516 695 531 c 1
664 514 m 1
 664 522 l 1
 654 522 l 1
 654 516 l 2
 655 515 659 514 664 514 c 1
701 488 m 1
 698 490 695 490 691 489 c 0
 689 488 686 487 681 485 c 0
 680 484 681 482 683 479 c 0
 694 478 700 481 701 488 c 1
703 447 m 1
 695 447 l 2
 694 446 695 444 697 442 c 1
 703 447 l 1
669 476 m 2
 660 476 l 1
 660 473 l 1
 664 471 666 470 666 471 c 0
 668 473 669 475 669 476 c 2
654 496 m 1
 650 497 647 502 646 508 c 128
 645 514 643 517 640 517 c 0
 639 517 637 517 635 516 c 0
 631 512 629 509 629 506 c 0
 629 505 630 503 631 502 c 0
 638 503 643 501 646 496 c 0
 645 495 642 492 636 487 c 128
 630 482 627 478 629 473 c 1
 640 473 l 1
 648 479 653 487 654 496 c 1
701 430 m 1
 683 428 l 1
 683 422 l 1
 690 416 694 413 695 413 c 0
 699 415 701 421 701 430 c 1
617 488 m 1
 616 491 616 495 618 500 c 0
 620 504 619 507 615 508 c 1
 609 502 l 2
 610 501 611 497 611 488 c 1
 617 488 l 1
658 444 m 2
 643 444 l 1
 643 432 l 1
 649 432 l 2
 650 433 651 435 654 438 c 128
 657 441 658 443 658 444 c 2
640 453 m 1
 629 456 l 1
 625 444 l 1
 633 441 638 444 640 453 c 1
689 395 m 1
 689 399 l 1
 681 395 l 1
 689 395 l 1
669 430 m 0
 666 431 664 431 661 431 c 0
 653 431 648 427 646 418 c 0
 647 417 648 416 649 412 c 128
 650 408 651 406 654 407 c 0
 656 408 660 411 666 414 c 0
 670 417 672 419 672 422 c 0
 672 424 671 427 669 430 c 0
689 370 m 0
 692 377 689 381 681 381 c 0
 678 381 676 379 675 375 c 0
 675 374 676 372 680 370 c 128
 684 368 687 369 689 370 c 0
623 413 m 1
 611 418 l 1
 611 410 l 1
 614 409 618 410 623 413 c 1
637 399 m 1
 623 399 l 2
 624 398 626 394 629 389 c 1
 637 399 l 1
666 370 m 1
 666 378 l 1
 663 378 660 380 657 384 c 128
 654 388 652 391 651 391 c 256
 650 391 648 390 646 389 c 0
 637 380 633 372 635 366 c 2
 638 359 l 2
 639 354 641 351 644 351 c 0
 645 351 647 351 649 352 c 2
 643 370 l 1
 649 373 652 374 652 375 c 1
 654 372 655 371 654 370 c 2
 666 370 l 1
693 335 m 1
 681 341 l 1
 676 336 674 332 675 329 c 0
 676 328 682 330 693 335 c 1
623 384 m 1
 615 389 l 2
 614 388 610 386 604 386 c 128
 598 386 594 384 594 381 c 1
 596 382 598 382 600 382 c 256
 602 382 604 382 608 380 c 128
 612 378 615 377 616 377 c 0
 619 377 621 379 623 384 c 1
687 315 m 1
 678 316 674 315 674 310 c 0
 674 309 674 307 675 306 c 0
 680 304 680 304 681 303 c 1
 686 308 688 312 687 315 c 1
297 673 m 1
 297 687 l 1
 289 687 l 1
 289 673 l 1
 297 673 l 1
617 341 m 2
 621 343 623 345 623 348 c 0
 623 351 621 354 617 355 c 256
 613 356 609 356 606 355 c 1
 606 341 l 1
 617 341 l 2
678 277 m 1
 678 283 l 1
 672 283 l 1
 672 277 l 1
 678 277 l 1
306 646 m 1
 294 649 l 1
 294 644 l 1
 297 644 299 643 300 640 c 1
 306 646 l 1
277 673 m 1
 263 673 l 1
 263 667 l 2
 264 666 268 665 275 663 c 0
 276 664 277 668 277 673 c 1
652 334 m 1
 641 331 623 315 597 283 c 1
 613 291 625 298 632 303 c 0
 645 312 651 322 652 334 c 1
265 687 m 2
 263 689 l 1
 256 688 248 682 240 673 c 1
 242 672 244 671 246 671 c 0
 249 671 254 674 258 679 c 128
 262 684 264 687 265 687 c 2
681 249 m 1
 681 255 l 1
 675 255 l 1
 675 249 l 1
 681 249 l 1
615 323 m 0
 614 324 613 325 612 325 c 0
 609 325 606 324 603 321 c 1
 605 320 608 318 611 317 c 1
 614 320 615 322 615 323 c 0
234 692 m 2
 225 689 l 1
 228 687 230 686 231 687 c 0
 234 689 235 691 234 692 c 2
660 292 m 1
 651 288 645 279 644 264 c 0
 642 244 641 233 640 231 c 1
 647 234 652 242 654 256 c 0
 657 276 659 288 660 292 c 1
279 644 m 0
 276 645 271 643 265 640 c 1
 263 635 262 631 262 627 c 0
 262 624 263 621 265 620 c 0
 278 621 285 626 285 634 c 0
 285 637 283 641 279 644 c 0
182 692 m 1
 182 698 l 1
 176 698 l 1
 176 692 l 1
 182 692 l 1
225 677 m 0
 211 679 195 676 176 669 c 1
 175 666 176 662 178 659 c 128
 180 656 183 654 186 654 c 0
 190 654 194 657 199 663 c 1
 202 658 207 657 213 658 c 1
 222 667 226 672 226 673 c 256
 226 674 226 676 225 677 c 0
246 617 m 2
 236 620 l 1
 236 615 l 1
 241 615 245 616 246 617 c 2
269 609 m 1
 260 609 l 2
 262 607 263 605 263 603 c 256
 263 601 261 598 258 594 c 128
 255 590 253 586 254 583 c 1
 260 583 l 1
 266 590 269 598 269 609 c 1
609 263 m 0
 607 265 604 266 601 266 c 0
 596 266 593 264 592 259 c 0
 593 254 596 249 603 243 c 1
 608 251 610 258 609 263 c 0
205 646 m 1
 205 649 l 1
 202 644 l 1
 205 646 l 1
242 589 m 0
 244 590 245 592 245 593 c 0
 245 596 242 598 236 601 c 1
 236 591 l 1
 240 589 242 588 242 589 c 0
254 572 m 1
 246 572 l 1
 246 566 l 1
 251 566 l 2
 254 567 255 569 254 572 c 1
213 595 m 2
 213 605 l 1
 207 605 l 1
 207 597 l 1
 211 595 213 594 213 595 c 2
635 214 m 0
 632 216 630 217 627 217 c 256
 624 217 621 215 616 210 c 128
 611 205 608 203 606 202 c 1
 612 201 615 197 615 192 c 0
 614 182 614 177 615 176 c 256
 616 175 617 173 618 168 c 128
 619 163 621 161 624 161 c 0
 625 161 627 161 629 162 c 0
 629 182 629 182 629 182 c 2
 628 190 626 196 621 199 c 0
 622 202 625 204 630 206 c 128
 635 208 636 210 635 214 c 0
202 617 m 1
 190 611 l 2
 191 610 194 609 199 609 c 0
 200 610 201 612 202 617 c 1
664 156 m 1
 649 156 l 1
 649 150 l 2
 650 149 653 148 658 148 c 1
 662 156 662 155 664 156 c 1
548 269 m 1
 544 272 540 273 537 273 c 0
 533 273 530 270 528 265 c 1
 530 259 l 1
 541 259 547 262 548 269 c 1
592 185 m 0
 597 185 600 187 600 192 c 0
 600 201 596 206 587 206 c 0
 586 206 584 206 582 205 c 1
 589 220 593 226 593 224 c 1
 593 225 593 227 592 228 c 0
 586 230 581 226 577 216 c 0
 574 212 573 209 573 206 c 256
 573 203 576 200 582 195 c 128
 588 190 591 187 592 185 c 0
202 589 m 1
 196 590 193 588 193 583 c 1
 196 581 198 580 199 580 c 0
 200 581 201 584 202 589 c 1
174 620 m 1
 159 617 l 1
 159 612 161 609 164 609 c 0
 171 613 175 617 174 620 c 1
231 583 m 1
 224 584 218 582 211 575 c 2
 190 554 l 1
 195 552 198 551 201 551 c 0
 206 551 211 556 216 566 c 128
 221 576 226 582 231 583 c 1
524 240 m 1
 525 243 525 245 525 247 c 0
 525 252 522 255 516 255 c 1
 516 245 519 240 524 240 c 1
654 110 m 1
 643 110 l 1
 643 101 l 1
 648 100 651 103 654 110 c 1
184 572 m 2
 178 577 l 1
 175 570 174 568 174 568 c 2
 181 568 l 2
 184 568 185 569 184 572 c 2
508 234 m 2
 508 243 l 1
 502 243 l 1
 502 237 l 1
 505 235 507 234 508 234 c 2
476 257 m 1
 477 260 476 262 474 264 c 128
 472 266 470 266 467 265 c 1
 467 257 l 1
 476 257 l 1
491 240 m 1
 491 257 l 1
 479 249 l 2
 478 246 480 242 485 237 c 1
 486 239 488 240 491 240 c 1
635 104 m 2
 621 104 l 1
 621 96 l 1
 629 96 l 1
 632 99 l 2
 634 101 635 103 635 104 c 2
606 164 m 1
 580 168 l 2
 576 166 574 163 574 160 c 0
 574 159 575 157 576 154 c 128
 577 151 577 148 577 147 c 0
 577 144 575 141 571 139 c 0
 570 136 569 133 569 131 c 0
 569 127 573 124 580 120 c 128
 587 116 591 113 592 110 c 1
 600 110 604 113 604 118 c 0
 604 121 602 123 596 124 c 128
 590 125 587 126 586 127 c 0
 583 134 586 142 594 151 c 128
 606 164 606 164 606 164 c 1
205 528 m 0
 203 530 201 531 200 531 c 256
 199 531 197 530 195 529 c 128
 193 528 191 526 188 525 c 1
 188 518 189 515 190 514 c 0
 196 513 200 514 203 516 c 128
 206 518 206 522 205 528 c 0
184 545 m 1
 170 545 l 1
 169 538 171 533 178 531 c 1
 183 534 185 539 184 545 c 1
257 537 m 1
 253 540 248 542 242 542 c 0
 237 542 232 541 225 539 c 1
 225 536 228 534 234 534 c 128
 240 534 245 532 246 531 c 1
 243 530 240 526 236 519 c 128
 232 512 229 509 225 508 c 1
 225 500 l 1
 222 498 218 495 213 490 c 1
 209 493 207 498 207 504 c 1
 202 504 200 503 199 502 c 0
 206 495 210 490 210 487 c 256
 210 484 204 479 190 474 c 128
 176 469 169 463 168 456 c 1
 175 455 183 458 194 465 c 2
 219 482 l 2
 232 491 237 501 234 514 c 1
 238 513 241 512 243 512 c 0
 246 512 248 516 250 523 c 128
 252 530 254 535 257 537 c 1
467 234 m 1
 467 240 l 1
 462 240 l 1
 462 234 l 1
 467 234 l 1
646 55 m 1
 646 58 l 1
 640 58 l 1
 640 55 l 1
 646 55 l 1
456 245 m 1
 456 251 454 255 450 257 c 0
 449 256 447 255 442 254 c 128
 437 253 434 251 434 248 c 0
 434 247 435 245 436 243 c 0
 440 242 447 242 456 245 c 1
231 471 m 1
 222 471 l 1
 222 465 l 1
 228 465 l 2
 230 466 231 468 231 471 c 1
242 459 m 1
 234 459 l 1
 234 450 l 1
 240 450 l 2
 241 451 242 454 242 459 c 1
600 92 m 1
 592 96 l 1
 592 91 593 87 594 86 c 2
 600 92 l 1
178 514 m 2
 170 514 l 1
 170 508 l 1
 176 508 l 2
 178 510 179 512 178 514 c 2
629 55 m 1
 629 67 l 1
 617 67 l 1
 617 61 l 1
 622 56 626 54 629 55 c 1
582 104 m 1
 568 104 l 1
 568 98 l 2
 569 97 573 96 580 96 c 0
 581 97 582 99 582 104 c 1
407 263 m 1
 407 274 l 1
 395 271 l 1
 399 264 403 262 407 263 c 1
609 55 m 2
 609 61 l 1
 603 61 l 1
 603 58 l 1
 606 56 608 55 609 55 c 2
225 442 m 1
 221 446 218 448 217 447 c 0
 217 442 218 439 219 438 c 0
 221 438 223 439 225 442 c 1
174 479 m 1
 177 480 179 483 179 486 c 0
 179 494 175 497 168 496 c 1
 162 488 l 1
 174 479 l 1
372 271 m 2
 374 272 375 273 375 276 c 0
 375 278 374 279 372 280 c 1
 372 279 370 278 368 276 c 128
 366 274 365 273 366 271 c 2
 372 271 l 2
623 14 m 2
 626 16 628 19 628 22 c 0
 628 25 626 27 623 29 c 1
 620 26 618 25 617 26 c 2
 617 14 l 1
 623 14 l 2
392 257 m 1
 380 259 l 1
 380 251 l 2
 382 250 386 252 392 257 c 1
207 453 m 0
 205 454 203 455 201 455 c 0
 198 455 194 452 190 447 c 128
 186 442 183 439 182 438 c 2
 184 436 l 1
 197 439 205 445 207 453 c 0
574 61 m 2
 575 62 576 64 577 67 c 256
 578 70 578 72 577 75 c 256
 576 78 574 79 571 78 c 0
 567 76 565 70 565 61 c 1
 574 61 l 2
242 413 m 1
 243 416 244 420 244 424 c 256
 244 428 243 433 242 438 c 1
 196 393 l 1
 202 393 l 2
 210 395 215 400 217 407 c 1
 225 412 231 415 236 415 c 0
 239 415 241 414 242 413 c 1
588 41 m 0
 591 44 593 48 594 53 c 0
 594 58 591 60 586 61 c 1
 580 55 577 51 577 49 c 0
 580 42 584 40 588 41 c 0
234 395 m 1
 228 393 l 1
 231 389 l 1
 234 395 l 1
607 13 m 1
 607 18 l 1
 603 18 l 1
 603 13 l 1
 607 13 l 1
357 265 m 1
 351 266 346 264 343 259 c 1
 349 255 l 1
 356 258 358 261 357 265 c 1
242 366 m 1
 243 372 239 376 228 378 c 1
 228 370 l 2
 229 367 231 366 234 366 c 2
 242 366 l 1
211 428 m 1
 202 428 l 1
 201 425 196 422 189 418 c 128
 182 414 178 411 178 408 c 256
 178 405 179 402 182 399 c 1
 211 428 l 1
174 430 m 2
 173 431 172 432 170 434 c 128
 168 436 167 437 164 436 c 1
 164 422 l 2
 165 421 166 421 167 421 c 0
 169 421 171 422 172 425 c 2
 174 430 l 2
586 14 m 2
 577 12 l 2
 580 10 581 9 582 9 c 0
 585 11 587 13 586 14 c 2
313 279 m 1
 313 283 l 1
 308 283 l 1
 308 279 l 1
 313 279 l 1
563 6 m 2
 566 7 568 9 568 13 c 0
 568 18 565 20 559 18 c 1
 555 11 553 7 553 6 c 2
 563 6 l 2
169 402 m 1
 169 407 l 1
 164 407 l 1
 164 402 l 1
 169 402 l 1
582 -5 m 1
 571 -5 l 1
 571 -9 l 2
 572 -10 575 -11 580 -11 c 1
 579 -10 580 -8 582 -5 c 1
283 288 m 1
 283 292 l 1
 271 292 l 2
 274 291 278 290 283 288 c 1
623 -58 m 1
 624 -51 622 -48 617 -48 c 1
 617 -58 l 1
 623 -58 l 1
592 -31 m 0
 595 -30 596 -27 596 -24 c 0
 596 -21 595 -19 592 -17 c 1
 587 -22 585 -26 586 -29 c 0
 588 -31 590 -32 592 -31 c 0
242 341 m 0
 243 343 243 345 241 348 c 128
 239 351 239 353 240 355 c 1
 236 357 232 355 226 350 c 128
 220 345 216 342 213 343 c 0
 202 339 198 334 199 327 c 1
 203 330 217 335 242 341 c 0
254 309 m 1
 254 317 l 1
 242 317 l 1
 245 310 249 308 254 309 c 1
199 375 m 1
 193 382 186 380 178 370 c 0
 173 363 173 359 176 358 c 0
 191 365 199 370 199 375 c 1
231 317 m 1
 231 323 l 1
 219 317 l 1
 231 317 l 1
299 241 m 1
 299 245 l 1
 294 245 l 1
 294 241 l 1
 299 241 l 1
168 381 m 2
 153 381 l 1
 153 378 l 1
 156 377 159 376 164 375 c 1
 167 378 168 380 168 381 c 2
606 -60 m 1
 582 -63 l 1
 581 -66 585 -71 592 -77 c 1
 603 -70 608 -65 606 -60 c 1
225 300 m 1
 219 298 l 1
 222 298 l 1
 225 300 l 1
182 341 m 1
 170 341 l 1
 170 331 l 1
 173 330 175 329 176 329 c 0
 181 334 183 338 182 341 c 1
168 358 m 1
 150 358 l 1
 152 354 155 349 159 343 c 1
 162 346 165 351 168 358 c 1
242 292 m 1
 240 288 235 285 226 282 c 128
 217 279 212 276 211 271 c 0
 212 270 215 269 222 269 c 0
 223 270 227 273 234 276 c 128
 241 279 244 283 244 286 c 0
 244 288 243 290 242 292 c 1
190 315 m 1
 190 321 l 1
 184 321 l 1
 184 315 l 1
 190 315 l 1
242 259 m 1
 240 262 238 263 235 262 c 0
 232 260 230 258 228 257 c 0
 228 252 229 250 231 249 c 0
 236 251 240 254 242 259 c 1
207 312 m 0
 204 314 199 312 193 306 c 128
 187 300 182 299 178 300 c 1
 181 297 183 294 183 290 c 0
 183 288 182 285 181 281 c 128
 180 277 179 274 179 272 c 0
 179 269 181 266 184 263 c 1
 199 277 l 1
 188 292 l 1
 190 294 192 295 193 294 c 0
 203 299 208 303 208 306 c 0
 208 308 208 310 207 312 c 0
156 306 m 1
 147 306 l 1
 147 300 l 1
 150 298 152 297 153 298 c 0
 155 299 156 301 156 306 c 1
205 234 m 1
 196 240 l 1
 196 231 l 2
 198 231 201 232 205 234 c 1
164 251 m 2
 168 252 170 256 170 262 c 0
 170 267 168 270 165 270 c 0
 163 270 161 270 159 269 c 2
 159 251 l 1
 164 251 l 2
219 193 m 0
 217 194 215 194 214 194 c 0
 207 194 204 190 207 182 c 1
 217 182 l 1
 218 185 218 188 219 193 c 0
168 226 m 1
 169 236 167 241 160 241 c 0
 159 241 157 241 156 240 c 2
 156 226 l 1
 168 226 l 1
202 211 m 0
 200 213 198 214 196 214 c 0
 193 214 190 212 186 207 c 128
 182 202 179 200 178 199 c 2
 184 193 l 1
 197 202 203 208 202 211 c 0
150 220 m 1
 139 220 l 1
 139 205 l 1
 145 205 l 2
 145 206 146 207 148 210 c 128
 150 213 151 217 150 220 c 1
164 202 m 1
 153 202 l 1
 153 193 l 1
 162 193 l 2
 163 194 164 197 164 202 c 1
178 173 m 1
 181 176 183 178 183 180 c 0
 183 183 181 185 176 187 c 1
 169 184 167 181 168 176 c 1
 178 173 l 1
211 158 m 1
 208 163 206 165 204 165 c 0
 203 165 200 163 198 158 c 128
 196 153 194 151 191 151 c 0
 189 151 187 152 184 154 c 1
 186 145 188 141 190 141 c 2
 190 141 190 141 198 151 c 128
 203 158 207 160 211 158 c 1
211 125 m 1
 211 136 l 1
 201 137 196 134 196 125 c 1
 211 125 l 1
145 182 m 1
 145 191 l 1
 135 191 l 1
 135 185 l 2
 136 183 140 182 145 182 c 1
156 170 m 1
 156 176 l 1
 150 176 l 1
 150 170 l 1
 156 170 l 1
206 103 m 1
 206 107 l 1
 202 107 l 1
 202 103 l 1
 206 103 l 1
163 143 m 1
 163 148 l 1
 159 148 l 1
 159 143 l 1
 163 143 l 1
145 158 m 1
 145 162 l 1
 139 158 l 1
 145 158 l 1
192 108 m 1
 192 113 l 1
 188 113 l 1
 188 108 l 1
 192 108 l 1
205 86 m 1
 205 92 l 1
 199 92 l 1
 199 86 l 1
 205 86 l 1
142 137 m 1
 142 142 l 1
 139 142 l 1
 139 137 l 1
 142 137 l 1
184 55 m 0
 190 58 193 61 193 66 c 0
 193 69 192 73 188 79 c 128
 184 85 182 89 182 92 c 1
 175 90 171 89 168 89 c 256
 165 89 164 90 164 91 c 256
 164 92 167 97 172 105 c 128
 177 113 179 119 179 124 c 0
 179 128 177 131 174 133 c 1
 159 118 152 100 153 78 c 1
 159 79 165 76 170 68 c 128
 175 60 180 55 184 55 c 0
150 121 m 1
 142 124 136 126 132 126 c 0
 126 126 123 122 123 115 c 0
 123 113 123 109 124 104 c 2
 124 93 l 2
 124 81 120 73 112 70 c 1
 115 69 118 68 120 68 c 0
 124 68 128 70 132 76 c 128
 136 82 140 85 141 86 c 1
 134 86 130 88 127 92 c 1
 134 97 141 107 150 121 c 1
182 47 m 1
 177 44 175 39 176 32 c 0
 177 31 179 31 180 31 c 0
 185 31 188 34 188 40 c 0
 188 44 186 46 182 47 c 1
157 46 m 1
 157 49 l 1
 153 49 l 1
 153 46 l 1
 157 46 l 1
182 12 m 1
 183 15 183 17 182 18 c 0
 181 20 179 21 176 20 c 1
 176 12 l 1
 182 12 l 1
206 -18 m 1
 206 -15 l 1
 202 -15 l 1
 202 -18 l 1
 206 -18 l 1
168 9 m 2
 168 10 167 15 164 24 c 0
 163 29 164 34 168 38 c 1
 162 41 l 1
 161 37 158 34 150 32 c 128
 142 30 139 27 141 20 c 1
 153 20 l 1
 158 14 160 10 159 9 c 2
 168 9 l 2
116 41 m 0
 117 42 118 43 119 45 c 0
 119 48 116 51 110 53 c 0
 109 52 108 49 106 43 c 0
 107 42 111 41 116 41 c 0
130 12 m 2
 116 12 l 1
 116 9 l 1
 119 2 121 -1 124 0 c 0
 129 7 131 11 130 12 c 2
EndSplineSet
Validated: 161
EndChar

StartChar: I
Encoding: 73 73 34
Width: 568
Flags: HW
LayerCount: 2
Back
Fore
SplineSet
503 526 m 2
 504.333333333 524 505 521.666666667 505 519 c 0
 505 507.666666667 496 498.333333333 478 491 c 1
 473 526 l 1
 503 526 l 2
404 562 m 2
 404.666666667 560 402.666666667 556.666666667 398 552 c 1
 386 562 l 1
 404 562 l 2
508 416 m 1
 503 409 l 1
 501 411 496 416.333333333 488 425 c 128
 480 433.666666667 476 441.666666667 476 449 c 0
 476 452.333333333 476.666666667 456 478 460 c 1
 503 460 l 1
 496.333333333 453.333333333 493 446.333333333 493 439 c 0
 493 429.666666667 498 422 508 416 c 1
442 509 m 2
 439.333333333 507 437.166666667 499.5 435.5 486.5 c 128
 433.833333333 473.5 432.333333333 467 431 467 c 2
 424 509 l 1
 442 509 l 2
363 562 m 1
 342 539 l 1
 332 557 l 1
 338.666666667 563.666666667 345 567 351 567 c 0
 355.666666667 567 359.666666667 565.333333333 363 562 c 1
508 337 m 1
 509.333333333 333 507.666666667 328.666666667 503 324 c 0
 499.666666667 322.666666667 495.666666667 324.333333333 491 329 c 1
 491 337 l 1
 508 337 l 1
376 408 m 1
 353 408 l 1
 353 414 350.166666667 423 344.5 435 c 128
 338.833333333 447 336 455.333333333 336 460 c 0
 336 468.666666667 341.666666667 476 353 482 c 1
 354.333333333 476 360.666666667 467.5 372 456.5 c 128
 383.333333333 445.5 389 437.333333333 389 432 c 0
 389 424.666666667 384.666666667 416.666666667 376 408 c 1
503 299 m 1
 498.333333333 297.666666667 489.666666667 291.166666667 477 279.5 c 128
 464.333333333 267.833333333 455.333333333 262 450 262 c 0
 442.666666667 262 435.666666667 268.333333333 429 281 c 0
 411 306.333333333 402.666666667 325 404 337 c 1
 434 306 l 1
 455 337 l 1
 457 339 l 1
 464.333333333 335.666666667 468 330.666666667 468 324 c 0
 468 321.333333333 467 319 465 317 c 2
 460 312 l 1
 462 304.666666667 466 301 472 301 c 0
 474 301 477 301.833333333 481 303.5 c 128
 485 305.166666667 488.333333333 306 491 306 c 0
 496.333333333 306 500.333333333 303.666666667 503 299 c 1
492 218 m 1
 463 204 l 1
 478 245 l 1
 488 245 l 1
 492 218 l 1
147 537 m 2
 121 546 l 1
 133 561 l 1
 141.666666667 544.333333333 146.333333333 536.333333333 147 537 c 2
388 267 m 1
 378 267 l 1
 350 298 l 1
 388 277 l 1
 388 267 l 1
421 210 m 2
 402 226 l 1
 413 231 l 1
 419 218.333333333 421.666666667 211.333333333 421 210 c 2
480 9 m 1
 482 -11 474.666666667 -27.3333333333 458 -40 c 1
 434 -40 398.333333333 -40.8333333333 351 -42.5 c 128
 303.666666667 -44.1666666667 268 -45 244 -45 c 0
 168 -45 104 -37.3333333333 52 -22 c 1
 49.3333333333 -14 48 -6 48 2 c 0
 48 23.3333333333 55.3333333333 37.3333333333 70 44 c 1
 147 44 l 2
 179 44.6666666667 206 48 228 54 c 1
 228 618 l 1
 220 621.333333333 208.666666667 623 194 623 c 0
 186 623 173.666666667 622.333333333 157 621 c 128
 140.333333333 619.666666667 128 619 120 619 c 0
 80 619 57.3333333333 633.333333333 52 662 c 0
 50.6666666667 666 50 669.666666667 50 673 c 0
 50 681.666666667 61 694 83 710 c 1
 462 701 l 1
 476 693 483 681 483 665 c 0
 483 639.666666667 471.666666667 624 449 618 c 0
 441 616.666666667 433 616 425 616 c 0
 416.333333333 616 403.5 617 386.5 619 c 128
 369.5 621 356.666666667 622 348 622 c 0
 330.666666667 622 314.666666667 618.666666667 300 612 c 1
 302.666666667 568 303.666666667 473.333333333 303 328 c 0
 302.333333333 210 306.666666667 115.333333333 316 44 c 1
 324 42.6666666667 333 42 343 42 c 0
 351.666666667 42 364.166666667 42.8333333333 380.5 44.5 c 128
 396.833333333 46.1666666667 409.333333333 47 418 47 c 0
 449.333333333 47 470 34.3333333333 480 9 c 1
473 61 m 1
 460 61 l 1
 455 115 l 1
 462.333333333 113 466.333333333 107.333333333 467 98 c 2
 467 98 467 98 467 74 c 0
 467.666666667 68.6666666667 469.666666667 64.3333333333 473 61 c 1
388 180 m 1
 357 153 l 1
 378 190 l 1
 388 190 l 1
 388 180 l 1
443 128 m 1
 428.333333333 113.333333333 420 98.6666666667 418 84 c 1
 419.333333333 96 413.333333333 104.666666667 400 110 c 0
 380.666666667 117.333333333 370.333333333 121.666666667 369 123 c 2
 410 128 l 1
 409.333333333 130.666666667 411.333333333 134.166666667 416 138.5 c 128
 420.666666667 142.833333333 423 145.333333333 423 146 c 2
 443 128 l 1
181 359 m 1
 173.666666667 349 168 344 164 344 c 0
 161.333333333 344 159.5 346.333333333 158.5 351 c 128
 157.5 355.666666667 156.666666667 357 156 355 c 1
 152.666666667 359.666666667 149.666666667 362 147 362 c 0
 145 362 143 360.666666667 141 358 c 1
 141 358 l 1
 141.666666667 359.333333333 143.333333333 364 146 372 c 1
 160.666666667 373.333333333 172.333333333 369 181 359 c 1
63 387 m 1
 41 390 l 1
 41 397 l 1
 48 397 l 1
 63 387 l 1
69 324 m 1
 50 329 l 1
 50 335 l 1
 63 341 l 1
 69 324 l 1
141 243 m 2
 139.666666667 241 129.333333333 240 110 240 c 1
 110 256.666666667 113.333333333 266.333333333 120 269 c 1
 141 243 l 2
59 291 m 1
 50 269 l 1
 45 300 l 1
 59 291 l 1
67 256 m 1
 68.3333333333 253.333333333 65.6666666667 247 59 237 c 1
 55.6666666667 239.666666667 54 244.666666667 54 252 c 1
 67 256 l 1
288 55 m 1
 277 90 l 1
 259 76 l 1
 288 55 l 1
313 32 m 1
 278 32 l 1
 276.666666667 28.6666666667 278 25.3333333333 282 22 c 1
 299 22 l 2
 305.666666667 22.6666666667 310.333333333 26 313 32 c 1
EndSplineSet
Validated: 37
EndChar

